<svg width="10" height="17" viewBox="0 0 10 17" fill="none" xmlns="http://www.w3.org/2000/svg">
<path d="M5.20786 0.559427C4.97006 0.32865 4.5902 0.334344 4.35943 0.572144L0.598706 4.44732C0.367929 4.68512 0.373623 5.06498 0.611423 5.29575C0.849223 5.52653 1.22908 5.52084 1.45986 5.28304L4.80272 1.83843L8.24732 5.1813C8.48512 5.41207 8.86498 5.40638 9.09575 5.16858C9.32653 4.93078 9.32083 4.55092 9.08303 4.32015L5.20786 0.559427ZM4.59711 16.4289C4.83491 16.6597 5.21476 16.654 5.44554 16.4162L9.20626 12.541C9.43704 12.3032 9.43134 11.9233 9.19354 11.6926C8.95574 11.4618 8.57589 11.4675 8.34511 11.7053L5.00225 15.1499L1.55765 11.807C1.31985 11.5762 0.939989 11.5819 0.709213 11.8197C0.478436 12.0575 0.48413 12.4374 0.72193 12.6682L4.59711 16.4289ZM4.19007 0.998994L4.41503 16.0073L5.6149 15.9893L5.38993 0.981009L4.19007 0.998994Z" fill="#FAA300"/>
</svg>
