<svg width="17" height="16" viewBox="0 0 17 16" fill="none" xmlns="http://www.w3.org/2000/svg">
<path d="M8.50016 1.33337C4.82016 1.33337 1.8335 4.32004 1.8335 8.00004C1.8335 11.68 4.82016 14.6667 8.50016 14.6667C12.1802 14.6667 15.1668 11.68 15.1668 8.00004C15.1668 4.32004 12.1802 1.33337 8.50016 1.33337ZM9.06016 11.8467V12.1067C9.06016 12.4134 8.8135 12.66 8.50683 12.66C8.20016 12.66 7.9535 12.4134 7.9535 12.1067V11.8067C6.92683 11.5734 6.40016 10.9267 6.1335 10.4C5.98016 10.1067 6.12683 9.74004 6.4335 9.61337L6.48016 9.59337C6.7535 9.48004 7.06016 9.59337 7.20016 9.85337C7.4135 10.26 7.84016 10.7734 8.62016 10.7734C9.24016 10.7734 9.94016 10.46 9.94016 9.70671C9.94016 9.06671 9.4735 8.72671 8.42016 8.35337C7.4735 8.01337 6.18683 7.57337 6.18683 6.14671C6.18683 4.94004 7.20016 4.31337 7.96016 4.16671V3.88671C7.94683 3.58004 8.1935 3.33337 8.50016 3.33337C8.80683 3.33337 9.0535 3.58004 9.0535 3.88671V4.14671C9.78683 4.26671 10.2402 4.65337 10.5135 5.00004C10.7468 5.30004 10.6335 5.73337 10.2868 5.88671C10.0468 5.98671 9.76683 5.91337 9.60683 5.70671C9.42016 5.45337 9.08683 5.19337 8.5335 5.19337C8.06683 5.19337 7.32683 5.44004 7.32683 6.12004C7.32683 6.85337 8.18016 7.09337 9.08683 7.39337C10.2868 7.81337 11.1068 8.44671 11.0935 9.68671C11.1002 11.62 9.0935 11.84 9.06016 11.8467Z" fill="#FED32C" fill-opacity="0.4"/>
</svg>
