<svg width="283" height="325" viewBox="0 0 283 325" fill="none" xmlns="http://www.w3.org/2000/svg">
<path fill-rule="evenodd" clip-rule="evenodd" d="M13.5489 145.434C13.5489 145.434 14.058 144.376 14.0956 144.33C14.9043 143.346 15.9186 142.531 17.0399 141.914C19.2213 140.713 21.6392 140.853 24.0259 140.452C26.3174 140.066 28.4494 139.144 30.4398 137.982C33.7694 136.038 36.6113 133.263 40.0979 131.583C41.3966 130.957 42.7913 130.531 44.2232 130.328C52.6426 129.146 56.8988 136.275 63.8088 139.107C67.5693 140.649 71.0746 139.349 74.9038 141.511C77.4155 142.928 77.5244 145.434 77.5244 145.434H13.5489ZM225.286 78.6424C225.483 77.254 226.751 75.8281 226.99 75.6278C229.638 73.4157 232.966 74.1892 236.052 73.2947C242.116 71.5373 245.827 65.5427 252.027 64.0509C252.97 63.8242 253.962 63.6794 254.935 63.7326C261.213 64.0767 263.496 70.1877 268.635 72.5863C271.974 74.1456 275.138 73.7976 278.377 75.9966C280.066 77.1443 280.073 78.6424 280.073 78.6424C280.073 78.6424 239.292 78.7077 225.286 78.6424ZM4.45508 45.3588C4.74573 43.4405 5.59591 41.9396 7.66279 40.6687C10.047 39.2028 13.0331 39.6324 15.2645 37.8764C20.1608 34.0232 23.4177 25.9036 31.0932 27.5802C35.9767 28.6472 38.7788 33.1477 42.5925 35.9043C45.708 38.1562 49.3483 38.534 52.9767 39.4957C55.5146 40.1683 58.1821 41.1474 60.1599 42.9106C60.9886 43.6496 61.6291 44.4075 62.0204 45.3588C62.1065 45.5679 12.7384 44.7457 4.45508 45.3588Z" fill="#FFF1E8"/>
<path fill-rule="evenodd" clip-rule="evenodd" d="M4.45558 244.772H280.329V160.529C280.329 160.529 249.347 159.404 225.073 199.246C220.342 207.01 208.109 217.668 188.815 216.831C184.064 216.624 177.037 213.152 170.513 209.494C159.82 203.495 146.908 202.948 135.744 208.018C133.918 208.847 132.016 209.77 130.059 210.797C123.298 214.343 110.861 219.662 101.565 214.339C101.468 214.284 101.369 214.229 101.271 214.177C99.5549 213.256 81.6304 203.658 66.0078 195.294C49.6033 186.51 29.2363 191.134 18.2331 206.141C10.7232 216.375 4.39034 229.537 4.45558 244.772Z" fill="#FFF1E8"/>
<path fill-rule="evenodd" clip-rule="evenodd" d="M6.53821 106.677C6.4675 106.686 6.39578 106.69 6.32308 106.69C5.29205 106.69 4.45508 105.819 4.45508 104.745C4.45508 103.672 5.29205 102.801 6.32308 102.801C7.3541 102.801 8.19124 103.672 8.19124 104.745C8.19124 105.373 7.90522 105.931 7.462 106.286L57.2425 219.258C57.4571 219.169 57.6915 219.118 57.937 219.118C58.4028 219.118 58.8291 219.296 59.1565 219.592L94.4903 179.154C94.4516 178.998 94.4312 178.836 94.4312 178.668C94.4312 177.593 95.2681 176.722 96.2992 176.722C97.3302 176.722 98.1672 177.593 98.1672 178.668C98.1672 178.881 98.1345 179.085 98.0737 179.277L129.889 215.616C130.221 215.306 130.659 215.118 131.139 215.118C131.735 215.118 132.268 215.41 132.61 215.864L227.945 144.965C227.929 144.859 227.921 144.75 227.921 144.638C227.921 143.565 228.757 142.694 229.788 142.694C230.819 142.694 231.656 143.565 231.656 144.638C231.656 144.958 231.583 145.26 231.45 145.526L238.89 158.368C239.136 158.245 239.409 158.176 239.698 158.176C240.176 158.176 240.613 158.364 240.943 158.672L278.61 127.418C278.514 127.183 278.461 126.925 278.461 126.655C278.461 125.581 279.298 124.71 280.328 124.71C281.361 124.71 282.198 125.581 282.198 126.655C282.198 127.728 281.361 128.599 280.328 128.599C279.918 128.599 279.54 128.462 279.231 128.228L241.484 159.55C241.538 159.73 241.566 159.922 241.566 160.12C241.566 161.193 240.729 162.066 239.698 162.066C238.667 162.066 237.831 161.193 237.831 160.12C237.831 159.731 237.94 159.367 238.131 159.063L230.741 146.311C230.462 146.484 230.137 146.584 229.788 146.584C229.227 146.584 228.722 146.325 228.38 145.917L132.997 216.851C133.003 216.92 133.007 216.991 133.007 217.062C133.007 218.135 132.17 219.006 131.139 219.006C130.108 219.006 129.27 218.135 129.27 217.062C129.27 216.877 129.295 216.699 129.341 216.53L97.4982 180.158C97.1737 180.441 96.7553 180.612 96.2992 180.612C95.8055 180.612 95.3561 180.412 95.0221 180.087L59.721 220.485C59.7756 220.669 59.805 220.862 59.805 221.064C59.805 222.137 58.9679 223.008 57.937 223.008C56.906 223.008 56.0689 222.137 56.0689 221.064C56.0689 220.631 56.2048 220.231 56.4346 219.908L6.53821 106.677Z" fill="#DF5D4B"/>
<path fill-rule="evenodd" clip-rule="evenodd" d="M255.677 111.212L251.64 103.173L281.328 104.81L264.134 128.046L259.983 119.785L47.6387 223.771L53.9603 238.74L42.0156 244.579L3.62196 244.579L5.24737 235.236L42.0156 235.235L35.3013 219.131L255.677 111.212Z" fill="#EA7049"/>
<path d="M210.951 121.923C219.595 109.465 216.088 92.0714 203.119 83.0732C190.15 74.0749 172.63 76.8794 163.986 89.3372C155.342 101.795 158.849 119.189 171.818 128.187C184.787 137.185 202.308 134.381 210.951 121.923Z" fill="#FFCD80"/>
<path d="M217.122 94.5831C217.939 96.5655 218.554 98.6128 218.96 100.692" stroke="#FFCD80" stroke-width="0.00292872" stroke-miterlimit="1.5" stroke-linecap="round" stroke-linejoin="round"/>
<path d="M218.96 100.691C219.8 104.995 219.743 109.439 218.726 113.719" stroke="#FFCD80" stroke-width="0.00292872" stroke-miterlimit="1.5" stroke-linecap="round" stroke-linejoin="round"/>
<path d="M185.267 136.62C182.673 136.326 180.086 135.717 177.567 134.783C174.993 133.829 172.49 132.536 170.123 130.894" stroke="#FFCD80" stroke-width="0.00292872" stroke-miterlimit="1.5" stroke-linecap="round" stroke-linejoin="round"/>
<path d="M176.983 75.6163C181.119 74.307 185.538 73.8566 189.943 74.3138" stroke="#FFCD80" stroke-width="0.00292872" stroke-miterlimit="1.5" stroke-linecap="round" stroke-linejoin="round"/>
<path fill-rule="evenodd" clip-rule="evenodd" d="M200.748 86.4905C211.746 94.1211 214.723 108.893 207.393 119.458C200.063 130.022 185.184 132.404 174.186 124.774C173.873 124.556 173.449 124.624 173.24 124.925C173.031 125.226 173.116 125.647 173.429 125.865C185.054 133.93 200.782 131.413 208.53 120.246C216.277 109.079 213.13 93.4657 201.505 85.4001C201.191 85.1826 200.768 85.2501 200.559 85.5513C200.35 85.8524 200.435 86.273 200.748 86.4905Z" fill="#FDA31F"/>
<path fill-rule="evenodd" clip-rule="evenodd" d="M174.187 124.774C163.189 117.143 160.211 102.371 167.541 91.8068C174.871 81.2425 189.751 78.86 200.749 86.4907C201.062 86.7081 201.486 86.6407 201.695 86.3395C201.904 86.0384 201.819 85.6178 201.505 85.4003C189.88 77.3347 174.153 79.8521 166.405 91.0187C158.657 102.185 161.805 117.799 173.43 125.865C173.743 126.082 174.167 126.014 174.376 125.713C174.585 125.412 174.5 124.991 174.187 124.774Z" fill="#FDA31F"/>
<path fill-rule="evenodd" clip-rule="evenodd" d="M185.392 87.4163L184.492 87.5516L184.237 86.2207L185.806 85.9847C186.178 85.9288 186.535 86.1817 186.605 86.5491L187.037 88.8C188.422 88.6545 189.782 88.6753 191.114 88.861C192.816 89.098 194.476 89.6046 196.091 90.3798C196.274 90.4664 196.41 90.6273 196.467 90.8177C196.522 91.0084 196.492 91.2103 196.383 91.3716L193.958 94.946C193.775 95.2149 193.418 95.3067 193.111 95.1626C191.522 94.4172 189.838 94.0708 188.058 94.122L189.497 101.622C196.237 102.01 199.94 104.62 200.736 109.24C201.178 111.748 200.637 113.963 199.122 115.874C197.748 117.676 195.709 119.009 192.994 119.855L193.736 123.723C193.806 124.09 193.564 124.432 193.192 124.488L191.652 124.719L191.397 123.39L192.267 123.259L191.542 119.475C191.477 119.138 191.676 118.817 192.006 118.727C194.694 117.983 196.704 116.763 198.027 115.031C199.312 113.41 199.764 111.54 199.39 109.419C198.674 105.262 195.14 103.178 188.929 102.941C188.602 102.927 188.321 102.687 188.26 102.369L186.577 93.5929C186.542 93.4095 186.585 93.223 186.696 93.0762C186.806 92.9308 186.975 92.8382 187.162 92.8231C189.264 92.6401 191.251 92.938 193.122 93.7143L194.792 91.2525C193.546 90.729 192.274 90.3747 190.973 90.1945C189.551 89.9958 188.099 90.0036 186.612 90.2142C186.243 90.2667 185.89 90.0141 185.82 89.6487L185.392 87.4163ZM191.962 114.473C192.88 114.034 193.514 113.514 193.835 112.888C194.033 112.485 194.151 112.048 194.188 111.577L195.55 111.736C195.497 112.373 195.335 112.965 195.063 113.521C194.536 114.547 193.437 115.414 191.719 116.06C191.53 116.131 191.314 116.114 191.132 116.011C190.951 115.908 190.823 115.732 190.785 115.531L189.883 110.828L191.224 110.626L191.962 114.473ZM181.013 96.7589C181.133 96.122 181.344 95.5754 181.638 95.1171C181.645 95.1058 181.654 95.0942 181.661 95.0829C182.346 94.1534 183.253 93.54 184.38 93.2432C184.565 93.1949 184.767 93.2274 184.933 93.3312C185.099 93.4364 185.214 93.6048 185.25 93.7925L185.989 97.6444L184.648 97.8461L184.065 94.809C183.563 95.0573 183.138 95.4152 182.79 95.883C182.582 96.2127 182.44 96.6072 182.353 97.0634C182.352 97.0753 182.349 97.0875 182.346 97.0997C182.228 97.5767 182.239 98.1325 182.36 98.7623L181.019 98.9641C180.859 98.1294 180.862 97.3946 181.013 96.7589Z" fill="#FDA31F"/>
<path fill-rule="evenodd" clip-rule="evenodd" d="M182.555 101.6C181.751 100.952 181.234 100.076 181.02 98.9625L182.361 98.7608C182.508 99.5243 182.848 100.131 183.4 100.575L183.42 100.591C183.858 100.97 184.496 101.225 185.329 101.386L184.649 97.8446L185.99 97.6428L186.842 102.083C186.882 102.29 186.822 102.499 186.681 102.65C186.542 102.8 186.335 102.876 186.124 102.854C184.491 102.681 183.308 102.243 182.555 101.6Z" fill="#FDA31F"/>
<path fill-rule="evenodd" clip-rule="evenodd" d="M190.613 107.443L191.224 110.627L189.883 110.829L189.117 106.837C189.08 106.643 189.13 106.445 189.255 106.296C189.382 106.147 189.568 106.062 189.768 106.064C191.699 106.085 193.063 106.495 193.884 107.195L193.903 107.213C194.714 107.957 195.229 108.88 195.441 109.987C195.56 110.605 195.594 111.189 195.55 111.737L194.188 111.578C194.224 111.143 194.194 110.679 194.1 110.188C193.948 109.393 193.584 108.729 193.004 108.192C192.489 107.758 191.689 107.524 190.613 107.443Z" fill="#FDA31F"/>
<path fill-rule="evenodd" clip-rule="evenodd" d="M186.456 107.274C179.963 106.836 176.43 104.284 175.721 99.8306C175.263 97.1508 175.725 94.9321 177.065 93.1652C178.292 91.5485 180.275 90.3037 183.04 89.4664L182.596 87.153C182.526 86.7856 182.769 86.4425 183.138 86.3868L184.237 86.2215L184.492 87.5524L184.065 87.6167L184.493 89.849C184.558 90.1875 184.358 90.5102 184.026 90.5996C181.296 91.3423 179.335 92.4596 178.169 93.9969C177.034 95.4945 176.68 97.3838 177.069 99.6644C177.703 103.653 181.072 105.677 187.03 105.963C187.355 105.979 187.633 106.218 187.694 106.533L189.458 115.731C189.494 115.919 189.447 116.109 189.333 116.256C189.218 116.404 189.043 116.493 188.851 116.505C187.142 116.601 185.649 116.442 184.375 116.038C183.264 115.737 182.241 115.31 181.301 114.757L179.144 117.29C180.552 117.977 182.069 118.506 183.688 118.882C185.575 119.3 187.486 119.375 189.425 119.11C189.794 119.06 190.145 119.312 190.215 119.676L190.94 123.459L191.396 123.391L191.651 124.72L190.524 124.89C190.154 124.945 189.797 124.693 189.727 124.327L188.997 120.522C187.12 120.71 185.267 120.6 183.432 120.193C181.377 119.718 179.489 119.01 177.759 118.072C177.578 117.974 177.447 117.799 177.404 117.599C177.361 117.399 177.412 117.194 177.541 117.041L180.615 113.432C180.832 113.176 181.218 113.128 181.51 113.323C182.465 113.956 183.531 114.429 184.703 114.745L184.734 114.754C185.679 115.055 186.759 115.197 187.974 115.185L186.456 107.274Z" fill="#FDA31F"/>
<path d="M127.153 146.519C125.201 131.211 111.084 119.895 95.621 121.244C80.1582 122.593 69.2056 136.097 71.1576 151.405C73.1097 166.714 87.2272 178.03 102.69 176.68C118.153 175.331 129.105 161.828 127.153 146.519Z" fill="#FFCD80"/>
<path fill-rule="evenodd" clip-rule="evenodd" d="M96.1569 125.439C109.269 124.295 121.258 133.906 122.914 146.888C124.569 159.869 115.268 171.338 102.156 172.482C101.782 172.514 101.517 172.841 101.564 173.211C101.611 173.581 101.953 173.855 102.327 173.823C116.186 172.613 126.018 160.491 124.269 146.769C122.519 133.048 109.846 122.89 95.986 124.099C95.6122 124.132 95.3472 124.458 95.3944 124.828C95.4415 125.198 95.7831 125.472 96.1569 125.439Z" fill="#FDA31F"/>
<path fill-rule="evenodd" clip-rule="evenodd" d="M102.155 172.484C89.0419 173.628 77.0524 164.017 75.397 151.036C73.7417 138.054 83.0432 126.585 96.1559 125.441C96.5295 125.408 96.7948 125.082 96.7476 124.712C96.7004 124.342 96.3587 124.068 95.985 124.101C82.1249 125.31 72.2929 137.432 74.0426 151.154C75.7924 164.875 88.4654 175.034 102.326 173.824C102.699 173.792 102.964 173.465 102.917 173.095C102.87 172.725 102.528 172.451 102.155 172.484Z" fill="#FDA31F"/>
<path fill-rule="evenodd" clip-rule="evenodd" d="M85.5397 136.074L84.9717 136.761L83.901 135.887L84.8919 134.689C85.1265 134.405 85.5556 134.372 85.8512 134.614L87.662 136.092C88.5785 135.084 89.5868 134.223 90.6846 133.507C92.0871 132.593 93.6376 131.917 95.3339 131.479C95.5252 131.429 95.7316 131.466 95.8997 131.578C96.0666 131.692 96.1791 131.868 96.2061 132.065L96.8067 136.422C96.8515 136.75 96.651 137.052 96.3311 137.138C94.6736 137.582 93.2115 138.399 91.9436 139.588L97.9777 144.515C103.165 140.466 107.607 140.112 111.258 143.205C113.248 144.878 114.322 146.956 114.484 149.428C114.675 151.721 114.07 154.079 112.646 156.493L115.757 159.033C116.052 159.274 116.102 159.698 115.867 159.982L114.895 161.157L113.825 160.284L114.375 159.619L111.331 157.134C111.06 156.913 110.992 156.534 111.173 156.25C112.646 153.933 113.306 151.682 113.123 149.476C112.986 147.381 112.075 145.628 110.393 144.214C107.108 141.431 103.139 142.086 98.4386 145.911C98.1899 146.112 97.8251 146.106 97.5689 145.897L90.5088 140.132C90.3612 140.011 90.2693 139.838 90.2525 139.652C90.2369 139.467 90.2987 139.285 90.4258 139.153C91.8416 137.652 93.493 136.602 95.3767 136L94.9634 132.999C93.7045 133.395 92.5387 133.94 91.467 134.64C90.2952 135.403 89.2383 136.346 88.2904 137.471C88.0557 137.75 87.6296 137.781 87.3356 137.541L85.5397 136.074ZM108.316 152.957C108.696 152.021 108.815 151.206 108.634 150.51C108.511 150.067 108.306 149.65 108.021 149.258L109.123 148.503C109.507 149.035 109.782 149.601 109.952 150.211C110.248 151.352 110.02 152.739 109.193 154.353C109.102 154.531 108.932 154.656 108.731 154.694C108.53 154.73 108.319 154.675 108.158 154.543L104.374 151.453L105.221 150.43L108.316 152.957ZM88.5421 146.196C88.2068 145.622 87.998 145.059 87.909 144.511C87.9066 144.497 87.9054 144.483 87.9031 144.469C87.7862 143.302 88.0425 142.237 88.6697 141.277C88.7727 141.12 88.9421 141.015 89.1323 140.989C89.3237 140.964 89.52 141.021 89.671 141.144L92.7698 143.675L91.9229 144.698L89.4795 142.703C89.2767 143.222 89.2039 143.775 89.2601 144.365C89.3268 144.757 89.4847 145.157 89.7247 145.569C89.7316 145.579 89.7374 145.59 89.7431 145.602C89.9742 146.05 90.351 146.477 90.8578 146.891L90.0109 147.915C89.3394 147.366 88.8536 146.79 88.5421 146.196Z" fill="#FDA31F"/>
<path fill-rule="evenodd" clip-rule="evenodd" d="M92.8837 148.987C91.8648 148.999 90.9047 148.649 90.009 147.918L90.8559 146.895C91.4702 147.396 92.1221 147.651 92.8208 147.64L92.8458 147.64C93.4181 147.653 94.0542 147.44 94.7705 147.028L91.921 144.702L92.7679 143.678L96.3403 146.595C96.5062 146.731 96.6017 146.933 96.5992 147.142C96.5967 147.349 96.4961 147.542 96.3268 147.661C95.0178 148.58 93.8617 149.002 92.8837 148.987Z" fill="#FDA31F"/>
<path fill-rule="evenodd" clip-rule="evenodd" d="M102.658 148.341L105.219 150.432L104.373 151.456L101.162 148.834C101.005 148.706 100.911 148.519 100.903 148.322C100.896 148.124 100.976 147.937 101.124 147.809C102.55 146.579 103.821 146.019 104.887 146.035L104.912 146.037C105.999 146.094 106.989 146.482 107.879 147.209C108.377 147.615 108.79 148.049 109.121 148.506L108.019 149.261C107.757 148.897 107.427 148.554 107.032 148.232C106.393 147.71 105.685 147.426 104.905 147.382C104.239 147.375 103.499 147.71 102.658 148.341Z" fill="#FDA31F"/>
<path fill-rule="evenodd" clip-rule="evenodd" d="M99.5064 150.89C94.4662 154.741 90.1866 155.03 86.7106 152.011C84.5952 150.215 83.4602 148.184 83.2667 145.939C83.0901 143.884 83.7139 141.632 85.1802 139.193L83.3191 137.673C83.0235 137.432 82.9731 137.007 83.2066 136.725L83.9005 135.886L84.9711 136.76L84.7013 137.087L86.4972 138.553C86.7695 138.775 86.8373 139.157 86.6539 139.441C85.1506 141.783 84.458 143.922 84.6262 145.876C84.7908 147.778 85.7865 149.482 87.5861 151.011C90.6994 153.716 94.5081 153.12 99.0557 149.496C99.3033 149.299 99.6658 149.306 99.9197 149.513L107.32 155.555C107.471 155.678 107.563 155.857 107.577 156.045C107.59 156.235 107.522 156.418 107.389 156.551C106.203 157.729 105.006 158.57 103.805 159.077C102.793 159.559 101.761 159.887 100.706 160.061L100.811 163.432C102.297 163.059 103.758 162.494 105.192 161.74C106.849 160.849 108.297 159.673 109.539 158.215C109.776 157.937 110.2 157.907 110.493 158.146L113.537 160.632L113.825 160.284L114.894 161.157L114.182 162.017C113.949 162.3 113.52 162.333 113.225 162.092L110.164 159.593C108.916 160.952 107.487 162.063 105.875 162.93C104.057 163.886 102.205 164.553 100.317 164.937C100.119 164.977 99.9069 164.926 99.7434 164.797C99.5787 164.669 99.4798 164.476 99.4732 164.273L99.3243 159.47C99.3126 159.13 99.5632 158.844 99.9061 158.807C101.025 158.685 102.119 158.366 103.187 157.856L103.215 157.842C104.106 157.468 104.99 156.881 105.871 156.087L99.5064 150.89Z" fill="#FDA31F"/>
<path d="M75.2939 127.283C78.2498 124.159 81.8865 121.661 85.9966 120.013" stroke="#FFCD80" stroke-width="0.00287337" stroke-miterlimit="1.5" stroke-linecap="round" stroke-linejoin="round"/>
<path d="M130.636 150.124C130.708 152.689 130.461 155.268 129.877 157.803C129.28 160.392 128.331 162.935 127.009 165.369" stroke="#FFCD80" stroke-width="0.0029145" stroke-miterlimit="1.5" stroke-linecap="round" stroke-linejoin="round"/>
<path d="M81.5232 174.695C77.847 172.187 74.6875 168.963 72.2721 165.232" stroke="#FFCD80" stroke-width="0.00287337" stroke-miterlimit="1.5" stroke-linecap="round" stroke-linejoin="round"/>
<path fill-rule="evenodd" clip-rule="evenodd" d="M121.252 124.761L122.516 125.343C123.157 124.915 124.054 124.982 124.659 125.549C124.965 125.836 125.146 126.202 125.198 126.58L127.97 127.857L128.05 127.896L128.127 127.939L128.201 127.985L128.272 128.034L128.341 128.085L128.406 128.141L128.469 128.197L128.528 128.257L128.583 128.32L128.636 128.385L128.685 128.452L128.732 128.52L128.775 128.591L128.813 128.664L128.849 128.737L128.882 128.812L128.91 128.889L128.935 128.967L128.956 129.046L128.973 129.126L128.986 129.206L128.996 129.288L129.002 129.368L129.003 129.45L129.001 129.532L128.994 129.614L128.983 129.697L128.968 129.777L128.949 129.859L128.925 129.939L128.897 130.019L128.864 130.099L128.828 130.175L128.787 130.25L128.743 130.322L128.696 130.391L128.647 130.455L128.593 130.518L128.537 130.577L128.478 130.634L128.417 130.686L128.354 130.735L128.288 130.782L128.219 130.826L128.15 130.864L128.077 130.901L128.004 130.933L127.929 130.961L127.852 130.987L127.774 131.008L127.694 131.027L127.614 131.04L127.533 131.051L127.451 131.057L127.368 131.06L127.286 131.057L127.203 131.052L127.119 131.042L127.035 131.029L126.952 131.011L126.869 130.988L126.787 130.961L126.704 130.932L126.623 130.896L123.363 129.394L101.634 152.039C101.18 152.512 100.476 152.667 99.8362 152.434C99.1971 152.201 98.7425 151.625 98.6758 150.962L95.1985 116.418L77.664 108.339C76.7989 107.94 76.3983 106.936 76.7702 106.097C77.1423 105.258 78.1467 104.901 79.0118 105.3L89.6786 110.215C89.7286 110.183 89.7792 110.156 89.8326 110.13L166.761 72.7393L163.755 67.7499C163.266 66.9382 163.522 65.9136 164.327 65.4619C165.133 65.0087 166.183 65.301 166.672 66.1127L189.053 103.252C189.542 104.064 189.285 105.09 188.481 105.542C187.675 105.994 186.625 105.701 186.135 104.891L171.258 80.1992L121.252 124.761ZM117.835 123.186L169.446 77.1945L168.536 75.6839L93.6891 112.062L117.835 123.186ZM117.493 126.689L98.7811 118.068L101.693 146.99L120.044 127.865L117.54 126.711C117.524 126.704 117.508 126.697 117.493 126.689Z" fill="#EA7049"/>
<path fill-rule="evenodd" clip-rule="evenodd" d="M167.685 63.3967C167.304 62.7185 166.448 62.4538 165.775 62.8049L158.48 66.605C157.807 66.9547 157.57 67.79 157.951 68.4668L159.333 70.9205C159.713 71.5986 160.57 71.8634 161.243 71.5123L168.538 67.7122C169.21 67.3624 169.448 66.5271 169.066 65.8503L167.685 63.3967ZM87.3528 101.148C86.515 99.657 84.6318 99.0738 83.1508 99.8444L68.3793 107.53C66.8985 108.301 66.3763 110.137 67.2143 111.627C68.0521 113.117 69.9346 113.701 71.4155 112.931L86.1872 105.244C87.6682 104.474 88.1905 102.638 87.3528 101.148Z" fill="black"/>
<path fill-rule="evenodd" clip-rule="evenodd" d="M152.123 121.523C155.71 130.174 155.84 135.756 155.84 135.756C158.459 134.827 161.086 135.943 162.044 137.357L133.91 149.003C126.669 128.893 117.657 122.142 113.6 120.054C83.7976 104.715 78.445 100.944 74.4385 96.4167C65.4912 86.3074 66.0176 78.1202 68.6524 72.5474C71.7163 66.0803 78.8145 62.5759 86.0374 63.8921L86.0314 63.8859L86.0669 63.8963C86.2528 63.9304 86.4381 63.968 86.624 64.0081C88.87 64.4976 91.1307 65.2398 93.2883 66.1408L132.145 78.2137C145.628 82.4043 154.512 95.3875 153.261 109.075L152.123 121.523Z" fill="#A8CFCC"/>
<path fill-rule="evenodd" clip-rule="evenodd" d="M92.191 65.701C92.5589 65.8431 92.9237 65.9912 93.2868 66.1421L99.4339 68.0512C112.052 75.1067 139.836 92.9594 152.327 119.269L152.121 121.524C153.077 123.832 153.79 125.922 154.318 127.744C154.27 127.682 154.232 127.613 154.207 127.537C154.184 127.469 154.162 127.401 154.138 127.332L154.131 127.309L154.121 127.276L154.098 127.209L154.065 127.114L154.055 127.08L154.049 127.067C154.026 127 154.004 126.932 153.981 126.865L153.977 126.853L153.966 126.823L153.931 126.722L153.91 126.658L153.898 126.626L153.89 126.602L153.874 126.559L153.821 126.405L153.818 126.399C153.795 126.33 153.772 126.264 153.748 126.195L153.739 126.174L153.729 126.143L153.702 126.072L153.668 125.976L153.658 125.948L153.654 125.936C153.63 125.867 153.604 125.798 153.58 125.73L153.577 125.722L153.57 125.702L153.528 125.587L153.504 125.522L153.495 125.498L153.487 125.476C153.436 125.338 153.384 125.201 153.333 125.062L153.328 125.048L153.321 125.028L153.288 124.944L153.249 124.84L153.243 124.824L153.24 124.816C153.212 124.744 153.186 124.673 153.158 124.601L153.105 124.463L153.077 124.394L153.071 124.378L153.066 124.364C153.011 124.222 152.955 124.081 152.9 123.939L152.896 123.933L152.892 123.92L152.854 123.827L152.812 123.721L152.809 123.71L152.805 123.706C152.75 123.565 152.692 123.424 152.634 123.282L152.628 123.268L152.624 123.253C152.565 123.115 152.509 122.978 152.453 122.841L152.446 122.826L152.435 122.8L152.401 122.718L152.367 122.638L152.354 122.605L152.347 122.588C152.32 122.527 152.295 122.465 152.268 122.404C152.089 121.98 151.904 121.561 151.717 121.143C136.004 86.1125 92.435 65.8885 92.435 65.8885C92.3377 65.8432 92.2556 65.7782 92.191 65.701ZM127.222 134.49L151.717 121.143L152.22 122.431L152.268 122.404L152.347 122.588L152.367 122.638L152.435 122.8L152.453 122.841L152.537 123.047L152.624 123.253L152.634 123.282L152.719 123.488L152.805 123.706L152.812 123.721L152.892 123.92L152.9 123.939L152.984 124.155L153.066 124.364L153.077 124.394L153.158 124.599L153.158 124.601L153.24 124.816L153.249 124.84L153.321 125.028L153.333 125.062L153.412 125.272L153.487 125.476L153.504 125.522L153.57 125.702L153.58 125.73L153.654 125.936L153.668 125.976L153.729 126.143L153.748 126.195L153.818 126.399L153.821 126.405L153.89 126.602L153.91 126.658L153.966 126.823L153.981 126.865L154.049 127.067L154.065 127.114L154.121 127.276L154.138 127.332L154.207 127.537L152.22 122.431L127.909 135.678C127.68 135.273 127.451 134.877 127.222 134.49Z" fill="#82B5B2"/>
<path fill-rule="evenodd" clip-rule="evenodd" d="M170.181 76.5394L117.02 123.913C116.335 124.523 116.303 125.587 116.949 126.286C117.594 126.986 118.675 127.057 119.36 126.447L172.521 79.0738C173.207 78.4632 173.239 77.3984 172.593 76.6997C171.947 76.0009 170.867 75.9282 170.181 76.5394ZM167.186 72.5317L89.8333 110.129C89.0019 110.533 88.6851 111.54 89.1268 112.376C89.5684 113.212 90.6023 113.562 91.434 113.158L168.786 75.5613C169.617 75.158 169.935 74.15 169.493 73.3141C169.051 72.4783 168.017 72.1284 167.186 72.5317Z" fill="#EA7049"/>
<path fill-rule="evenodd" clip-rule="evenodd" d="M82.1205 63.3505C78.0481 63.2021 74.1364 64.9491 71.5286 68.0797C67.2883 73.1548 62.6745 83.1247 74.4383 96.4167C78.4448 100.944 83.7974 104.714 113.599 120.054C117.657 122.142 126.669 128.893 133.91 149.003L162.044 137.357C161.086 135.943 158.459 134.827 155.839 135.756C156.191 136.589 156.832 102.725 97.3621 68.0825C92.8356 65.447 87.2253 63.5263 82.1205 63.3505Z" fill="url(#paint0_linear_1613_16)"/>
<path fill-rule="evenodd" clip-rule="evenodd" d="M126.902 133.957L151.985 121.018C152.177 121.444 152.36 121.865 152.535 122.277L127.6 135.139C127.368 134.735 127.135 134.341 126.902 133.957Z" fill="#82B5B2"/>
<path fill-rule="evenodd" clip-rule="evenodd" d="M147.485 56.5409C143.954 48.8157 139.302 42.3571 134.207 36.3978C132.046 33.868 129.239 31.9726 126.085 30.9137C119.164 28.5868 106.848 27.3197 95.2229 40.5935C95.2229 40.5935 94.7316 41.178 94.0074 42.0393C90.1476 46.6308 90.2757 53.3689 94.3072 57.8107C100.813 64.9469 112.037 72.3467 126.249 62.1202C126.249 62.1202 129.506 66.0609 132.621 69.8323C136.414 74.4221 142.691 76.1201 148.28 74.068C154.999 71.604 161.344 67.6883 166.549 62.6442C167.381 64.0414 167.681 64.6498 169.199 66.6305C169.514 67.0404 169.873 67.2271 170.237 67.2876C170.764 67.3725 171.299 67.1924 171.668 66.8061C172.038 66.4197 172.193 65.877 172.084 65.3549C171.911 64.5925 171.633 63.8294 171.167 62.751C171.167 62.751 171.755 61.3443 172.343 59.9359C172.643 59.2166 172.637 58.404 172.324 57.6882C172.011 56.9738 171.42 56.4163 170.687 56.148C167.348 54.9085 163.346 53.2734 159.033 53.3134C154.796 53.352 151.104 54.7239 147.485 56.5409Z" fill="#A8CFCC"/>
<path fill-rule="evenodd" clip-rule="evenodd" d="M163.101 53.7277C164.538 54.0196 165.923 54.4365 167.239 54.8873C168.625 56.1783 170.258 58.1578 171.832 61.1609L171.168 62.7509C171.265 62.976 171.354 63.1873 171.436 63.3874C171.418 63.3608 171.402 63.3315 171.387 63.3014C167.668 55.1966 163.36 53.8663 163.36 53.8663C163.262 53.8373 163.174 53.7904 163.101 53.7277ZM148.497 56.0468C146.617 57.0534 144.606 58.3696 142.584 59.9529C142.295 60.1788 141.864 60.1243 141.623 59.8299C141.382 59.5354 141.422 59.1123 141.711 58.8865C143.481 57.5004 145.245 56.3138 146.927 55.3493C147.116 55.7433 147.302 56.1409 147.485 56.5408C147.822 56.3722 148.158 56.2077 148.497 56.0468Z" fill="#82B5B2"/>
<path d="M146.396 30.7473C148.988 27.0107 147.937 21.7936 144.047 19.0946C140.157 16.3957 134.902 17.2369 132.309 20.9735C129.716 24.7101 130.768 29.9272 134.658 32.6262C138.548 35.3251 143.803 34.4839 146.396 30.7473Z" fill="#A8CFCC"/>
<path fill-rule="evenodd" clip-rule="evenodd" d="M137.237 28.051L134.098 32.2027C130.676 29.4103 129.848 24.5204 132.309 20.973C134.895 17.2469 140.137 16.401 144.023 19.0769L138.389 26.5269C138.303 26.0931 138.023 25.6609 137.587 25.3581C136.8 24.8117 135.797 24.8919 135.349 25.537C134.902 26.1821 135.178 27.1494 135.965 27.6958C136.367 27.9747 136.825 28.0905 137.237 28.051Z" fill="black"/>
<path fill-rule="evenodd" clip-rule="evenodd" d="M128.428 64.7547L126.251 62.1183C113.788 71.0857 103.624 66.5001 96.9271 60.4195C91.098 55.1184 90.3489 46.3916 95.2246 40.5916C102.83 31.9074 110.73 29.4482 117.223 29.4376C124.363 29.4352 131.224 32.7044 135.794 38.2856C139.358 42.6175 142.66 47.2462 145.454 52.4475L128.428 64.7547Z" fill="url(#paint1_linear_1613_16)"/>
<path fill-rule="evenodd" clip-rule="evenodd" d="M121.919 64.756L118.733 53.6823C118.685 53.5132 118.762 53.3387 118.919 53.2638C119.076 53.1903 119.268 53.237 119.379 53.3765C121.771 56.3956 127.058 63.0686 127.058 63.0686L127.046 63.0822L126.249 62.1196C124.773 63.1821 123.328 64.0547 121.919 64.756Z" fill="#04433F"/>
<defs>
<linearGradient id="paint0_linear_1613_16" x1="106.027" y1="112.068" x2="43.0459" y2="65.6286" gradientUnits="userSpaceOnUse">
<stop stop-color="#A8CFCC"/>
<stop offset="0.6" stop-color="#B8D5D1"/>
<stop offset="0.81" stop-color="#DBE3DC"/>
<stop offset="1" stop-color="#FFF1E8"/>
</linearGradient>
<linearGradient id="paint1_linear_1613_16" x1="117.88" y1="50.0127" x2="76.493" y2="19.5969" gradientUnits="userSpaceOnUse">
<stop stop-color="#82B5B2"/>
<stop offset="1" stop-color="#A8CFCC"/>
</linearGradient>
</defs>
</svg>
