<svg width="380" height="180" viewBox="0 0 380 180" fill="none" xmlns="http://www.w3.org/2000/svg">
<g clip-path="url(#clip0_1_401)">
<path d="M305.109 158.874H73.9659V158.992H305.109V158.874Z" fill="#EBEBEB"/>
<path d="M281.949 166.495H266.638V166.614H281.949V166.495Z" fill="#EBEBEB"/>
<path d="M227.085 167.784H223.067V167.902H227.085V167.784Z" fill="#EBEBEB"/>
<path d="M266.176 162.1H257.304V162.218H266.176V162.1Z" fill="#EBEBEB"/>
<path d="M118.184 162.895H98.2173V163.014H118.184V162.895Z" fill="#EBEBEB"/>
<path d="M125.229 162.895H122.303V163.014H125.229V162.895Z" fill="#EBEBEB"/>
<path d="M178.05 164.894H134.743V165.013H178.05V164.894Z" fill="#EBEBEB"/>
<path d="M183.528 137.747H94.2651C93.5658 137.746 92.8956 137.461 92.4016 136.954C91.9075 136.446 91.6301 135.759 91.6301 135.043V6.4706C91.6362 5.75819 91.9163 5.07701 92.4097 4.57502C92.9031 4.07303 93.5698 3.79077 94.2651 3.78955H183.528C184.228 3.78955 184.9 4.07451 185.395 4.58175C185.89 5.08899 186.168 5.77695 186.168 6.49429V135.043C186.168 135.76 185.89 136.448 185.395 136.955C184.9 137.462 184.228 137.747 183.528 137.747ZM94.2651 3.88429C93.5965 3.88554 92.9557 4.15858 92.4833 4.64347C92.0109 5.12837 91.7456 5.78549 91.7456 6.4706V135.043C91.7456 135.728 92.0109 136.385 92.4833 136.87C92.9557 137.355 93.5965 137.628 94.2651 137.629H183.528C184.197 137.628 184.838 137.355 185.312 136.87C185.785 136.385 186.051 135.728 186.052 135.043V6.4706C186.051 5.78505 185.785 5.12794 185.312 4.64318C184.838 4.15843 184.197 3.88554 183.528 3.88429H94.2651Z" fill="#EBEBEB"/>
<path d="M283.525 137.747H194.258C193.558 137.746 192.887 137.461 192.392 136.954C191.898 136.447 191.619 135.76 191.618 135.043V6.4706C191.625 5.75776 191.906 5.07659 192.401 4.57473C192.895 4.07287 193.562 3.79076 194.258 3.78955H283.525C284.22 3.79202 284.885 4.07483 285.378 4.57669C285.87 5.07854 286.15 5.75901 286.156 6.4706V135.043C286.156 135.758 285.879 136.445 285.386 136.952C284.893 137.459 284.224 137.745 283.525 137.747ZM194.258 3.88429C193.589 3.88554 192.947 4.15843 192.474 4.64318C192.001 5.12794 191.735 5.78505 191.734 6.4706V135.043C191.735 135.728 192.001 136.385 192.474 136.87C192.947 137.355 193.589 137.628 194.258 137.629H283.525C284.194 137.628 284.836 137.355 285.309 136.87C285.782 136.385 286.048 135.728 286.049 135.043V6.4706C286.048 5.78505 285.782 5.12794 285.309 4.64318C284.836 4.15843 284.194 3.88554 283.525 3.88429H194.258Z" fill="#EBEBEB"/>
<path d="M189.538 180.265C239.041 180.265 279.171 177.865 279.171 174.903C279.171 171.942 239.041 169.541 189.538 169.541C140.035 169.541 99.9049 171.942 99.9049 174.903C99.9049 177.865 140.035 180.265 189.538 180.265Z" fill="#F5F5F5"/>
<path d="M253.703 35.0667L233.94 65.8988L233.071 67.2583L231.351 68.073L170.181 97.1999L176.224 118.416L177.606 123.267L172.816 127.321L131.548 168.414H97.399L159.142 115.873L155.402 95.0115L154.385 89.332L159.165 87.0773L224.357 56.3209L245.59 29.4062L239.894 28.2504L257.799 20.6383L256.879 40.4809L253.703 35.0667Z" fill="#263238"/>
<path opacity="0.6" d="M253.703 35.0667L233.94 65.8988L233.071 67.2583L231.351 68.073L170.181 97.1999L176.224 118.416L177.606 123.267L172.816 127.321L131.548 168.414H97.399L159.142 115.873L155.402 95.0115L154.385 89.332L159.165 87.0773L224.357 56.3209L245.59 29.4062L239.894 28.2504L257.799 20.6383L256.879 40.4809L253.703 35.0667Z" fill="#FAFAFA"/>
<path d="M243.371 166.495H210.641C210.32 166.495 210.059 166.763 210.059 167.092V174.738C210.059 175.067 210.32 175.334 210.641 175.334H243.371C243.693 175.334 243.954 175.067 243.954 174.738V167.092C243.954 166.763 243.693 166.495 243.371 166.495Z" fill="#F5D34C"/>
<path opacity="0.2" d="M212.916 167.007H211.575V174.903H212.916V167.007Z" fill="#F5D34C"/>
<path opacity="0.2" d="M215.962 166.969H214.987V174.865H215.962V166.969Z" fill="#F5D34C"/>
<path opacity="0.2" d="M218.768 167.007H218.278V174.903H218.768V167.007Z" fill="#F5D34C"/>
<path opacity="0.2" d="M222.55 166.969H222.305V174.865H222.55V166.969Z" fill="#F5D34C"/>
<path opacity="0.2" d="M241.097 174.865H242.437V166.969H241.097V174.865Z" fill="#F5D34C"/>
<path opacity="0.2" d="M238.05 174.903H239.025V167.007H238.05V174.903Z" fill="#F5D34C"/>
<path opacity="0.2" d="M235.249 174.865H235.734V166.969H235.249V174.865Z" fill="#F5D34C"/>
<path opacity="0.2" d="M231.462 174.903H231.708V167.007H231.462V174.903Z" fill="#F5D34C"/>
<path opacity="0.2" d="M226.946 174.903H227.066V167.007H226.946V174.903Z" fill="#F5D34C"/>
<path opacity="0.2" d="M243.047 167.841H211.034C210.926 167.841 210.823 167.797 210.746 167.719C210.67 167.641 210.627 167.534 210.627 167.424C210.628 167.314 210.672 167.208 210.748 167.131C210.824 167.053 210.927 167.008 211.034 167.007H243.047C243.155 167.007 243.259 167.051 243.335 167.129C243.411 167.207 243.454 167.313 243.454 167.424C243.455 167.479 243.445 167.533 243.425 167.584C243.404 167.635 243.374 167.681 243.336 167.72C243.299 167.759 243.254 167.79 243.204 167.81C243.154 167.831 243.101 167.841 243.047 167.841Z" fill="black"/>
<path d="M244.296 157.68H211.566C211.244 157.68 210.983 157.947 210.983 158.277V165.922C210.983 166.252 211.244 166.519 211.566 166.519H244.296C244.617 166.519 244.878 166.252 244.878 165.922V158.277C244.878 157.947 244.617 157.68 244.296 157.68Z" fill="#F5D34C"/>
<path opacity="0.2" d="M213.84 158.192H212.499V166.088H213.84V158.192Z" fill="#F5D34C"/>
<path opacity="0.2" d="M216.891 158.154H215.916V166.05H216.891V158.154Z" fill="#F5D34C"/>
<path opacity="0.2" d="M219.693 158.192H219.207V166.088H219.693V158.192Z" fill="#F5D34C"/>
<path opacity="0.2" d="M223.475 158.154H223.229V166.05H223.475V158.154Z" fill="#F5D34C"/>
<path opacity="0.2" d="M242.026 166.045H243.367V158.149H242.026V166.045Z" fill="#F5D34C"/>
<path opacity="0.2" d="M238.975 166.083H239.95V158.187H238.975V166.083Z" fill="#F5D34C"/>
<path opacity="0.2" d="M236.169 166.045H236.659V158.149H236.169V166.045Z" fill="#F5D34C"/>
<path opacity="0.2" d="M232.386 166.083H232.632V158.187H232.386V166.083Z" fill="#F5D34C"/>
<path opacity="0.2" d="M227.87 166.083H227.991V158.187H227.87V166.083Z" fill="#F5D34C"/>
<path opacity="0.2" d="M243.972 159.025H211.959C211.851 159.024 211.748 158.98 211.672 158.902C211.596 158.824 211.553 158.719 211.552 158.609C211.552 158.498 211.595 158.392 211.671 158.314C211.747 158.236 211.851 158.192 211.959 158.192H243.972C244.026 158.191 244.079 158.202 244.128 158.222C244.178 158.243 244.223 158.274 244.261 158.312C244.299 158.351 244.329 158.398 244.349 158.448C244.369 158.499 244.379 158.554 244.379 158.609C244.379 158.719 244.336 158.825 244.26 158.903C244.183 158.982 244.08 159.025 243.972 159.025Z" fill="black"/>
<path d="M244.296 148.865H211.566C211.244 148.865 210.983 149.132 210.983 149.462V157.107C210.983 157.437 211.244 157.704 211.566 157.704H244.296C244.617 157.704 244.878 157.437 244.878 157.107V149.462C244.878 149.132 244.617 148.865 244.296 148.865Z" fill="#F5D34C"/>
<path opacity="0.2" d="M213.84 149.372H212.499V157.268H213.84V149.372Z" fill="#F5D34C"/>
<path opacity="0.2" d="M216.891 149.334H215.916V157.23H216.891V149.334Z" fill="#F5D34C"/>
<path opacity="0.2" d="M219.693 149.372H219.207V157.268H219.693V149.372Z" fill="#F5D34C"/>
<path opacity="0.2" d="M223.475 149.334H223.229V157.23H223.475V149.334Z" fill="#F5D34C"/>
<path opacity="0.2" d="M242.026 157.23H243.367V149.334H242.026V157.23Z" fill="#F5D34C"/>
<path opacity="0.2" d="M238.975 157.268H239.95V149.372H238.975V157.268Z" fill="#F5D34C"/>
<path opacity="0.2" d="M236.169 157.23H236.659V149.334H236.169V157.23Z" fill="#F5D34C"/>
<path opacity="0.2" d="M232.386 157.268H232.632V149.372H232.386V157.268Z" fill="#F5D34C"/>
<path opacity="0.2" d="M227.87 157.268H227.991V149.372H227.87V157.268Z" fill="#F5D34C"/>
<path opacity="0.2" d="M243.972 150.205H211.959C211.851 150.205 211.747 150.162 211.671 150.083C211.595 150.005 211.552 149.899 211.552 149.789C211.553 149.678 211.596 149.573 211.672 149.495C211.748 149.417 211.851 149.373 211.959 149.372H243.972C244.08 149.372 244.183 149.416 244.26 149.494C244.336 149.572 244.379 149.678 244.379 149.789C244.379 149.844 244.369 149.898 244.349 149.949C244.329 150 244.299 150.046 244.261 150.085C244.223 150.124 244.178 150.154 244.128 150.175C244.079 150.196 244.026 150.206 243.972 150.205Z" fill="black"/>
<path d="M243.371 140.045H210.641C210.32 140.045 210.059 140.312 210.059 140.642V148.287C210.059 148.617 210.32 148.884 210.641 148.884H243.371C243.693 148.884 243.954 148.617 243.954 148.287V140.642C243.954 140.312 243.693 140.045 243.371 140.045Z" fill="#F5D34C"/>
<path opacity="0.2" d="M212.916 140.556H211.575V148.453H212.916V140.556Z" fill="#F5D34C"/>
<path opacity="0.2" d="M215.962 140.518H214.987V148.415H215.962V140.518Z" fill="#F5D34C"/>
<path opacity="0.2" d="M218.768 140.556H218.278V148.453H218.768V140.556Z" fill="#F5D34C"/>
<path opacity="0.2" d="M222.55 140.518H222.305V148.415H222.55V140.518Z" fill="#F5D34C"/>
<path opacity="0.2" d="M241.097 148.41H242.437V140.514H241.097V148.41Z" fill="#F5D34C"/>
<path opacity="0.2" d="M238.05 148.448H239.025V140.552H238.05V148.448Z" fill="#F5D34C"/>
<path opacity="0.2" d="M235.249 148.41H235.734V140.514H235.249V148.41Z" fill="#F5D34C"/>
<path opacity="0.2" d="M231.462 148.448H231.708V140.552H231.462V148.448Z" fill="#F5D34C"/>
<path opacity="0.2" d="M226.946 148.448H227.066V140.552H226.946V148.448Z" fill="#F5D34C"/>
<path opacity="0.2" d="M243.047 141.39H211.034C210.927 141.389 210.824 141.345 210.748 141.267C210.672 141.189 210.628 141.083 210.627 140.973C210.627 140.863 210.67 140.757 210.746 140.679C210.823 140.6 210.926 140.556 211.034 140.556H243.047C243.101 140.556 243.154 140.566 243.204 140.587C243.254 140.608 243.299 140.638 243.336 140.677C243.374 140.716 243.404 140.762 243.425 140.813C243.445 140.864 243.455 140.918 243.454 140.973C243.454 141.084 243.411 141.19 243.335 141.268C243.259 141.346 243.155 141.39 243.047 141.39Z" fill="black"/>
<path d="M241.984 131.23H209.254C208.932 131.23 208.672 131.497 208.672 131.827V139.472C208.672 139.801 208.932 140.069 209.254 140.069H241.984C242.306 140.069 242.567 139.801 242.567 139.472V131.827C242.567 131.497 242.306 131.23 241.984 131.23Z" fill="#F5D34C"/>
<path opacity="0.2" d="M211.529 131.736H210.188V139.633H211.529V131.736Z" fill="#F5D34C"/>
<path opacity="0.2" d="M214.575 131.698H213.6V139.595H214.575V131.698Z" fill="#F5D34C"/>
<path opacity="0.2" d="M217.377 131.736H216.891V139.633H217.377V131.736Z" fill="#F5D34C"/>
<path opacity="0.2" d="M221.163 131.698H220.918V139.595H221.163V131.698Z" fill="#F5D34C"/>
<path opacity="0.2" d="M239.71 139.595H241.05V131.699H239.71V139.595Z" fill="#F5D34C"/>
<path opacity="0.2" d="M236.659 139.633H237.634V131.737H236.659V139.633Z" fill="#F5D34C"/>
<path opacity="0.2" d="M233.862 139.595H234.347V131.699H233.862V139.595Z" fill="#F5D34C"/>
<path opacity="0.2" d="M230.08 139.633H230.325V131.737H230.08V139.633Z" fill="#F5D34C"/>
<path opacity="0.2" d="M225.559 139.633H225.679V131.737H225.559V139.633Z" fill="#F5D34C"/>
<path opacity="0.2" d="M241.661 132.57H209.647C209.594 132.571 209.54 132.56 209.491 132.54C209.441 132.519 209.396 132.488 209.358 132.449C209.32 132.411 209.29 132.364 209.27 132.314C209.25 132.263 209.24 132.208 209.24 132.153C209.24 132.043 209.283 131.937 209.36 131.859C209.436 131.78 209.539 131.736 209.647 131.736H241.661C241.769 131.736 241.872 131.78 241.948 131.859C242.025 131.937 242.067 132.043 242.067 132.153C242.068 132.208 242.058 132.263 242.038 132.314C242.018 132.364 241.988 132.411 241.95 132.449C241.912 132.488 241.867 132.519 241.817 132.54C241.767 132.56 241.714 132.571 241.661 132.57Z" fill="black"/>
<path d="M243.371 122.41H210.641C210.32 122.41 210.059 122.677 210.059 123.007V130.652C210.059 130.981 210.32 131.249 210.641 131.249H243.371C243.693 131.249 243.954 130.981 243.954 130.652V123.007C243.954 122.677 243.693 122.41 243.371 122.41Z" fill="#F5D34C"/>
<path opacity="0.2" d="M212.916 122.921H211.575V130.817H212.916V122.921Z" fill="#F5D34C"/>
<path opacity="0.2" d="M215.962 122.883H214.987V130.78H215.962V122.883Z" fill="#F5D34C"/>
<path opacity="0.2" d="M218.768 122.921H218.278V130.817H218.768V122.921Z" fill="#F5D34C"/>
<path opacity="0.2" d="M222.55 122.883H222.305V130.78H222.55V122.883Z" fill="#F5D34C"/>
<path opacity="0.2" d="M241.097 130.775H242.437V122.879H241.097V130.775Z" fill="#F5D34C"/>
<path opacity="0.2" d="M238.05 130.813H239.025V122.916H238.05V130.813Z" fill="#F5D34C"/>
<path opacity="0.2" d="M235.249 130.775H235.734V122.879H235.249V130.775Z" fill="#F5D34C"/>
<path opacity="0.2" d="M231.462 130.813H231.708V122.916H231.462V130.813Z" fill="#F5D34C"/>
<path opacity="0.2" d="M226.946 130.813H227.066V122.916H226.946V130.813Z" fill="#F5D34C"/>
<path opacity="0.2" d="M243.047 123.755H211.034C210.926 123.755 210.823 123.711 210.746 123.633C210.67 123.555 210.627 123.449 210.627 123.338C210.627 123.227 210.67 123.121 210.746 123.043C210.823 122.965 210.926 122.921 211.034 122.921H243.047C243.101 122.921 243.154 122.931 243.204 122.952C243.254 122.972 243.299 123.003 243.336 123.042C243.374 123.081 243.404 123.127 243.425 123.178C243.445 123.229 243.455 123.283 243.454 123.338C243.455 123.393 243.445 123.447 243.425 123.498C243.404 123.549 243.374 123.595 243.336 123.634C243.299 123.673 243.254 123.704 243.204 123.724C243.154 123.745 243.101 123.755 243.047 123.755Z" fill="black"/>
<path d="M243.371 113.594H210.641C210.32 113.594 210.059 113.862 210.059 114.191V121.837C210.059 122.166 210.32 122.433 210.641 122.433H243.371C243.693 122.433 243.954 122.166 243.954 121.837V114.191C243.954 113.862 243.693 113.594 243.371 113.594Z" fill="#F5D34C"/>
<path opacity="0.2" d="M212.916 114.101H211.575V121.997H212.916V114.101Z" fill="#F5D34C"/>
<path opacity="0.2" d="M215.962 114.063H214.987V121.959H215.962V114.063Z" fill="#F5D34C"/>
<path opacity="0.2" d="M218.768 114.101H218.278V121.997H218.768V114.101Z" fill="#F5D34C"/>
<path opacity="0.2" d="M222.55 114.063H222.305V121.959H222.55V114.063Z" fill="#F5D34C"/>
<path opacity="0.2" d="M241.097 121.96H242.437V114.063H241.097V121.96Z" fill="#F5D34C"/>
<path opacity="0.2" d="M238.05 121.998H239.025V114.101H238.05V121.998Z" fill="#F5D34C"/>
<path opacity="0.2" d="M235.249 121.96H235.734V114.063H235.249V121.96Z" fill="#F5D34C"/>
<path opacity="0.2" d="M231.462 121.998H231.708V114.101H231.462V121.998Z" fill="#F5D34C"/>
<path opacity="0.2" d="M226.946 121.998H227.066V114.101H226.946V121.998Z" fill="#F5D34C"/>
<path opacity="0.2" d="M243.047 114.94H211.034C210.926 114.938 210.822 114.893 210.746 114.814C210.67 114.735 210.627 114.629 210.627 114.518C210.628 114.408 210.672 114.302 210.748 114.225C210.824 114.147 210.927 114.102 211.034 114.101H243.047C243.155 114.101 243.259 114.145 243.335 114.223C243.411 114.301 243.454 114.407 243.454 114.518C243.455 114.573 243.445 114.628 243.425 114.679C243.404 114.73 243.375 114.777 243.337 114.816C243.299 114.855 243.254 114.886 243.204 114.907C243.155 114.929 243.101 114.94 243.047 114.94Z" fill="black"/>
<path d="M244.758 104.774H212.028C211.706 104.774 211.445 105.042 211.445 105.371V113.017C211.445 113.346 211.706 113.613 212.028 113.613H244.758C245.08 113.613 245.34 113.346 245.34 113.017V105.371C245.34 105.042 245.08 104.774 244.758 104.774Z" fill="#F5D34C"/>
<path opacity="0.2" d="M214.302 105.286H212.962V113.182H214.302V105.286Z" fill="#F5D34C"/>
<path opacity="0.2" d="M217.353 105.248H216.378V113.144H217.353V105.248Z" fill="#F5D34C"/>
<path opacity="0.2" d="M220.159 105.286H219.669V113.182H220.159V105.286Z" fill="#F5D34C"/>
<path opacity="0.2" d="M223.937 105.248H223.691V113.144H223.937V105.248Z" fill="#F5D34C"/>
<path opacity="0.2" d="M242.488 113.14H243.829V105.243H242.488V113.14Z" fill="#F5D34C"/>
<path opacity="0.2" d="M239.437 113.182H240.412V105.286H239.437V113.182Z" fill="#F5D34C"/>
<path opacity="0.2" d="M236.636 113.14H237.121V105.243H236.636V113.14Z" fill="#F5D34C"/>
<path opacity="0.2" d="M232.849 113.182H233.094V105.286H232.849V113.182Z" fill="#F5D34C"/>
<path opacity="0.2" d="M228.337 113.182H228.458V105.286H228.337V113.182Z" fill="#F5D34C"/>
<path opacity="0.2" d="M244.434 106.106H212.426C212.372 106.106 212.318 106.096 212.268 106.075C212.219 106.054 212.173 106.024 212.135 105.985C212.097 105.946 212.066 105.9 212.046 105.849C212.025 105.798 212.014 105.744 212.014 105.689C212.014 105.634 212.025 105.579 212.046 105.528C212.066 105.477 212.097 105.431 212.135 105.392C212.173 105.353 212.219 105.323 212.268 105.302C212.318 105.282 212.372 105.271 212.426 105.272H244.434C244.488 105.271 244.542 105.282 244.591 105.302C244.641 105.323 244.687 105.353 244.725 105.392C244.763 105.431 244.794 105.477 244.814 105.528C244.835 105.579 244.846 105.634 244.846 105.689C244.846 105.744 244.835 105.798 244.814 105.849C244.794 105.9 244.763 105.946 244.725 105.985C244.687 106.024 244.641 106.054 244.591 106.075C244.542 106.096 244.488 106.106 244.434 106.106Z" fill="black"/>
<path d="M242.446 95.9591H209.716C209.395 95.9591 209.134 96.2263 209.134 96.5559V104.201C209.134 104.531 209.395 104.798 209.716 104.798H242.446C242.768 104.798 243.029 104.531 243.029 104.201V96.5559C243.029 96.2263 242.768 95.9591 242.446 95.9591Z" fill="#F5D34C"/>
<path opacity="0.2" d="M211.991 96.4708H210.65V104.367H211.991V96.4708Z" fill="#F5D34C"/>
<path opacity="0.2" d="M215.038 96.4281H214.062V104.324H215.038V96.4281Z" fill="#F5D34C"/>
<path opacity="0.2" d="M217.839 96.4708H217.353V104.367H217.839V96.4708Z" fill="#F5D34C"/>
<path opacity="0.2" d="M221.626 96.4281H221.38V104.324H221.626V96.4281Z" fill="#F5D34C"/>
<path opacity="0.2" d="M240.172 104.324H241.513V96.4281H240.172V104.324Z" fill="#F5D34C"/>
<path opacity="0.2" d="M237.121 104.362H238.096V96.4661H237.121V104.362Z" fill="#F5D34C"/>
<path opacity="0.2" d="M234.324 104.324H234.81V96.4281H234.324V104.324Z" fill="#F5D34C"/>
<path opacity="0.2" d="M230.537 104.362H230.783V96.4661H230.537V104.362Z" fill="#F5D34C"/>
<path opacity="0.2" d="M226.021 104.362H226.142V96.4661H226.021V104.362Z" fill="#F5D34C"/>
<path opacity="0.2" d="M242.123 97.3045H210.11C210.002 97.3032 209.899 97.2589 209.823 97.181C209.747 97.1031 209.704 96.9978 209.703 96.8876C209.703 96.7771 209.746 96.6711 209.822 96.5929C209.898 96.5147 210.002 96.4708 210.11 96.4708H242.123C242.176 96.4702 242.23 96.4805 242.279 96.5012C242.329 96.522 242.374 96.5526 242.412 96.5915C242.45 96.6303 242.48 96.6765 242.5 96.7274C242.52 96.7782 242.53 96.8327 242.53 96.8876C242.53 96.9982 242.487 97.1042 242.411 97.1824C242.334 97.2606 242.231 97.3045 242.123 97.3045Z" fill="black"/>
<path d="M241.522 87.1391H208.792C208.47 87.1391 208.209 87.4063 208.209 87.7359V95.3812C208.209 95.7108 208.47 95.978 208.792 95.978H241.522C241.844 95.978 242.104 95.7108 242.104 95.3812V87.7359C242.104 87.4063 241.844 87.1391 241.522 87.1391Z" fill="#F5D34C"/>
<path opacity="0.2" d="M211.066 87.6508H209.726V95.5471H211.066V87.6508Z" fill="#F5D34C"/>
<path opacity="0.2" d="M214.113 87.6128H213.138V95.5091H214.113V87.6128Z" fill="#F5D34C"/>
<path opacity="0.2" d="M216.919 87.6508H216.429V95.5471H216.919V87.6508Z" fill="#F5D34C"/>
<path opacity="0.2" d="M220.701 87.6128H220.455V95.5091H220.701V87.6128Z" fill="#F5D34C"/>
<path opacity="0.2" d="M239.248 95.5044H240.588V87.6081H239.248V95.5044Z" fill="#F5D34C"/>
<path opacity="0.2" d="M236.196 95.5471H237.172V87.6507H236.196V95.5471Z" fill="#F5D34C"/>
<path opacity="0.2" d="M233.395 95.5044H233.88V87.6081H233.395V95.5044Z" fill="#F5D34C"/>
<path opacity="0.2" d="M229.617 95.5471H229.863V87.6507H229.617V95.5471Z" fill="#F5D34C"/>
<path opacity="0.2" d="M225.096 95.5471H225.217V87.6507H225.096V95.5471Z" fill="#F5D34C"/>
<path opacity="0.2" d="M241.198 88.4845H209.185C209.131 88.4851 209.078 88.4748 209.029 88.454C208.979 88.4333 208.934 88.4026 208.896 88.3638C208.858 88.325 208.828 88.2788 208.808 88.2279C208.788 88.177 208.778 88.1225 208.778 88.0676C208.778 88.0127 208.788 87.9582 208.808 87.9074C208.828 87.8565 208.858 87.8103 208.896 87.7715C208.934 87.7326 208.979 87.7019 209.029 87.6812C209.078 87.6605 209.131 87.6501 209.185 87.6508H241.198C241.252 87.6501 241.305 87.6605 241.355 87.6812C241.404 87.7019 241.45 87.7326 241.487 87.7715C241.525 87.8103 241.555 87.8565 241.575 87.9074C241.596 87.9582 241.606 88.0127 241.605 88.0676C241.606 88.1225 241.596 88.177 241.575 88.2279C241.555 88.2788 241.525 88.325 241.487 88.3638C241.45 88.4026 241.404 88.4333 241.355 88.454C241.305 88.4748 241.252 88.4851 241.198 88.4845Z" fill="black"/>
<path d="M201.742 166.495H169.012C168.69 166.495 168.43 166.763 168.43 167.092V174.738C168.43 175.067 168.69 175.334 169.012 175.334H201.742C202.064 175.334 202.324 175.067 202.324 174.738V167.092C202.324 166.763 202.064 166.495 201.742 166.495Z" fill="#F5D34C"/>
<path opacity="0.2" d="M171.282 167.007H169.941V174.903H171.282V167.007Z" fill="#F5D34C"/>
<path opacity="0.2" d="M174.333 166.969H173.358V174.865H174.333V166.969Z" fill="#F5D34C"/>
<path opacity="0.2" d="M177.135 167.007H176.649V174.903H177.135V167.007Z" fill="#F5D34C"/>
<path opacity="0.2" d="M180.917 166.969H180.671V174.865H180.917V166.969Z" fill="#F5D34C"/>
<path opacity="0.2" d="M199.468 174.865H200.808V166.969H199.468V174.865Z" fill="#F5D34C"/>
<path opacity="0.2" d="M196.417 174.903H197.392V167.007H196.417V174.903Z" fill="#F5D34C"/>
<path opacity="0.2" d="M193.615 174.865H194.101V166.969H193.615V174.865Z" fill="#F5D34C"/>
<path opacity="0.2" d="M189.833 174.903H190.079V167.007H189.833V174.903Z" fill="#F5D34C"/>
<path opacity="0.2" d="M185.317 174.903H185.437V167.007H185.317V174.903Z" fill="#F5D34C"/>
<path opacity="0.2" d="M201.418 167.841H169.405C169.351 167.841 169.298 167.831 169.249 167.81C169.199 167.79 169.154 167.759 169.116 167.72C169.078 167.681 169.048 167.635 169.028 167.584C169.008 167.533 168.998 167.479 168.998 167.424C168.998 167.313 169.041 167.207 169.117 167.129C169.194 167.051 169.297 167.007 169.405 167.007H201.418C201.526 167.008 201.629 167.053 201.705 167.131C201.781 167.208 201.824 167.314 201.825 167.424C201.825 167.534 201.782 167.641 201.706 167.719C201.63 167.797 201.526 167.841 201.418 167.841Z" fill="black"/>
<path d="M200.351 157.68H167.621C167.299 157.68 167.038 157.947 167.038 158.277V165.922C167.038 166.252 167.299 166.519 167.621 166.519H200.351C200.672 166.519 200.933 166.252 200.933 165.922V158.277C200.933 157.947 200.672 157.68 200.351 157.68Z" fill="#F5D34C"/>
<path opacity="0.2" d="M169.895 158.192H168.555V166.088H169.895V158.192Z" fill="#F5D34C"/>
<path opacity="0.2" d="M172.946 158.154H171.971V166.05H172.946V158.154Z" fill="#F5D34C"/>
<path opacity="0.2" d="M175.748 158.192H175.262V166.088H175.748V158.192Z" fill="#F5D34C"/>
<path opacity="0.2" d="M179.53 158.154H179.284V166.05H179.53V158.154Z" fill="#F5D34C"/>
<path opacity="0.2" d="M198.081 166.045H199.422V158.149H198.081V166.045Z" fill="#F5D34C"/>
<path opacity="0.2" d="M195.03 166.083H196.005V158.187H195.03V166.083Z" fill="#F5D34C"/>
<path opacity="0.2" d="M192.228 166.045H192.714V158.149H192.228V166.045Z" fill="#F5D34C"/>
<path opacity="0.2" d="M188.441 166.083H188.687V158.187H188.441V166.083Z" fill="#F5D34C"/>
<path opacity="0.2" d="M183.925 166.083H184.046V158.187H183.925V166.083Z" fill="#F5D34C"/>
<path opacity="0.2" d="M200.027 159.025H168.013C167.906 159.024 167.803 158.98 167.727 158.902C167.651 158.824 167.608 158.719 167.607 158.609C167.607 158.498 167.649 158.392 167.726 158.314C167.802 158.236 167.906 158.192 168.013 158.192H200.027C200.08 158.191 200.134 158.202 200.183 158.222C200.233 158.243 200.278 158.274 200.316 158.312C200.354 158.351 200.384 158.398 200.404 158.448C200.424 158.499 200.434 158.554 200.434 158.609C200.434 158.719 200.391 158.825 200.314 158.903C200.238 158.982 200.135 159.025 200.027 159.025Z" fill="black"/>
<path d="M201.742 148.865H169.012C168.69 148.865 168.43 149.132 168.43 149.462V157.107C168.43 157.437 168.69 157.704 169.012 157.704H201.742C202.064 157.704 202.324 157.437 202.324 157.107V149.462C202.324 149.132 202.064 148.865 201.742 148.865Z" fill="#F5D34C"/>
<path opacity="0.2" d="M171.282 149.372H169.941V157.268H171.282V149.372Z" fill="#F5D34C"/>
<path opacity="0.2" d="M174.333 149.334H173.358V157.23H174.333V149.334Z" fill="#F5D34C"/>
<path opacity="0.2" d="M177.135 149.372H176.649V157.268H177.135V149.372Z" fill="#F5D34C"/>
<path opacity="0.2" d="M180.917 149.334H180.671V157.23H180.917V149.334Z" fill="#F5D34C"/>
<path opacity="0.2" d="M199.468 157.23H200.808V149.334H199.468V157.23Z" fill="#F5D34C"/>
<path opacity="0.2" d="M196.417 157.268H197.392V149.372H196.417V157.268Z" fill="#F5D34C"/>
<path opacity="0.2" d="M193.615 157.23H194.101V149.334H193.615V157.23Z" fill="#F5D34C"/>
<path opacity="0.2" d="M189.833 157.268H190.079V149.372H189.833V157.268Z" fill="#F5D34C"/>
<path opacity="0.2" d="M185.317 157.268H185.437V149.372H185.317V157.268Z" fill="#F5D34C"/>
<path opacity="0.2" d="M201.418 150.205H169.405C169.351 150.206 169.298 150.196 169.249 150.175C169.199 150.154 169.154 150.124 169.116 150.085C169.078 150.046 169.048 150 169.028 149.949C169.008 149.898 168.998 149.844 168.998 149.789C168.998 149.678 169.041 149.572 169.117 149.494C169.194 149.416 169.297 149.372 169.405 149.372H201.418C201.526 149.373 201.629 149.417 201.705 149.495C201.781 149.573 201.824 149.678 201.825 149.789C201.825 149.899 201.782 150.005 201.706 150.083C201.63 150.162 201.526 150.205 201.418 150.205Z" fill="black"/>
<path d="M200.813 140.045H168.083C167.761 140.045 167.5 140.312 167.5 140.642V148.287C167.5 148.617 167.761 148.884 168.083 148.884H200.813C201.135 148.884 201.395 148.617 201.395 148.287V140.642C201.395 140.312 201.135 140.045 200.813 140.045Z" fill="#F5D34C"/>
<path opacity="0.2" d="M170.357 140.556H169.017V148.453H170.357V140.556Z" fill="#F5D34C"/>
<path opacity="0.2" d="M173.409 140.518H172.433V148.415H173.409V140.518Z" fill="#F5D34C"/>
<path opacity="0.2" d="M176.21 140.556H175.724V148.453H176.21V140.556Z" fill="#F5D34C"/>
<path opacity="0.2" d="M179.992 140.518H179.746V148.415H179.992V140.518Z" fill="#F5D34C"/>
<path opacity="0.2" d="M198.543 148.41H199.884V140.514H198.543V148.41Z" fill="#F5D34C"/>
<path opacity="0.2" d="M195.492 148.448H196.467V140.552H195.492V148.448Z" fill="#F5D34C"/>
<path opacity="0.2" d="M192.686 148.41H193.176V140.514H192.686V148.41Z" fill="#F5D34C"/>
<path opacity="0.2" d="M188.904 148.448H189.149V140.552H188.904V148.448Z" fill="#F5D34C"/>
<path opacity="0.2" d="M184.392 148.448H184.513V140.552H184.392V148.448Z" fill="#F5D34C"/>
<path opacity="0.2" d="M200.489 141.39H168.481C168.372 141.39 168.268 141.346 168.191 141.268C168.114 141.19 168.07 141.084 168.069 140.973C168.069 140.918 168.08 140.864 168.101 140.813C168.121 140.762 168.152 140.716 168.19 140.677C168.228 140.638 168.274 140.608 168.323 140.587C168.373 140.566 168.427 140.556 168.481 140.556H200.489C200.543 140.556 200.597 140.566 200.646 140.587C200.696 140.608 200.742 140.638 200.78 140.677C200.818 140.716 200.849 140.762 200.869 140.813C200.89 140.864 200.901 140.918 200.901 140.973C200.9 141.084 200.856 141.19 200.779 141.268C200.702 141.346 200.598 141.39 200.489 141.39Z" fill="black"/>
<path d="M200.813 131.23H168.083C167.761 131.23 167.5 131.497 167.5 131.827V139.472C167.5 139.801 167.761 140.069 168.083 140.069H200.813C201.135 140.069 201.395 139.801 201.395 139.472V131.827C201.395 131.497 201.135 131.23 200.813 131.23Z" fill="#F5D34C"/>
<path opacity="0.2" d="M170.357 131.736H169.017V139.633H170.357V131.736Z" fill="#F5D34C"/>
<path opacity="0.2" d="M173.409 131.698H172.433V139.595H173.409V131.698Z" fill="#F5D34C"/>
<path opacity="0.2" d="M176.21 131.736H175.724V139.633H176.21V131.736Z" fill="#F5D34C"/>
<path opacity="0.2" d="M179.992 131.698H179.746V139.595H179.992V131.698Z" fill="#F5D34C"/>
<path opacity="0.2" d="M198.543 139.595H199.884V131.699H198.543V139.595Z" fill="#F5D34C"/>
<path opacity="0.2" d="M195.492 139.633H196.467V131.737H195.492V139.633Z" fill="#F5D34C"/>
<path opacity="0.2" d="M192.686 139.595H193.176V131.699H192.686V139.595Z" fill="#F5D34C"/>
<path opacity="0.2" d="M188.904 139.633H189.149V131.737H188.904V139.633Z" fill="#F5D34C"/>
<path opacity="0.2" d="M184.392 139.633H184.513V131.737H184.392V139.633Z" fill="#F5D34C"/>
<path opacity="0.2" d="M200.489 132.57H168.481C168.427 132.571 168.373 132.56 168.323 132.54C168.274 132.519 168.228 132.489 168.19 132.45C168.152 132.411 168.121 132.365 168.101 132.314C168.08 132.263 168.069 132.208 168.069 132.153C168.07 132.042 168.114 131.936 168.191 131.858C168.268 131.78 168.372 131.736 168.481 131.736H200.489C200.598 131.736 200.702 131.78 200.779 131.858C200.856 131.936 200.9 132.042 200.901 132.153C200.901 132.208 200.89 132.263 200.869 132.314C200.849 132.365 200.818 132.411 200.78 132.45C200.742 132.489 200.696 132.519 200.646 132.54C200.597 132.56 200.543 132.571 200.489 132.57Z" fill="black"/>
<path d="M200.813 122.41H168.083C167.761 122.41 167.5 122.677 167.5 123.007V130.652C167.5 130.981 167.761 131.249 168.083 131.249H200.813C201.135 131.249 201.395 130.981 201.395 130.652V123.007C201.395 122.677 201.135 122.41 200.813 122.41Z" fill="#F5D34C"/>
<path opacity="0.2" d="M170.357 122.921H169.017V130.817H170.357V122.921Z" fill="#F5D34C"/>
<path opacity="0.2" d="M173.409 122.883H172.433V130.78H173.409V122.883Z" fill="#F5D34C"/>
<path opacity="0.2" d="M176.21 122.921H175.724V130.817H176.21V122.921Z" fill="#F5D34C"/>
<path opacity="0.2" d="M179.992 122.883H179.746V130.78H179.992V122.883Z" fill="#F5D34C"/>
<path opacity="0.2" d="M198.543 130.775H199.884V122.879H198.543V130.775Z" fill="#F5D34C"/>
<path opacity="0.2" d="M195.492 130.813H196.467V122.916H195.492V130.813Z" fill="#F5D34C"/>
<path opacity="0.2" d="M192.686 130.775H193.176V122.879H192.686V130.775Z" fill="#F5D34C"/>
<path opacity="0.2" d="M188.904 130.813H189.149V122.916H188.904V130.813Z" fill="#F5D34C"/>
<path opacity="0.2" d="M184.392 130.813H184.513V122.916H184.392V130.813Z" fill="#F5D34C"/>
<path opacity="0.2" d="M200.489 123.755H168.481C168.427 123.755 168.373 123.745 168.323 123.724C168.274 123.704 168.228 123.673 168.19 123.634C168.152 123.596 168.121 123.55 168.101 123.499C168.08 123.448 168.069 123.393 168.069 123.338C168.069 123.283 168.08 123.228 168.101 123.177C168.121 123.127 168.152 123.08 168.19 123.042C168.228 123.003 168.274 122.972 168.323 122.952C168.373 122.931 168.427 122.921 168.481 122.921H200.489C200.543 122.921 200.597 122.931 200.646 122.952C200.696 122.972 200.742 123.003 200.78 123.042C200.818 123.08 200.849 123.127 200.869 123.177C200.89 123.228 200.901 123.283 200.901 123.338C200.901 123.393 200.89 123.448 200.869 123.499C200.849 123.55 200.818 123.596 200.78 123.634C200.742 123.673 200.696 123.704 200.646 123.724C200.597 123.745 200.543 123.755 200.489 123.755Z" fill="black"/>
<path d="M201.215 104.68H168.485C168.164 104.68 167.903 104.947 167.903 105.277V112.922C167.903 113.251 168.164 113.519 168.485 113.519H201.215C201.537 113.519 201.798 113.251 201.798 112.922V105.277C201.798 104.947 201.537 104.68 201.215 104.68Z" fill="#F5D34C"/>
<path opacity="0.2" d="M170.76 105.191H169.419V113.088H170.76V105.191Z" fill="#F5D34C"/>
<path opacity="0.2" d="M173.811 105.153H172.835V113.05H173.811V105.153Z" fill="#F5D34C"/>
<path opacity="0.2" d="M176.612 105.191H176.127V113.088H176.612V105.191Z" fill="#F5D34C"/>
<path opacity="0.2" d="M180.394 105.153H180.149V113.05H180.394V105.153Z" fill="#F5D34C"/>
<path opacity="0.2" d="M198.945 113.045H200.286V105.149H198.945V113.045Z" fill="#F5D34C"/>
<path opacity="0.2" d="M195.894 113.087H196.87V105.191H195.894V113.087Z" fill="#F5D34C"/>
<path opacity="0.2" d="M193.093 113.045H193.578V105.149H193.093V113.045Z" fill="#F5D34C"/>
<path opacity="0.2" d="M189.306 113.087H189.552V105.191H189.306V113.087Z" fill="#F5D34C"/>
<path opacity="0.2" d="M184.794 113.087H184.915V105.191H184.794V113.087Z" fill="#F5D34C"/>
<path opacity="0.2" d="M200.891 106.025H168.883C168.829 106.026 168.775 106.015 168.726 105.995C168.676 105.974 168.63 105.943 168.592 105.905C168.554 105.866 168.523 105.82 168.503 105.769C168.482 105.718 168.471 105.663 168.471 105.608C168.472 105.497 168.516 105.391 168.593 105.313C168.67 105.235 168.774 105.191 168.883 105.191H200.891C201 105.191 201.104 105.235 201.181 105.313C201.258 105.391 201.302 105.497 201.303 105.608C201.303 105.663 201.292 105.718 201.271 105.769C201.251 105.82 201.22 105.866 201.182 105.905C201.144 105.943 201.098 105.974 201.049 105.995C200.999 106.015 200.945 106.026 200.891 106.025Z" fill="black"/>
<path d="M201.742 113.594H169.012C168.69 113.594 168.43 113.862 168.43 114.191V121.837C168.43 122.166 168.69 122.433 169.012 122.433H201.742C202.064 122.433 202.324 122.166 202.324 121.837V114.191C202.324 113.862 202.064 113.594 201.742 113.594Z" fill="#F5D34C"/>
<path opacity="0.2" d="M171.282 114.101H169.941V121.997H171.282V114.101Z" fill="#F5D34C"/>
<path opacity="0.2" d="M174.333 114.063H173.358V121.959H174.333V114.063Z" fill="#F5D34C"/>
<path opacity="0.2" d="M177.135 114.101H176.649V121.998H177.135V114.101Z" fill="#F5D34C"/>
<path opacity="0.2" d="M180.917 114.063H180.671V121.959H180.917V114.063Z" fill="#F5D34C"/>
<path opacity="0.2" d="M199.468 121.959H200.808V114.063H199.468V121.959Z" fill="#F5D34C"/>
<path opacity="0.2" d="M196.417 121.998H197.392V114.101H196.417V121.998Z" fill="#F5D34C"/>
<path opacity="0.2" d="M193.615 121.96H194.101V114.063H193.615V121.96Z" fill="#F5D34C"/>
<path opacity="0.2" d="M189.833 121.998H190.079V114.101H189.833V121.998Z" fill="#F5D34C"/>
<path opacity="0.2" d="M185.317 121.998H185.437V114.101H185.317V121.998Z" fill="#F5D34C"/>
<path opacity="0.2" d="M201.418 114.94H169.405C169.351 114.94 169.298 114.929 169.248 114.907C169.199 114.886 169.154 114.855 169.116 114.816C169.078 114.777 169.048 114.73 169.028 114.679C169.008 114.628 168.998 114.573 168.998 114.518C168.998 114.407 169.041 114.301 169.117 114.223C169.194 114.145 169.297 114.101 169.405 114.101H201.418C201.526 114.102 201.629 114.147 201.705 114.225C201.781 114.302 201.824 114.408 201.825 114.518C201.825 114.629 201.783 114.735 201.706 114.814C201.63 114.893 201.527 114.938 201.418 114.94Z" fill="black"/>
<path d="M160.109 166.495H127.379C127.057 166.495 126.796 166.762 126.796 167.092V174.737C126.796 175.067 127.057 175.334 127.379 175.334H160.109C160.43 175.334 160.691 175.067 160.691 174.737V167.092C160.691 166.762 160.43 166.495 160.109 166.495Z" fill="#F5D34C"/>
<path opacity="0.2" d="M129.653 167.007H128.312V174.903H129.653V167.007Z" fill="#F5D34C"/>
<path opacity="0.2" d="M132.699 166.969H131.724V174.865H132.699V166.969Z" fill="#F5D34C"/>
<path opacity="0.2" d="M135.501 167.007H135.016V174.903H135.501V167.007Z" fill="#F5D34C"/>
<path opacity="0.2" d="M139.283 166.969H139.038V174.865H139.283V166.969Z" fill="#F5D34C"/>
<path opacity="0.2" d="M157.834 174.865H159.175V166.969H157.834V174.865Z" fill="#F5D34C"/>
<path opacity="0.2" d="M154.788 174.903H155.763V167.007H154.788V174.903Z" fill="#F5D34C"/>
<path opacity="0.2" d="M151.982 174.865H152.467V166.969H151.982V174.865Z" fill="#F5D34C"/>
<path opacity="0.2" d="M148.2 174.903H148.445V167.007H148.2V174.903Z" fill="#F5D34C"/>
<path opacity="0.2" d="M143.683 174.903H143.804V167.007H143.683V174.903Z" fill="#F5D34C"/>
<path opacity="0.2" d="M159.785 167.841H127.772C127.718 167.841 127.665 167.831 127.615 167.81C127.566 167.79 127.521 167.759 127.483 167.72C127.445 167.681 127.415 167.635 127.395 167.584C127.374 167.533 127.364 167.479 127.365 167.424C127.365 167.313 127.408 167.207 127.484 167.129C127.56 167.051 127.664 167.007 127.772 167.007H159.785C159.893 167.007 159.996 167.051 160.073 167.129C160.149 167.207 160.192 167.313 160.192 167.424C160.192 167.479 160.182 167.533 160.162 167.584C160.142 167.635 160.112 167.681 160.074 167.72C160.036 167.759 159.991 167.79 159.941 167.81C159.892 167.831 159.839 167.841 159.785 167.841Z" fill="black"/>
<path d="M160.571 157.68H127.841C127.519 157.68 127.259 157.947 127.259 158.277V165.922C127.259 166.252 127.519 166.519 127.841 166.519H160.571C160.893 166.519 161.153 166.252 161.153 165.922V158.277C161.153 157.947 160.893 157.68 160.571 157.68Z" fill="#F5D34C"/>
<path opacity="0.2" d="M130.116 158.192H128.775V166.088H130.116V158.192Z" fill="#F5D34C"/>
<path opacity="0.2" d="M133.162 158.154H132.186V166.05H133.162V158.154Z" fill="#F5D34C"/>
<path opacity="0.2" d="M135.963 158.192H135.478V166.088H135.963V158.192Z" fill="#F5D34C"/>
<path opacity="0.2" d="M139.751 158.154H139.505V166.05H139.751V158.154Z" fill="#F5D34C"/>
<path opacity="0.2" d="M158.296 166.045H159.637V158.149H158.296V166.045Z" fill="#F5D34C"/>
<path opacity="0.2" d="M155.245 166.083H156.221V158.187H155.245V166.083Z" fill="#F5D34C"/>
<path opacity="0.2" d="M152.444 166.045H152.929V158.149H152.444V166.045Z" fill="#F5D34C"/>
<path opacity="0.2" d="M148.662 166.083H148.907V158.187H148.662V166.083Z" fill="#F5D34C"/>
<path opacity="0.2" d="M144.145 166.083H144.266V158.187H144.145V166.083Z" fill="#F5D34C"/>
<path opacity="0.2" d="M160.247 159.025H128.234C128.126 159.025 128.023 158.981 127.946 158.903C127.87 158.825 127.827 158.719 127.827 158.608C127.826 158.553 127.837 158.499 127.857 158.448C127.877 158.397 127.907 158.351 127.945 158.312C127.983 158.273 128.028 158.243 128.078 158.222C128.127 158.201 128.18 158.191 128.234 158.192H160.247C160.301 158.191 160.354 158.201 160.404 158.222C160.453 158.243 160.498 158.273 160.536 158.312C160.574 158.351 160.604 158.397 160.624 158.448C160.645 158.499 160.655 158.553 160.654 158.608C160.654 158.719 160.611 158.825 160.535 158.903C160.459 158.981 160.355 159.025 160.247 159.025Z" fill="black"/>
<path d="M158.722 148.865H125.992C125.67 148.865 125.409 149.132 125.409 149.462V157.107C125.409 157.436 125.67 157.704 125.992 157.704H158.722C159.044 157.704 159.304 157.436 159.304 157.107V149.462C159.304 149.132 159.044 148.865 158.722 148.865Z" fill="#F5D34C"/>
<path opacity="0.2" d="M128.262 149.372H126.921V157.268H128.262V149.372Z" fill="#F5D34C"/>
<path opacity="0.2" d="M131.313 149.334H130.338V157.23H131.313V149.334Z" fill="#F5D34C"/>
<path opacity="0.2" d="M134.114 149.372H133.629V157.268H134.114V149.372Z" fill="#F5D34C"/>
<path opacity="0.2" d="M137.896 149.334H137.651V157.23H137.896V149.334Z" fill="#F5D34C"/>
<path opacity="0.2" d="M156.443 157.23H157.783V149.334H156.443V157.23Z" fill="#F5D34C"/>
<path opacity="0.2" d="M153.401 157.268H154.376V149.372H153.401V157.268Z" fill="#F5D34C"/>
<path opacity="0.2" d="M150.595 157.23H151.08V149.334H150.595V157.23Z" fill="#F5D34C"/>
<path opacity="0.2" d="M146.812 157.268H147.058V149.372H146.812V157.268Z" fill="#F5D34C"/>
<path opacity="0.2" d="M142.296 157.268H142.417V149.372H142.296V157.268Z" fill="#F5D34C"/>
<path opacity="0.2" d="M158.398 150.205H126.385C126.331 150.206 126.278 150.196 126.228 150.175C126.179 150.154 126.134 150.124 126.096 150.085C126.058 150.046 126.028 150 126.008 149.949C125.987 149.898 125.977 149.843 125.978 149.789C125.978 149.678 126.021 149.572 126.097 149.494C126.173 149.416 126.277 149.372 126.385 149.372H158.398C158.506 149.373 158.608 149.417 158.685 149.495C158.761 149.573 158.804 149.678 158.805 149.789C158.805 149.899 158.762 150.005 158.686 150.083C158.61 150.161 158.506 150.205 158.398 150.205Z" fill="black"/>
<path d="M143.268 24.3447C142.541 26.2207 142.373 28.2755 142.787 30.249C143.201 32.2224 144.177 34.0259 145.593 35.431C147.008 36.836 148.799 37.7796 150.739 38.1422C152.679 38.5048 154.68 38.2701 156.489 37.4678C158.298 36.6656 159.835 35.3318 160.903 33.6354C161.971 31.939 162.524 29.9562 162.491 27.9381C162.458 25.9199 161.841 23.9571 160.718 22.2982C159.595 20.6392 158.016 19.3587 156.182 18.6188C153.727 17.6266 150.989 17.6724 148.567 18.746C146.146 19.8197 144.24 21.8333 143.268 24.3447Z" fill="#F5D34C"/>
<path d="M145.476 25.2341C144.922 26.6636 144.794 28.2292 145.109 29.7329C145.425 31.2366 146.169 32.6107 147.247 33.6812C148.326 34.7518 149.691 35.4707 151.169 35.747C152.646 36.0233 154.171 35.8445 155.55 35.2333C156.928 34.622 158.099 33.6058 158.913 32.3133C159.727 31.0208 160.148 29.51 160.123 27.9723C160.098 26.4346 159.628 24.939 158.773 23.6749C157.917 22.4108 156.714 21.435 155.317 20.871C153.446 20.1142 151.359 20.1486 149.514 20.9668C147.668 21.785 146.216 23.32 145.476 25.2341Z" fill="#FED32C"/>
<path d="M145.565 25.0089C145.765 24.7633 145.938 24.4972 146.084 24.2149C146.541 23.501 147.105 22.8648 147.754 22.3291C148.705 21.5388 149.83 20.9988 151.032 20.7564C151.378 20.6864 151.728 20.6417 152.08 20.6228C152.453 20.6023 152.827 20.6112 153.199 20.6496C153.576 20.6863 153.95 20.7526 154.317 20.8481C155.078 21.0444 155.803 21.364 156.465 21.7947C156.784 22.0029 157.086 22.2351 157.371 22.4895C157.913 22.9755 158.384 23.5385 158.77 24.1614C159.427 25.2239 159.82 26.4349 159.914 27.6886C159.98 28.5387 159.915 29.3941 159.72 30.2233C159.622 30.5273 159.553 30.8406 159.515 31.1585C159.716 30.9032 159.86 30.6062 159.937 30.2882C160.226 29.4467 160.359 28.5572 160.328 27.6657C160.279 26.3249 159.894 25.0196 159.21 23.8751C159.016 23.5428 158.798 23.2263 158.557 22.9285C158.309 22.6154 158.037 22.3231 157.744 22.0543C157.438 21.7749 157.111 21.5197 156.767 21.2909C156.409 21.0615 156.035 20.8587 155.648 20.6839C155.26 20.5158 154.86 20.378 154.451 20.2716C154.054 20.1696 153.648 20.1007 153.24 20.0655C152.846 20.0312 152.451 20.0312 152.057 20.0655C151.681 20.0901 151.307 20.145 150.939 20.2297C149.658 20.505 148.469 21.1138 147.486 21.997C146.833 22.5879 146.292 23.2971 145.89 24.0889C145.716 24.3672 145.606 24.6814 145.565 25.0089Z" fill="#A68401"/>
<path d="M150.081 32.0746L149.578 33.3267L150.659 33.7886L151.148 32.567C152.131 32.9442 153.198 33.0315 154.228 32.819L154.172 31.2005C153.366 31.3847 152.527 31.3518 151.737 31.105L152.483 29.2346C153.814 29.4445 155.335 29.6163 155.977 28.0016C156.454 26.8144 156.021 25.444 154.373 24.5164L154.873 23.2758L153.78 22.8177L153.292 24.0355C152.493 23.7508 151.639 23.6644 150.801 23.7835V25.3906C151.438 25.2996 152.086 25.3412 152.706 25.5127L151.942 27.4214C150.614 27.2 149.115 27.0396 148.485 28.6314C148.023 29.7881 148.452 31.1585 150.081 32.0746ZM153.157 27.5932L153.791 26.0052C154.317 26.3869 154.418 26.803 154.269 27.1732C154.12 27.5435 153.698 27.639 153.157 27.5932ZM150.197 29.5018C150.353 29.1201 150.756 29.0323 151.293 29.059L150.659 30.6012C150.174 30.2462 150.051 29.8568 150.197 29.498V29.5018Z" fill="#A68401"/>
<path d="M206.903 13.2632C206.903 13.2632 209.375 17.2522 214.902 16.6987C218.321 16.3437 225.018 16.6224 225.663 19.2296L223.996 26.8221C223.996 26.8221 219.686 25.2456 215.084 25.9441C210.561 26.6313 204.446 22.8407 204.446 22.8407L206.903 13.2632Z" fill="#93D9B7"/>
<g opacity="0.4">
<path d="M214.797 24.7226C215.32 24.7259 215.838 24.6136 216.314 24.3933C216.791 24.173 217.216 23.85 217.559 23.4462C217.902 23.0424 218.157 22.5674 218.304 22.0538C218.452 21.5402 218.489 21 218.414 20.4701C218.075 18.5615 215.431 17.4621 213.567 17.798C213.124 17.8812 212.701 18.0528 212.324 18.3031C211.946 18.5534 211.62 18.8774 211.364 19.2567C211.109 19.636 210.928 20.0631 210.834 20.5137C210.74 20.9642 210.733 21.4293 210.815 21.8825C211.161 23.8064 212.933 24.734 214.797 24.7226Z" fill="white"/>
</g>
<path d="M214.286 23.272L214.256 23.8866L214.797 23.9057L214.827 23.3064C215.307 23.3121 215.778 23.1798 216.188 22.9246L215.927 22.2375C215.607 22.4423 215.241 22.5581 214.864 22.5734L214.913 21.6535C215.517 21.5351 216.195 21.3672 216.233 20.5808C216.263 19.9968 215.86 19.4738 215.032 19.3288L215.062 18.718L214.525 18.6913L214.495 19.2906C214.106 19.2897 213.722 19.3853 213.376 19.5693L213.611 20.2602C213.873 20.1232 214.158 20.0402 214.45 20.0159L214.402 20.9511C213.798 21.0656 213.13 21.2336 213.093 22.0085C213.067 22.604 213.447 23.1193 214.286 23.272ZM214.95 20.8519L214.991 20.0884C215.271 20.1686 215.364 20.3365 215.364 20.5198C215.364 20.703 215.192 20.8022 214.95 20.8519ZM213.958 22.1268C213.958 21.936 214.13 21.8405 214.365 21.768L214.323 22.5315C214.051 22.4704 213.947 22.3215 213.958 22.1421V22.1268Z" fill="#EBEBEB"/>
<g opacity="0.5">
<path d="M223.437 25.925L224.929 19.0158L224.876 18.9661C222.389 16.7254 217.419 17.1262 214.118 17.3896C213.552 17.4354 213 17.4774 212.556 17.5041C209.468 17.6683 207.41 15.0038 207.373 14.7175L207.134 14.6832L205.411 22.1116L205.471 22.1612C207.029 23.3911 208.82 24.2748 210.73 24.7559C212.64 25.2371 214.627 25.305 216.565 24.9554C219.216 24.421 223.277 25.8639 223.31 25.8792L223.437 25.925ZM224.656 19.1074L223.258 25.5967C222.512 25.3486 218.992 24.2111 216.516 24.7111C214.625 25.0504 212.686 24.9858 210.821 24.5213C208.955 24.0569 207.204 23.2027 205.676 22.0123L207.291 15.0763C207.42 15.2654 207.563 15.4441 207.72 15.6108C208.212 16.1452 210.024 17.882 212.567 17.7446C213.03 17.7217 213.57 17.6797 214.137 17.6339C217.363 17.3782 222.233 16.9888 224.656 19.1074Z" fill="white"/>
</g>
<path d="M83.8177 34.3001C83.8177 34.3001 87.9941 34.8918 90.8691 30.605C92.6515 27.9558 96.7944 23.3522 98.9535 24.421L103.141 30.0935C100.793 31.5809 98.7914 33.5755 97.2755 35.9377C95.0716 39.5717 88.8778 41.7018 88.8778 41.7018L83.8177 34.3001Z" fill="#93D9B7"/>
<g opacity="0.4">
<path d="M96.2947 35.4224C96.6044 35.0523 96.8327 34.6182 96.964 34.1498C97.0954 33.6814 97.1268 33.1895 97.0561 32.7075C96.9853 32.2256 96.8141 31.7649 96.554 31.3566C96.294 30.9484 95.9512 30.6022 95.5489 30.3416C94.0574 29.4598 91.7417 30.689 90.8765 32.2235C90.4633 32.9618 90.353 33.8378 90.5697 34.6592C90.7864 35.4807 91.3124 36.1807 92.0325 36.6057C93.5167 37.4875 95.1835 36.7813 96.2947 35.4224Z" fill="white"/>
</g>
<path d="M94.997 34.9376L95.3998 35.3193L95.7354 34.9376L95.3625 34.5559C95.6514 34.2193 95.8425 33.8068 95.9144 33.3649L95.2916 33.1473C95.2407 33.4951 95.1033 33.8237 94.8926 34.1016L94.2923 33.5252C94.572 33.0251 94.8553 32.4449 94.3445 31.9487C93.9716 31.5669 93.3787 31.5669 92.782 32.067L92.383 31.6853L92.0474 32.067L92.4203 32.4487C92.1937 32.7248 92.034 33.0518 91.9542 33.403L92.5658 33.6435C92.6269 33.3771 92.7384 33.1255 92.8939 32.903L93.5055 33.4908C93.2221 33.9871 92.9424 34.5635 93.4495 35.0483C93.8224 35.4147 94.4004 35.4491 94.997 34.9376ZM93.7516 33.0289L93.2333 32.5556C93.3026 32.4879 93.3947 32.4502 93.4905 32.4502C93.5864 32.4502 93.6785 32.4879 93.7478 32.5556C93.8821 32.6587 93.8485 32.8343 93.7516 33.0442V33.0289ZM94.035 34.4948C93.9082 34.3726 93.938 34.2008 94.035 33.9909L94.5272 34.4681C94.3184 34.6284 94.1506 34.6207 94.035 34.51V34.4948Z" fill="#EBEBEB"/>
<g opacity="0.5">
<path d="M102.213 29.9751L98.3829 24.8295H98.3195C95.3364 25.2799 92.6552 29.0666 90.8914 31.5746C90.5857 32.0059 90.2986 32.4144 90.0413 32.7579C88.3297 35.0483 85.3018 34.9567 85.0855 34.8116L84.9214 34.9605L88.9636 40.5833H89.0307C90.7884 40.1973 92.4482 39.4405 93.9043 38.3614C95.3605 37.2822 96.5809 35.9042 97.488 34.3154C98.6924 32.1052 102.071 30.0629 102.104 30.0439L102.213 29.9751ZM98.286 25.0738L101.884 29.9103C101.284 30.292 98.4202 32.1357 97.2978 34.2009C96.4125 35.7513 95.2233 37.0975 93.8051 38.1545C92.3868 39.2115 90.7701 39.9566 89.0568 40.3428L85.2831 35.0941C85.4892 35.1084 85.696 35.1084 85.9021 35.0941C86.5584 35.0559 88.8107 34.7887 90.2202 32.8954C90.4775 32.5518 90.7647 32.1319 91.0704 31.7082C92.8007 29.2499 95.4109 25.5547 98.286 25.0738Z" fill="white"/>
</g>
<path d="M76.4269 133.843C76.4269 133.843 78.97 137.279 83.9631 136.336C87.0544 135.748 93.1736 135.484 93.9529 137.813L92.9946 144.852C90.3077 144.207 87.5159 144.169 84.8133 144.741C80.7413 145.719 74.8905 142.737 74.8905 142.737L76.4269 133.843Z" fill="#93D9B7"/>
<g opacity="0.4">
<path d="M84.4739 143.653C84.9498 143.616 85.4121 143.473 85.8295 143.236C86.2468 142.999 86.6094 142.673 86.8924 142.28C87.1755 141.886 87.3725 141.435 87.4699 140.957C87.5674 140.478 87.563 139.984 87.4571 139.508C87.0059 137.798 84.5224 137 82.8518 137.458C82.0495 137.68 81.3662 138.22 80.9523 138.958C80.5383 139.696 80.4276 140.572 80.6443 141.394C81.0843 143.104 82.7512 143.81 84.4739 143.653Z" fill="white"/>
</g>
<path d="M83.8922 142.371V142.936H84.3844V142.386C84.8205 142.358 85.2404 142.206 85.5963 141.947L85.3092 141.34C85.0321 141.548 84.7071 141.68 84.3658 141.722L84.3397 140.882C84.8804 140.729 85.4845 140.523 85.4584 139.806C85.4584 139.271 85.0482 138.825 84.2688 138.756V138.198H83.7766V138.748C83.426 138.779 83.0874 138.894 82.7884 139.084L83.0532 139.699C83.2803 139.553 83.534 139.455 83.799 139.412L83.8251 140.267C83.2844 140.416 82.7064 140.619 82.7064 141.329C82.7288 141.859 83.1166 142.298 83.8922 142.371ZM84.3173 140.13L84.2949 139.416C84.5597 139.466 84.6678 139.611 84.6678 139.775C84.6678 139.939 84.5336 140.054 84.3173 140.13ZM83.5081 141.371C83.5081 141.195 83.6424 141.092 83.8512 141.012L83.8736 141.707C83.6237 141.657 83.5118 141.531 83.5081 141.371Z" fill="#EBEBEB"/>
<g opacity="0.5">
<path d="M92.4203 144.085L93.2668 137.66L93.2146 137.618C90.7871 135.771 86.2825 136.519 83.2993 137.011C82.7884 137.099 82.3037 137.179 81.8861 137.237C79.0856 137.618 77.016 135.358 76.9601 135.099H76.7401L75.7072 142L75.7631 142.042C77.2735 143.042 78.9707 143.708 80.7466 143.998C82.5225 144.289 84.338 144.197 86.0774 143.73C88.4527 143.039 92.2488 144.039 92.2898 144.05L92.4203 144.085ZM93.0319 137.775L92.2339 143.802C91.5515 143.63 88.2439 142.867 86.0252 143.512C84.3289 143.97 82.5583 144.063 80.8252 143.784C79.0922 143.505 77.4345 142.862 75.957 141.894L76.9116 135.45C77.0446 135.612 77.1892 135.764 77.3442 135.904C77.8327 136.355 79.6114 137.813 81.9159 137.477C82.3335 137.416 82.822 137.336 83.3366 137.252C86.2601 136.767 90.664 136.034 93.0319 137.775Z" fill="white"/>
</g>
<path d="M292.88 68.6777C291.875 71.3909 291.68 74.3483 292.318 77.1755C292.956 80.0026 294.399 82.5724 296.465 84.5594C298.53 86.5464 301.125 87.8614 303.922 88.3378C306.718 88.8141 309.589 88.4305 312.172 87.2355C314.755 86.0405 316.933 84.0878 318.431 81.6246C319.93 79.1615 320.68 76.2986 320.588 73.3985C320.496 70.4984 319.566 67.6914 317.914 65.333C316.263 62.9746 313.965 61.1708 311.312 60.1499C307.763 58.78 303.828 58.9088 300.372 60.5079C296.915 62.107 294.221 65.0456 292.88 68.6777Z" fill="#F5D34C"/>
<path d="M316.899 69.9069C317.666 71.974 317.816 74.2275 317.331 76.3822C316.846 78.5369 315.748 80.4959 314.175 82.0111C312.602 83.5263 310.625 84.5296 308.494 84.894C306.364 85.2584 304.176 84.9675 302.207 84.0582C300.238 83.1489 298.577 81.662 297.434 79.7858C296.291 77.9095 295.718 75.7283 295.786 73.5183C295.855 71.3083 296.563 69.1688 297.82 67.3708C299.077 65.5727 300.827 64.1969 302.848 63.4176C305.552 62.3707 308.552 62.4663 311.187 63.6833C313.822 64.9003 315.876 67.139 316.899 69.9069Z" fill="#F5D34C"/>
<path d="M316.478 69.9069C316.447 69.8552 316.42 69.8016 316.396 69.7465C316.343 69.6282 316.273 69.4679 316.179 69.2656C316.131 69.1587 316.079 69.0365 316.023 68.9067C315.967 68.7769 315.877 68.6472 315.795 68.4983C315.615 68.1527 315.411 67.821 315.184 67.5058C314.586 66.6247 313.86 65.8421 313.032 65.1849C311.062 63.5837 308.609 62.7355 306.094 62.7864C303.579 62.8373 301.16 63.784 299.254 65.4636C298.862 65.8024 298.494 66.1698 298.154 66.5629C297.982 66.7614 297.829 66.979 297.665 67.189C297.5 67.3995 297.349 67.6214 297.214 67.8532C296.922 68.3134 296.661 68.7929 296.431 69.2885C296.213 69.8044 296.03 70.3349 295.883 70.8764C295.57 71.9805 295.434 73.1291 295.48 74.2776C295.561 76.6615 296.401 78.9527 297.874 80.8013C298.579 81.6977 299.422 82.4711 300.369 83.0917C300.828 83.3956 301.306 83.6685 301.801 83.9086C302.293 84.1275 302.798 84.3124 303.314 84.4621C303.818 84.6112 304.332 84.7235 304.851 84.798C305.36 84.8618 305.874 84.8899 306.387 84.882C308.319 84.8573 310.209 84.308 311.865 83.2902C313.176 82.476 314.305 81.3878 315.178 80.0966C316.05 78.8054 316.647 77.3402 316.929 75.7969C317.126 74.7429 317.167 73.6646 317.052 72.598C317.016 72.2128 316.956 71.8303 316.873 71.4528C316.836 71.2887 316.813 71.1322 316.78 70.991L316.668 70.6092L316.519 70.0977C316.501 70.0403 316.487 69.9816 316.478 69.9221C316.503 69.9762 316.525 70.0324 316.541 70.0901C316.586 70.2161 316.642 70.3802 316.713 70.594C316.75 70.7047 316.787 70.8306 316.832 70.9757C316.877 71.1207 316.899 71.2734 316.936 71.4376C317.032 71.8135 317.099 72.1964 317.138 72.5828C317.271 73.6586 317.243 74.7491 317.052 75.816C316.781 77.3852 316.187 78.8775 315.309 80.1938C314.432 81.51 313.291 82.6202 311.962 83.4505C310.278 84.4928 308.354 85.058 306.387 85.0881C305.864 85.0961 305.341 85.0681 304.821 85.0041C304.29 84.9302 303.766 84.8166 303.251 84.6644C302.723 84.514 302.206 84.3265 301.704 84.1033C301.199 83.8609 300.71 83.5842 300.242 83.2749C299.276 82.6409 298.416 81.8521 297.695 80.9388C296.96 79.9941 296.37 78.9398 295.946 77.8124C295.543 76.6765 295.311 75.4848 295.256 74.2776C295.21 73.1044 295.35 71.9314 295.67 70.8039C295.822 70.2557 296.01 69.7188 296.233 69.1968C296.467 68.6899 296.735 68.2001 297.035 67.731C297.17 67.4951 297.324 67.2705 297.494 67.0592C297.661 66.8454 297.818 66.624 297.993 66.4217C298.339 66.0215 298.713 65.6477 299.112 65.3032C300.609 63.9979 302.419 63.1255 304.355 62.7762C305.888 62.5026 307.461 62.5653 308.969 62.9602C310.477 63.355 311.886 64.0729 313.103 65.0666C313.937 65.7396 314.664 66.5405 315.258 67.4409C315.481 67.7611 315.681 68.098 315.855 68.4487C315.933 68.6013 316.012 68.7388 316.075 68.8686L316.22 69.2312L316.418 69.7236C316.444 69.7823 316.464 69.8438 316.478 69.9069Z" fill="#A68401"/>
<path d="M316.455 70.0482C316.396 70.075 316.183 69.6322 315.71 68.9031C315.07 67.868 314.279 66.9398 313.364 66.1508C312.736 65.6162 312.054 65.1529 311.328 64.769C310.501 64.3366 309.624 64.0134 308.718 63.807C308.226 63.6988 307.728 63.6261 307.226 63.5894C306.164 63.5102 305.096 63.5977 304.06 63.849C303.519 63.9852 302.988 64.1613 302.472 64.3758C301.956 64.5908 301.458 64.8461 300.98 65.1392C300.521 65.4269 300.085 65.7511 299.675 66.1088C299.274 66.4537 298.9 66.8302 298.556 67.2349C298.225 67.6224 297.922 68.0345 297.65 68.4679C297.145 69.2714 296.742 70.1372 296.45 71.0445C296.196 71.8417 296.027 72.6647 295.946 73.499C295.841 74.7193 295.92 75.949 296.181 77.1445C296.364 77.9996 296.52 78.4653 296.457 78.4882C296.394 78.5111 296.159 78.0836 295.872 77.2323C295.476 76.0154 295.303 74.7344 295.361 73.4532C295.402 72.5654 295.544 71.6855 295.782 70.8308C296.063 69.8507 296.47 68.9136 296.994 68.0442C297.278 67.5739 297.596 67.126 297.945 66.7043C298.307 66.2617 298.704 65.8494 299.131 65.4713C299.572 65.0798 300.044 64.7249 300.54 64.4101C301.052 64.0888 301.586 63.808 302.14 63.5703C302.696 63.3364 303.27 63.1488 303.855 63.0092C304.974 62.7442 306.127 62.6605 307.271 62.7611C307.809 62.8079 308.342 62.8973 308.867 63.0283C309.837 63.2647 310.772 63.6345 311.645 64.1277C312.404 64.5592 313.11 65.0821 313.748 65.6851C314.672 66.5526 315.431 67.588 315.985 68.7389C316.373 69.5405 316.481 70.0292 316.455 70.0482Z" fill="#A68401"/>
<path d="M309.71 79.6335L310.407 81.4429L308.826 82.0804L308.151 80.3168C306.548 80.8474 304.855 80.9504 303.721 80.6031L303.833 78.2822C304.989 78.5659 306.197 78.537 307.338 78.1982L306.302 75.4956C304.381 75.7666 302.2 75.9536 301.305 73.6404C300.645 71.9264 301.305 69.9682 303.684 68.6779L302.994 66.88L304.571 66.2463L305.269 68.0061C306.423 67.6155 307.651 67.5108 308.852 67.7007L308.826 69.9911C307.913 69.8471 306.981 69.8912 306.085 70.1209L307.141 72.8693C309.057 72.5868 311.213 72.4074 312.089 74.6901C312.727 76.3888 312.074 78.328 309.71 79.6335ZM305.388 73.1212L304.508 70.8309C303.762 71.3615 303.594 71.9761 303.796 72.499C303.997 73.022 304.605 73.167 305.388 73.1212ZM309.602 75.9269C309.386 75.3582 308.808 75.236 308.036 75.2665L308.893 77.4996C309.613 77.0034 309.799 76.4423 309.602 75.9269Z" fill="#A68401"/>
<path d="M115.568 104.844C113.639 106.067 111.39 106.69 109.106 106.634C106.823 106.578 104.607 105.846 102.74 104.53C100.872 103.214 99.4372 101.374 98.6163 99.242C97.7953 97.1104 97.6252 94.783 98.1275 92.5546C98.6299 90.3262 99.782 88.2969 101.438 86.7236C103.094 85.1503 105.18 84.1038 107.431 83.7164C109.683 83.329 111.998 83.6183 114.085 84.5475C116.172 85.4767 117.936 87.0042 119.154 88.9365C120.788 91.5215 121.328 94.6497 120.655 97.6329C119.983 100.616 118.153 103.21 115.568 104.844Z" fill="#F5D34C"/>
<path d="M114.104 102.52C112.634 103.451 110.92 103.926 109.18 103.884C107.44 103.841 105.752 103.284 104.329 102.281C102.906 101.279 101.812 99.8768 101.187 98.2527C100.561 96.6285 100.431 94.8553 100.813 93.1573C101.196 91.4593 102.073 89.9129 103.335 88.7139C104.597 87.5149 106.186 86.7171 107.901 86.4216C109.616 86.126 111.381 86.346 112.971 87.0536C114.561 87.7612 115.905 88.9247 116.834 90.3967C118.078 92.3668 118.49 94.7501 117.978 97.0232C117.466 99.2963 116.072 101.273 114.104 102.52Z" fill="#F5D34C"/>
<path d="M114.337 102.369C114.307 102.325 114.613 102.088 115.106 101.608C115.797 100.937 116.379 100.163 116.834 99.3141C117.144 98.7291 117.389 98.1119 117.564 97.4736C117.761 96.7436 117.864 95.9916 117.871 95.2357C117.873 94.8281 117.846 94.4209 117.789 94.0173C117.735 93.5962 117.646 93.1801 117.525 92.7731C117.404 92.3497 117.249 91.9366 117.063 91.5375C116.868 91.1274 116.645 90.7318 116.393 90.3537C116.131 89.9809 115.842 89.6272 115.529 89.2952C114.942 88.6585 114.258 88.1177 113.503 87.6924C113.149 87.4897 112.781 87.3135 112.401 87.1653C111.698 86.8867 110.962 86.7008 110.211 86.6123C109.553 86.5389 108.89 86.5389 108.232 86.6123C107.272 86.7177 106.335 86.9729 105.454 87.3683C105.139 87.5467 104.806 87.6915 104.461 87.8004C104.435 87.7701 104.724 87.4979 105.325 87.1393C106.199 86.6333 107.16 86.2949 108.159 86.1413C109.656 85.9027 111.19 86.0514 112.613 86.5734C113.024 86.725 113.423 86.9085 113.805 87.1221C114.209 87.3406 114.593 87.592 114.955 87.8738C115.331 88.1629 115.684 88.4822 116.009 88.8286C116.342 89.1857 116.648 89.5669 116.925 89.9692C117.197 90.3821 117.437 90.8154 117.642 91.2653C118.034 92.1129 118.291 93.0167 118.402 93.9439C118.456 94.3737 118.476 94.807 118.463 95.24C118.441 96.0488 118.31 96.851 118.074 97.6248C117.863 98.2947 117.573 98.9372 117.21 99.5387C116.695 100.409 116.023 101.175 115.227 101.798C114.717 102.239 114.358 102.403 114.337 102.369Z" fill="#A68401"/>
<path d="M105.515 98.7176L104.219 99.5558L103.471 98.4066L104.724 97.5943C104.092 96.5536 103.765 95.3558 103.782 94.1381L105.592 93.8572C105.562 94.815 105.779 95.7644 106.223 96.6136L108.141 95.365C107.619 93.8918 107.118 92.1939 108.759 91.1268C109.973 90.3362 111.593 90.5392 112.98 92.2155L114.25 91.386L114.998 92.5352L113.749 93.3474C114.235 94.1984 114.515 95.1513 114.566 96.1297L112.781 96.4754C112.745 95.7259 112.558 94.9914 112.233 94.3152L110.267 95.607C110.798 97.0716 111.282 98.7479 109.667 99.802C108.491 100.593 106.893 100.377 105.515 98.7176ZM109.835 94.272L111.464 93.2135C110.928 92.6951 110.44 92.6691 110.06 92.9154C109.679 93.1617 109.658 93.6801 109.835 94.272ZM108.353 98.0437C108.755 97.7844 108.755 97.3092 108.608 96.7043L107.027 97.7326C107.515 98.2251 107.977 98.2813 108.344 98.0437H108.353Z" fill="#A68401"/>
<path d="M269.413 16.5448C269.47 18.5624 270.111 20.5172 271.254 22.1618C272.397 23.8064 273.991 25.0668 275.835 25.7835C277.678 26.5002 279.687 26.6409 281.609 26.1878C283.53 25.7348 285.277 24.7083 286.628 23.2384C287.98 21.7685 288.874 19.9212 289.2 17.9304C289.525 15.9396 289.266 13.8948 288.455 12.0549C287.644 10.2149 286.319 8.66255 284.646 7.59428C282.973 6.52601 281.028 5.98987 279.057 6.05374C276.42 6.13719 273.922 7.28901 272.114 9.25615C270.306 11.2233 269.334 13.8448 269.413 16.5448Z" fill="#F5D34C"/>
<path d="M271.784 16.4668C271.828 18.0041 272.316 19.4935 273.187 20.7466C274.058 21.9996 275.273 22.96 276.677 23.506C278.082 24.0521 279.613 24.1593 281.077 23.8141C282.541 23.4689 283.872 22.6868 284.902 21.5668C285.931 20.4469 286.613 19.0394 286.861 17.5225C287.109 16.0056 286.911 14.4476 286.294 13.0456C285.676 11.6436 284.666 10.4607 283.392 9.6466C282.117 8.83251 280.635 8.42384 279.133 8.47232C277.123 8.53519 275.22 9.41267 273.842 10.9118C272.464 12.411 271.723 14.4091 271.784 16.4668Z" fill="#FED32C"/>
<path d="M271.779 16.2239C271.867 15.9177 271.923 15.6029 271.948 15.2847C272.092 14.4438 272.364 13.6311 272.753 12.8761C273.32 11.765 274.145 10.8131 275.155 10.1036C275.445 9.89913 275.749 9.71623 276.065 9.55628C276.4 9.38627 276.747 9.24292 277.103 9.12749C277.464 9.00832 277.833 8.9177 278.207 8.85644C278.981 8.72847 279.771 8.72811 280.545 8.85539C280.918 8.91749 281.286 9.00801 281.646 9.12619C282.332 9.35293 282.982 9.67915 283.577 10.0949C284.591 10.8044 285.42 11.7571 285.992 12.87C286.381 13.6239 286.652 14.436 286.794 15.2762C286.821 15.5953 286.879 15.9108 286.967 16.2182C287.053 15.9024 287.07 15.5714 287.018 15.2482C286.958 14.3582 286.736 13.4875 286.363 12.6813C285.8 11.47 284.941 10.4274 283.87 9.65369C283.564 9.42678 283.241 9.22453 282.905 9.04879C282.556 8.86173 282.194 8.70345 281.82 8.57546C281.431 8.44299 281.032 8.34097 280.628 8.27028C280.21 8.20487 279.788 8.17011 279.366 8.16624C278.944 8.16921 278.524 8.2048 278.107 8.27272C277.702 8.34026 277.304 8.44119 276.915 8.57453C276.54 8.70243 276.177 8.86268 275.829 9.05355C275.493 9.22874 275.171 9.43072 274.865 9.65761C273.796 10.4293 272.939 11.4703 272.378 12.6799C272.006 13.4872 271.784 14.3577 271.721 15.2476C271.67 15.5734 271.689 15.9069 271.779 16.2239Z" fill="#A68401"/>
<path d="M278.658 20.8824L278.68 22.2362L279.852 22.2222L279.828 20.9025C280.877 20.8503 281.891 20.498 282.754 19.8857L282.077 18.422C281.408 18.9178 280.625 19.2276 279.804 19.3211L279.765 17.3012C281.069 16.9546 282.533 16.4958 282.497 14.7531C282.476 13.4695 281.549 12.3863 279.677 12.2024L279.656 10.8606L278.476 10.8827L278.498 12.1989C277.654 12.2613 276.837 12.528 276.113 12.977L276.734 14.4528C277.284 14.1112 277.895 13.8867 278.532 13.7928L278.568 15.8553C277.263 16.1899 275.824 16.6501 275.861 18.3673C275.884 19.6168 276.808 20.7015 278.658 20.8824ZM279.75 15.5204L279.718 13.8052C280.349 13.9427 280.602 14.284 280.608 14.6845C280.615 15.085 280.265 15.3434 279.75 15.5204ZM277.77 18.4729C277.766 18.0589 278.102 17.8151 278.605 17.622L278.619 19.2951C278.037 19.1656 277.773 18.8579 277.768 18.4694L277.77 18.4729Z" fill="#A68401"/>
</g>
<defs>
<clipPath id="clip0_1_401">
<rect width="380" height="180" fill="white"/>
</clipPath>
</defs>
</svg>
