<svg width="380" height="180" viewBox="0 0 380 180" fill="none" xmlns="http://www.w3.org/2000/svg">
<g clip-path="url(#clip0_2_1734)">
<path d="M305.109 158.874H73.9659V158.992H305.109V158.874Z" fill="#EBEBEB"/>
<path d="M281.949 166.495H266.638V166.614H281.949V166.495Z" fill="#EBEBEB"/>
<path d="M227.085 167.784H223.067V167.902H227.085V167.784Z" fill="#EBEBEB"/>
<path d="M266.176 162.1H257.304V162.218H266.176V162.1Z" fill="#EBEBEB"/>
<path d="M118.184 162.895H98.2173V163.014H118.184V162.895Z" fill="#EBEBEB"/>
<path d="M125.229 162.895H122.303V163.014H125.229V162.895Z" fill="#EBEBEB"/>
<path d="M178.05 164.894H134.743V165.013H178.05V164.894Z" fill="#EBEBEB"/>
<path d="M183.528 137.747H94.2651C93.5658 137.746 92.8956 137.461 92.4016 136.954C91.9075 136.446 91.6301 135.759 91.6301 135.043V6.47059C91.6362 5.75818 91.9163 5.077 92.4097 4.57501C92.9031 4.07302 93.5698 3.79076 94.2651 3.78954H183.528C184.228 3.78954 184.9 4.0745 185.395 4.58173C185.89 5.08897 186.168 5.77693 186.168 6.49427V135.043C186.168 135.76 185.89 136.448 185.395 136.955C184.9 137.462 184.228 137.747 183.528 137.747ZM94.2651 3.88427C93.5965 3.88553 92.9557 4.15857 92.4833 4.64346C92.0109 5.12835 91.7456 5.78547 91.7456 6.47059V135.043C91.7456 135.728 92.0109 136.385 92.4833 136.87C92.9557 137.355 93.5965 137.628 94.2651 137.629H183.528C184.197 137.628 184.838 137.355 185.312 136.87C185.785 136.385 186.051 135.728 186.052 135.043V6.47059C186.051 5.78504 185.785 5.12793 185.312 4.64317C184.838 4.15841 184.197 3.88552 183.528 3.88427H94.2651Z" fill="#EBEBEB"/>
<path d="M283.525 137.747H194.258C193.558 137.746 192.887 137.461 192.392 136.954C191.898 136.447 191.619 135.76 191.618 135.043V6.47059C191.625 5.75775 191.906 5.07657 192.401 4.57471C192.895 4.07285 193.562 3.79074 194.258 3.78954H283.525C284.22 3.792 284.885 4.07481 285.378 4.57667C285.87 5.07853 286.15 5.759 286.156 6.47059V135.043C286.156 135.758 285.879 136.445 285.386 136.952C284.893 137.459 284.224 137.745 283.525 137.747ZM194.258 3.88427C193.589 3.88552 192.947 4.15841 192.474 4.64317C192.001 5.12793 191.735 5.78504 191.734 6.47059V135.043C191.735 135.728 192.001 136.385 192.474 136.87C192.947 137.355 193.589 137.628 194.258 137.629H283.525C284.194 137.628 284.836 137.355 285.309 136.87C285.782 136.385 286.048 135.728 286.049 135.043V6.47059C286.048 5.78504 285.782 5.12793 285.309 4.64317C284.836 4.15841 284.194 3.88552 283.525 3.88427H194.258Z" fill="#EBEBEB"/>
<path d="M189.538 180.265C239.041 180.265 279.171 177.865 279.171 174.903C279.171 171.942 239.041 169.541 189.538 169.541C140.035 169.541 99.9048 171.942 99.9048 174.903C99.9048 177.865 140.035 180.265 189.538 180.265Z" fill="#F5F5F5"/>
<path d="M178.132 73.3859L164.862 80.618L187.203 59.8086L201.62 52.6474L178.132 73.3859Z" fill="#EBE8E8" fill-opacity="0.8"/>
<path opacity="0.3" d="M201.62 52.6474L178.132 73.3859L164.862 80.618L187.203 59.8086L201.62 52.6474Z" fill="black"/>
<path d="M133 18.9999L164.862 80.618L174.016 72.0968L133 18.9999Z" fill="#EBE8E8" fill-opacity="0.8"/>
<path d="M241.163 107.885L217.74 121.409L249.613 92.7997L270.222 83.084L241.163 107.885Z" fill="#EBE8E8" fill-opacity="0.8"/>
<path opacity="0.3" d="M270.222 83.084L241.163 107.885L217.74 121.409L249.613 92.7997L270.222 83.084Z" fill="black"/>
<path d="M233.008 107.702L217.74 121.409L187.203 59.8086L201.62 52.6474L233.008 107.702Z" fill="#EBE8E8" fill-opacity="0.8"/>
<path d="M303.982 142.236L270.204 83.084L249.613 92.7761L280.558 155.737L271.806 160.793L306.518 173.891L312.745 137.151L303.982 142.236Z" fill="#EBE8E8" fill-opacity="0.8"/>
<path d="M127.379 166.495H160.109C160.431 166.495 160.691 166.763 160.691 167.092V174.738C160.691 175.067 160.431 175.334 160.109 175.334H127.379C127.057 175.334 126.796 175.067 126.796 174.738V167.092C126.796 166.763 127.057 166.495 127.379 166.495Z" fill="#F5D34C"/>
<path opacity="0.2" d="M157.835 167.007H159.175V174.904H157.835V167.007Z" fill="#F5D34C"/>
<path opacity="0.2" d="M154.788 166.969H155.764V174.865H154.788V166.969Z" fill="#F5D34C"/>
<path opacity="0.2" d="M151.982 167.007H152.472V174.903H151.982V167.007Z" fill="#F5D34C"/>
<path opacity="0.2" d="M148.199 166.969H148.445V174.866H148.199V166.969Z" fill="#F5D34C"/>
<path opacity="0.2" d="M129.653 174.866H128.313V166.969H129.653V174.866Z" fill="#F5D34C"/>
<path opacity="0.2" d="M132.7 174.904H131.724V167.007H132.7V174.904Z" fill="#F5D34C"/>
<path opacity="0.2" d="M135.501 174.866H135.016V166.969H135.501V174.866Z" fill="#F5D34C"/>
<path opacity="0.2" d="M139.288 174.903H139.042V167.007H139.288V174.903Z" fill="#F5D34C"/>
<path opacity="0.2" d="M143.804 174.904H143.683V167.007H143.804V174.904Z" fill="#F5D34C"/>
<path opacity="0.2" d="M127.703 167.841H159.716C159.824 167.841 159.927 167.797 160.004 167.719C160.08 167.641 160.123 167.535 160.123 167.424C160.122 167.314 160.078 167.209 160.002 167.131C159.926 167.053 159.824 167.008 159.716 167.007H127.703C127.595 167.007 127.491 167.051 127.415 167.129C127.339 167.207 127.296 167.313 127.296 167.424C127.295 167.479 127.305 167.533 127.326 167.584C127.346 167.635 127.376 167.681 127.414 167.72C127.452 167.759 127.497 167.79 127.546 167.81C127.596 167.831 127.649 167.842 127.703 167.841Z" fill="black"/>
<path d="M126.455 157.68H159.184C159.506 157.68 159.767 157.947 159.767 158.277V165.922C159.767 166.252 159.506 166.519 159.184 166.519H126.455C126.133 166.519 125.872 166.252 125.872 165.922V158.277C125.872 157.947 126.133 157.68 126.455 157.68Z" fill="#F5D34C"/>
<path opacity="0.2" d="M156.91 158.192H158.25V166.088H156.91V158.192Z" fill="#F5D34C"/>
<path opacity="0.2" d="M153.859 158.154H154.834V166.05H153.859V158.154Z" fill="#F5D34C"/>
<path opacity="0.2" d="M151.057 158.192H151.543V166.088H151.057V158.192Z" fill="#F5D34C"/>
<path opacity="0.2" d="M147.275 158.154H147.521V166.05H147.275V158.154Z" fill="#F5D34C"/>
<path opacity="0.2" d="M128.724 166.046H127.384V158.149H128.724V166.046Z" fill="#F5D34C"/>
<path opacity="0.2" d="M131.776 166.083H130.8V158.187H131.776V166.083Z" fill="#F5D34C"/>
<path opacity="0.2" d="M134.581 166.046H134.091V158.149H134.581V166.046Z" fill="#F5D34C"/>
<path opacity="0.2" d="M138.364 166.083H138.118V158.187H138.364V166.083Z" fill="#F5D34C"/>
<path opacity="0.2" d="M142.88 166.084H142.759V158.187H142.88V166.084Z" fill="#F5D34C"/>
<path opacity="0.2" d="M126.778 159.026H158.791C158.899 159.024 159.001 158.98 159.077 158.902C159.153 158.824 159.197 158.719 159.198 158.609C159.198 158.498 159.155 158.392 159.079 158.314C159.002 158.236 158.899 158.192 158.791 158.192H126.778C126.724 158.191 126.671 158.202 126.621 158.222C126.572 158.243 126.527 158.274 126.489 158.313C126.451 158.351 126.421 158.398 126.401 158.448C126.38 158.499 126.37 158.554 126.371 158.609C126.371 158.719 126.414 158.825 126.49 158.904C126.566 158.982 126.67 159.026 126.778 159.026Z" fill="black"/>
<path d="M126.455 148.865H159.184C159.506 148.865 159.767 149.132 159.767 149.462V157.107C159.767 157.437 159.506 157.704 159.184 157.704H126.455C126.133 157.704 125.872 157.437 125.872 157.107V149.462C125.872 149.132 126.133 148.865 126.455 148.865Z" fill="#F5D34C"/>
<path opacity="0.2" d="M156.91 149.372H158.25V157.268H156.91V149.372Z" fill="#F5D34C"/>
<path opacity="0.2" d="M153.859 149.334H154.834V157.23H153.859V149.334Z" fill="#F5D34C"/>
<path opacity="0.2" d="M151.057 149.372H151.543V157.268H151.057V149.372Z" fill="#F5D34C"/>
<path opacity="0.2" d="M147.275 149.334H147.521V157.23H147.275V149.334Z" fill="#F5D34C"/>
<path opacity="0.2" d="M128.724 157.23H127.384V149.334H128.724V157.23Z" fill="#F5D34C"/>
<path opacity="0.2" d="M131.776 157.268H130.8V149.372H131.776V157.268Z" fill="#F5D34C"/>
<path opacity="0.2" d="M134.581 157.23H134.091V149.334H134.581V157.23Z" fill="#F5D34C"/>
<path opacity="0.2" d="M138.364 157.268H138.118V149.372H138.364V157.268Z" fill="#F5D34C"/>
<path opacity="0.2" d="M142.88 157.268H142.759V149.372H142.88V157.268Z" fill="#F5D34C"/>
<path opacity="0.2" d="M126.778 150.206H158.791C158.899 150.206 159.002 150.162 159.079 150.083C159.155 150.005 159.198 149.899 159.198 149.789C159.197 149.679 159.153 149.573 159.077 149.495C159.001 149.417 158.899 149.373 158.791 149.372H126.778C126.67 149.372 126.566 149.416 126.49 149.494C126.414 149.572 126.371 149.678 126.371 149.789C126.37 149.844 126.38 149.898 126.401 149.949C126.421 150 126.451 150.046 126.489 150.085C126.527 150.124 126.572 150.154 126.621 150.175C126.671 150.196 126.724 150.206 126.778 150.206Z" fill="black"/>
<path d="M127.379 140.045H160.109C160.431 140.045 160.691 140.312 160.691 140.642V148.287C160.691 148.617 160.431 148.884 160.109 148.884H127.379C127.057 148.884 126.796 148.617 126.796 148.287V140.642C126.796 140.312 127.057 140.045 127.379 140.045Z" fill="#F5D34C"/>
<path opacity="0.2" d="M157.835 140.557H159.175V148.453H157.835V140.557Z" fill="#F5D34C"/>
<path opacity="0.2" d="M154.788 140.518H155.764V148.415H154.788V140.518Z" fill="#F5D34C"/>
<path opacity="0.2" d="M151.982 140.557H152.472V148.453H151.982V140.557Z" fill="#F5D34C"/>
<path opacity="0.2" d="M148.199 140.519H148.445V148.415H148.199V140.519Z" fill="#F5D34C"/>
<path opacity="0.2" d="M129.653 148.41H128.313V140.514H129.653V148.41Z" fill="#F5D34C"/>
<path opacity="0.2" d="M132.7 148.448H131.724V140.552H132.7V148.448Z" fill="#F5D34C"/>
<path opacity="0.2" d="M135.501 148.41H135.016V140.514H135.501V148.41Z" fill="#F5D34C"/>
<path opacity="0.2" d="M139.288 148.448H139.042V140.552H139.288V148.448Z" fill="#F5D34C"/>
<path opacity="0.2" d="M143.804 148.448H143.683V140.552H143.804V148.448Z" fill="#F5D34C"/>
<path opacity="0.2" d="M127.703 141.39H159.716C159.824 141.389 159.926 141.345 160.002 141.267C160.078 141.189 160.122 141.084 160.123 140.973C160.123 140.863 160.08 140.757 160.004 140.679C159.927 140.6 159.824 140.557 159.716 140.557H127.703C127.649 140.556 127.596 140.566 127.546 140.587C127.497 140.608 127.452 140.638 127.414 140.677C127.376 140.716 127.346 140.762 127.326 140.813C127.305 140.864 127.295 140.918 127.296 140.973C127.296 141.084 127.339 141.19 127.415 141.268C127.491 141.346 127.595 141.39 127.703 141.39Z" fill="black"/>
<path d="M128.766 131.23H161.496C161.818 131.23 162.078 131.497 162.078 131.827V139.472C162.078 139.802 161.818 140.069 161.496 140.069H128.766C128.444 140.069 128.184 139.802 128.184 139.472V131.827C128.184 131.497 128.444 131.23 128.766 131.23Z" fill="#F5D34C"/>
<path opacity="0.2" d="M159.221 131.737H160.562V139.633H159.221V131.737Z" fill="#F5D34C"/>
<path opacity="0.2" d="M156.175 131.699H157.15V139.595H156.175V131.699Z" fill="#F5D34C"/>
<path opacity="0.2" d="M153.373 131.737H153.859V139.633H153.373V131.737Z" fill="#F5D34C"/>
<path opacity="0.2" d="M149.587 131.699H149.832V139.595H149.587V131.699Z" fill="#F5D34C"/>
<path opacity="0.2" d="M131.04 139.595H129.699V131.699H131.04V139.595Z" fill="#F5D34C"/>
<path opacity="0.2" d="M134.092 139.633H133.116V131.737H134.092V139.633Z" fill="#F5D34C"/>
<path opacity="0.2" d="M136.889 139.595H136.403V131.699H136.889V139.595Z" fill="#F5D34C"/>
<path opacity="0.2" d="M140.67 139.633H140.425V131.737H140.67V139.633Z" fill="#F5D34C"/>
<path opacity="0.2" d="M145.191 139.633H145.07V131.737H145.191V139.633Z" fill="#F5D34C"/>
<path opacity="0.2" d="M129.089 132.57H161.103C161.156 132.571 161.21 132.56 161.259 132.54C161.309 132.519 161.354 132.488 161.392 132.449C161.43 132.411 161.46 132.364 161.48 132.314C161.5 132.263 161.51 132.208 161.51 132.153C161.51 132.043 161.467 131.937 161.39 131.859C161.314 131.78 161.211 131.736 161.103 131.736H129.089C128.982 131.736 128.878 131.78 128.802 131.859C128.725 131.937 128.683 132.043 128.683 132.153C128.682 132.208 128.692 132.263 128.712 132.314C128.733 132.364 128.762 132.411 128.8 132.449C128.838 132.488 128.883 132.519 128.933 132.54C128.983 132.56 129.036 132.571 129.089 132.57Z" fill="black"/>
<path d="M127.379 122.41H160.109C160.431 122.41 160.691 122.677 160.691 123.007V130.652C160.691 130.982 160.431 131.249 160.109 131.249H127.379C127.057 131.249 126.796 130.982 126.796 130.652V123.007C126.796 122.677 127.057 122.41 127.379 122.41Z" fill="#F5D34C"/>
<path opacity="0.2" d="M157.835 122.921H159.175V130.818H157.835V122.921Z" fill="#F5D34C"/>
<path opacity="0.2" d="M154.788 122.883H155.764V130.78H154.788V122.883Z" fill="#F5D34C"/>
<path opacity="0.2" d="M151.982 122.921H152.472V130.818H151.982V122.921Z" fill="#F5D34C"/>
<path opacity="0.2" d="M148.199 122.883H148.445V130.78H148.199V122.883Z" fill="#F5D34C"/>
<path opacity="0.2" d="M129.653 130.775H128.313V122.879H129.653V130.775Z" fill="#F5D34C"/>
<path opacity="0.2" d="M132.7 130.813H131.724V122.917H132.7V130.813Z" fill="#F5D34C"/>
<path opacity="0.2" d="M135.501 130.775H135.016V122.879H135.501V130.775Z" fill="#F5D34C"/>
<path opacity="0.2" d="M139.288 130.813H139.042V122.917H139.288V130.813Z" fill="#F5D34C"/>
<path opacity="0.2" d="M143.804 130.813H143.683V122.917H143.804V130.813Z" fill="#F5D34C"/>
<path opacity="0.2" d="M127.703 123.755H159.716C159.824 123.755 159.927 123.711 160.004 123.633C160.08 123.555 160.123 123.449 160.123 123.338C160.123 123.228 160.08 123.122 160.004 123.043C159.927 122.965 159.824 122.921 159.716 122.921H127.703C127.649 122.921 127.596 122.931 127.546 122.952C127.497 122.972 127.452 123.003 127.414 123.042C127.376 123.081 127.346 123.127 127.326 123.178C127.305 123.229 127.295 123.283 127.296 123.338C127.295 123.393 127.305 123.448 127.326 123.498C127.346 123.549 127.376 123.595 127.414 123.634C127.452 123.673 127.497 123.704 127.546 123.725C127.596 123.745 127.649 123.756 127.703 123.755Z" fill="black"/>
<path d="M127.379 113.594H160.109C160.431 113.594 160.691 113.862 160.691 114.191V121.836C160.691 122.166 160.431 122.433 160.109 122.433H127.379C127.057 122.433 126.796 122.166 126.796 121.836V114.191C126.796 113.862 127.057 113.594 127.379 113.594Z" fill="#F5D34C"/>
<path opacity="0.2" d="M157.835 114.101H159.175V121.997H157.835V114.101Z" fill="#F5D34C"/>
<path opacity="0.2" d="M154.788 114.063H155.764V121.96H154.788V114.063Z" fill="#F5D34C"/>
<path opacity="0.2" d="M151.982 114.101H152.472V121.998H151.982V114.101Z" fill="#F5D34C"/>
<path opacity="0.2" d="M148.199 114.063H148.445V121.96H148.199V114.063Z" fill="#F5D34C"/>
<path opacity="0.2" d="M129.653 121.96H128.313V114.064H129.653V121.96Z" fill="#F5D34C"/>
<path opacity="0.2" d="M132.7 121.998H131.724V114.101H132.7V121.998Z" fill="#F5D34C"/>
<path opacity="0.2" d="M135.501 121.96H135.016V114.064H135.501V121.96Z" fill="#F5D34C"/>
<path opacity="0.2" d="M139.288 121.998H139.042V114.101H139.288V121.998Z" fill="#F5D34C"/>
<path opacity="0.2" d="M143.804 121.998H143.683V114.101H143.804V121.998Z" fill="#F5D34C"/>
<path opacity="0.2" d="M127.703 114.94H159.716C159.824 114.938 159.928 114.893 160.004 114.814C160.08 114.736 160.123 114.629 160.123 114.518C160.122 114.408 160.078 114.303 160.002 114.225C159.926 114.147 159.824 114.102 159.716 114.101H127.703C127.595 114.101 127.491 114.145 127.415 114.223C127.339 114.301 127.296 114.407 127.296 114.518C127.295 114.573 127.305 114.628 127.326 114.679C127.346 114.73 127.376 114.777 127.413 114.816C127.451 114.855 127.496 114.886 127.546 114.907C127.596 114.929 127.649 114.94 127.703 114.94Z" fill="black"/>
<path d="M125.992 104.775H158.722C159.044 104.775 159.304 105.042 159.304 105.371V113.017C159.304 113.346 159.044 113.613 158.722 113.613H125.992C125.67 113.613 125.409 113.346 125.409 113.017V105.371C125.409 105.042 125.67 104.775 125.992 104.775Z" fill="#F5D34C"/>
<path opacity="0.2" d="M156.448 105.286H157.788V113.182H156.448V105.286Z" fill="#F5D34C"/>
<path opacity="0.2" d="M153.396 105.248H154.372V113.144H153.396V105.248Z" fill="#F5D34C"/>
<path opacity="0.2" d="M150.59 105.286H151.08V113.182H150.59V105.286Z" fill="#F5D34C"/>
<path opacity="0.2" d="M146.813 105.248H147.058V113.144H146.813V105.248Z" fill="#F5D34C"/>
<path opacity="0.2" d="M128.262 113.14H126.921V105.243H128.262V113.14Z" fill="#F5D34C"/>
<path opacity="0.2" d="M131.313 113.182H130.338V105.286H131.313V113.182Z" fill="#F5D34C"/>
<path opacity="0.2" d="M134.115 113.14H133.629V105.243H134.115V113.14Z" fill="#F5D34C"/>
<path opacity="0.2" d="M137.901 113.182H137.655V105.286H137.901V113.182Z" fill="#F5D34C"/>
<path opacity="0.2" d="M142.413 113.182H142.292V105.286H142.413V113.182Z" fill="#F5D34C"/>
<path opacity="0.2" d="M126.315 106.106H158.324C158.378 106.106 158.431 106.096 158.481 106.075C158.531 106.055 158.577 106.024 158.615 105.985C158.653 105.946 158.684 105.9 158.704 105.849C158.725 105.798 158.736 105.744 158.736 105.689C158.736 105.634 158.725 105.579 158.704 105.528C158.684 105.477 158.653 105.431 158.615 105.392C158.577 105.354 158.531 105.323 158.481 105.302C158.431 105.282 158.378 105.271 158.324 105.272H126.315C126.262 105.271 126.208 105.282 126.158 105.302C126.108 105.323 126.063 105.354 126.025 105.392C125.987 105.431 125.956 105.477 125.935 105.528C125.915 105.579 125.904 105.634 125.904 105.689C125.904 105.744 125.915 105.798 125.935 105.849C125.956 105.9 125.987 105.946 126.025 105.985C126.063 106.024 126.108 106.055 126.158 106.075C126.208 106.096 126.262 106.106 126.315 106.106Z" fill="black"/>
<path d="M128.304 95.9591H161.034C161.355 95.9591 161.616 96.2263 161.616 96.5559V104.201C161.616 104.531 161.355 104.798 161.034 104.798H128.304C127.982 104.798 127.721 104.531 127.721 104.201V96.5559C127.721 96.2263 127.982 95.9591 128.304 95.9591Z" fill="#F5D34C"/>
<path opacity="0.2" d="M158.759 96.4709H160.099V104.367H158.759V96.4709Z" fill="#F5D34C"/>
<path opacity="0.2" d="M155.712 96.4282H156.688V104.324H155.712V96.4282Z" fill="#F5D34C"/>
<path opacity="0.2" d="M152.911 96.4709H153.396V104.367H152.911V96.4709Z" fill="#F5D34C"/>
<path opacity="0.2" d="M149.124 96.4281H149.37V104.324H149.124V96.4281Z" fill="#F5D34C"/>
<path opacity="0.2" d="M130.578 104.325H129.237V96.4282H130.578V104.325Z" fill="#F5D34C"/>
<path opacity="0.2" d="M133.629 104.362H132.653V96.4662H133.629V104.362Z" fill="#F5D34C"/>
<path opacity="0.2" d="M136.426 104.325H135.94V96.4282H136.426V104.325Z" fill="#F5D34C"/>
<path opacity="0.2" d="M140.213 104.362H139.967V96.4661H140.213V104.362Z" fill="#F5D34C"/>
<path opacity="0.2" d="M144.729 104.362H144.608V96.4662H144.729V104.362Z" fill="#F5D34C"/>
<path opacity="0.2" d="M128.627 97.3046H160.64C160.748 97.3033 160.851 97.259 160.927 97.1811C161.003 97.1032 161.046 96.9979 161.047 96.8877C161.047 96.7772 161.004 96.6711 160.928 96.593C160.852 96.5148 160.748 96.4709 160.64 96.4709H128.627C128.573 96.4703 128.52 96.4806 128.47 96.5013C128.421 96.5221 128.376 96.5527 128.338 96.5916C128.3 96.6304 128.27 96.6766 128.25 96.7275C128.23 96.7783 128.219 96.8328 128.22 96.8877C128.22 96.9983 128.263 97.1043 128.339 97.1825C128.415 97.2607 128.519 97.3046 128.627 97.3046Z" fill="black"/>
<path d="M129.228 87.1392H161.958C162.28 87.1392 162.54 87.4064 162.54 87.736V95.3813C162.54 95.7109 162.28 95.9781 161.958 95.9781H129.228C128.906 95.9781 128.645 95.7109 128.645 95.3813V87.736C128.645 87.4064 128.906 87.1392 129.228 87.1392Z" fill="#F5D34C"/>
<path opacity="0.2" d="M159.684 87.6509H161.024V95.5472H159.684V87.6509Z" fill="#F5D34C"/>
<path opacity="0.2" d="M156.637 87.6129H157.613V95.5092H156.637V87.6129Z" fill="#F5D34C"/>
<path opacity="0.2" d="M153.831 87.6509H154.321V95.5472H153.831V87.6509Z" fill="#F5D34C"/>
<path opacity="0.2" d="M150.049 87.6129H150.295V95.5092H150.049V87.6129Z" fill="#F5D34C"/>
<path opacity="0.2" d="M131.503 95.5045H130.162V87.6082H131.503V95.5045Z" fill="#F5D34C"/>
<path opacity="0.2" d="M134.554 95.5472H133.578V87.6509H134.554V95.5472Z" fill="#F5D34C"/>
<path opacity="0.2" d="M137.355 95.5045H136.869V87.6082H137.355V95.5045Z" fill="#F5D34C"/>
<path opacity="0.2" d="M141.132 95.5472H140.887V87.6509H141.132V95.5472Z" fill="#F5D34C"/>
<path opacity="0.2" d="M145.654 95.5472H145.533V87.6509H145.654V95.5472Z" fill="#F5D34C"/>
<path opacity="0.2" d="M129.552 88.4845H161.565C161.619 88.4851 161.672 88.4747 161.722 88.454C161.771 88.4333 161.816 88.4026 161.854 88.3638C161.892 88.3249 161.922 88.2787 161.942 88.2279C161.963 88.177 161.973 88.1225 161.972 88.0676C161.973 88.0127 161.963 87.9582 161.942 87.9074C161.922 87.8565 161.892 87.8103 161.854 87.7714C161.816 87.7326 161.771 87.7019 161.722 87.6812C161.672 87.6605 161.619 87.6501 161.565 87.6508H129.552C129.498 87.6501 129.445 87.6605 129.395 87.6812C129.346 87.7019 129.301 87.7326 129.263 87.7714C129.225 87.8103 129.195 87.8565 129.175 87.9074C129.154 87.9582 129.144 88.0127 129.145 88.0676C129.144 88.1225 129.154 88.177 129.175 88.2279C129.195 88.2787 129.225 88.3249 129.263 88.3638C129.301 88.4026 129.346 88.4333 129.395 88.454C129.445 88.4747 129.498 88.4851 129.552 88.4845Z" fill="black"/>
<path d="M169.008 166.496H201.738C202.059 166.496 202.32 166.763 202.32 167.092V174.738C202.32 175.067 202.059 175.334 201.738 175.334H169.008C168.686 175.334 168.425 175.067 168.425 174.738V167.092C168.425 166.763 168.686 166.496 169.008 166.496Z" fill="#F5D34C"/>
<path opacity="0.2" d="M199.468 167.007H200.808V174.903H199.468V167.007Z" fill="#F5D34C"/>
<path opacity="0.2" d="M196.417 166.969H197.392V174.865H196.417V166.969Z" fill="#F5D34C"/>
<path opacity="0.2" d="M193.616 167.007H194.101V174.904H193.616V167.007Z" fill="#F5D34C"/>
<path opacity="0.2" d="M189.833 166.969H190.079V174.865H189.833V166.969Z" fill="#F5D34C"/>
<path opacity="0.2" d="M171.282 174.866H169.942V166.969H171.282V174.866Z" fill="#F5D34C"/>
<path opacity="0.2" d="M174.333 174.904H173.358V167.007H174.333V174.904Z" fill="#F5D34C"/>
<path opacity="0.2" d="M177.135 174.866H176.649V166.969H177.135V174.866Z" fill="#F5D34C"/>
<path opacity="0.2" d="M180.917 174.904H180.671V167.007H180.917V174.904Z" fill="#F5D34C"/>
<path opacity="0.2" d="M185.433 174.904H185.313V167.007H185.433V174.904Z" fill="#F5D34C"/>
<path opacity="0.2" d="M169.332 167.841H201.345C201.399 167.842 201.452 167.831 201.501 167.81C201.551 167.79 201.596 167.759 201.634 167.72C201.672 167.681 201.702 167.635 201.722 167.584C201.742 167.533 201.752 167.479 201.752 167.424C201.752 167.313 201.709 167.207 201.633 167.129C201.556 167.051 201.453 167.007 201.345 167.007H169.332C169.224 167.008 169.121 167.053 169.045 167.131C168.969 167.209 168.926 167.314 168.925 167.424C168.925 167.535 168.968 167.641 169.044 167.719C169.12 167.797 169.224 167.841 169.332 167.841Z" fill="black"/>
<path d="M170.399 157.68H203.129C203.451 157.68 203.712 157.947 203.712 158.277V165.922C203.712 166.252 203.451 166.519 203.129 166.519H170.399C170.078 166.519 169.817 166.252 169.817 165.922V158.277C169.817 157.947 170.078 157.68 170.399 157.68Z" fill="#F5D34C"/>
<path opacity="0.2" d="M200.855 158.192H202.196V166.088H200.855V158.192Z" fill="#F5D34C"/>
<path opacity="0.2" d="M197.804 158.154H198.779V166.05H197.804V158.154Z" fill="#F5D34C"/>
<path opacity="0.2" d="M195.002 158.192H195.488V166.088H195.002V158.192Z" fill="#F5D34C"/>
<path opacity="0.2" d="M191.22 158.154H191.466V166.05H191.22V158.154Z" fill="#F5D34C"/>
<path opacity="0.2" d="M172.669 166.046H171.328V158.149H172.669V166.046Z" fill="#F5D34C"/>
<path opacity="0.2" d="M175.72 166.083H174.745V158.187H175.72V166.083Z" fill="#F5D34C"/>
<path opacity="0.2" d="M178.522 166.046H178.036V158.149H178.522V166.046Z" fill="#F5D34C"/>
<path opacity="0.2" d="M182.308 166.084H182.063V158.187H182.308V166.084Z" fill="#F5D34C"/>
<path opacity="0.2" d="M186.825 166.083H186.704V158.187H186.825V166.083Z" fill="#F5D34C"/>
<path opacity="0.2" d="M170.723 159.025H202.737C202.844 159.024 202.947 158.98 203.023 158.902C203.099 158.824 203.142 158.719 203.143 158.609C203.143 158.498 203.101 158.392 203.024 158.314C202.948 158.236 202.845 158.192 202.737 158.192H170.723C170.67 158.191 170.616 158.202 170.567 158.222C170.517 158.243 170.472 158.274 170.434 158.312C170.396 158.351 170.366 158.398 170.346 158.448C170.326 158.499 170.316 158.554 170.316 158.609C170.316 158.719 170.359 158.825 170.436 158.903C170.512 158.982 170.615 159.025 170.723 159.025Z" fill="black"/>
<path d="M169.008 148.865H201.738C202.059 148.865 202.32 149.132 202.32 149.462V157.107C202.32 157.437 202.059 157.704 201.738 157.704H169.008C168.686 157.704 168.425 157.437 168.425 157.107V149.462C168.425 149.132 168.686 148.865 169.008 148.865Z" fill="#F5D34C"/>
<path opacity="0.2" d="M199.468 149.372H200.808V157.268H199.468V149.372Z" fill="#F5D34C"/>
<path opacity="0.2" d="M196.417 149.334H197.392V157.23H196.417V149.334Z" fill="#F5D34C"/>
<path opacity="0.2" d="M193.616 149.372H194.101V157.268H193.616V149.372Z" fill="#F5D34C"/>
<path opacity="0.2" d="M189.833 149.334H190.079V157.23H189.833V149.334Z" fill="#F5D34C"/>
<path opacity="0.2" d="M171.282 157.23H169.942V149.334H171.282V157.23Z" fill="#F5D34C"/>
<path opacity="0.2" d="M174.333 157.268H173.358V149.372H174.333V157.268Z" fill="#F5D34C"/>
<path opacity="0.2" d="M177.135 157.23H176.649V149.334H177.135V157.23Z" fill="#F5D34C"/>
<path opacity="0.2" d="M180.917 157.268H180.671V149.372H180.917V157.268Z" fill="#F5D34C"/>
<path opacity="0.2" d="M185.433 157.268H185.313V149.372H185.433V157.268Z" fill="#F5D34C"/>
<path opacity="0.2" d="M169.332 150.206H201.345C201.399 150.206 201.452 150.196 201.501 150.175C201.551 150.154 201.596 150.124 201.634 150.085C201.672 150.046 201.702 150 201.722 149.949C201.742 149.898 201.752 149.844 201.752 149.789C201.752 149.678 201.709 149.572 201.633 149.494C201.556 149.416 201.453 149.372 201.345 149.372H169.332C169.224 149.373 169.121 149.417 169.045 149.495C168.969 149.573 168.926 149.679 168.925 149.789C168.925 149.899 168.968 150.005 169.044 150.084C169.12 150.162 169.224 150.206 169.332 150.206Z" fill="black"/>
<path d="M169.937 140.045H202.667C202.989 140.045 203.249 140.312 203.249 140.642V148.287C203.249 148.617 202.989 148.884 202.667 148.884H169.937C169.615 148.884 169.354 148.617 169.354 148.287V140.642C169.354 140.312 169.615 140.045 169.937 140.045Z" fill="#F5D34C"/>
<path opacity="0.2" d="M200.393 140.557H201.733V148.453H200.393V140.557Z" fill="#F5D34C"/>
<path opacity="0.2" d="M197.341 140.519H198.317V148.415H197.341V140.519Z" fill="#F5D34C"/>
<path opacity="0.2" d="M194.54 140.557H195.026V148.453H194.54V140.557Z" fill="#F5D34C"/>
<path opacity="0.2" d="M190.758 140.519H191.003V148.415H190.758V140.519Z" fill="#F5D34C"/>
<path opacity="0.2" d="M172.207 148.41H170.867V140.514H172.207V148.41Z" fill="#F5D34C"/>
<path opacity="0.2" d="M175.258 148.448H174.282V140.552H175.258V148.448Z" fill="#F5D34C"/>
<path opacity="0.2" d="M178.064 148.41H177.574V140.514H178.064V148.41Z" fill="#F5D34C"/>
<path opacity="0.2" d="M181.846 148.448H181.6V140.552H181.846V148.448Z" fill="#F5D34C"/>
<path opacity="0.2" d="M186.357 148.448H186.237V140.552H186.357V148.448Z" fill="#F5D34C"/>
<path opacity="0.2" d="M170.261 141.39H202.27C202.378 141.39 202.482 141.346 202.559 141.268C202.636 141.19 202.68 141.084 202.681 140.973C202.681 140.918 202.67 140.864 202.65 140.813C202.629 140.762 202.599 140.716 202.56 140.677C202.522 140.638 202.477 140.608 202.427 140.587C202.377 140.566 202.323 140.556 202.27 140.557H170.261C170.207 140.556 170.154 140.566 170.104 140.587C170.054 140.608 170.008 140.638 169.97 140.677C169.932 140.716 169.902 140.762 169.881 140.813C169.86 140.864 169.849 140.918 169.849 140.973C169.851 141.084 169.894 141.19 169.972 141.268C170.049 141.346 170.153 141.39 170.261 141.39Z" fill="black"/>
<path d="M169.937 131.23H202.667C202.989 131.23 203.249 131.497 203.249 131.827V139.472C203.249 139.802 202.989 140.069 202.667 140.069H169.937C169.615 140.069 169.354 139.802 169.354 139.472V131.827C169.354 131.497 169.615 131.23 169.937 131.23Z" fill="#F5D34C"/>
<path opacity="0.2" d="M200.393 131.736H201.733V139.633H200.393V131.736Z" fill="#F5D34C"/>
<path opacity="0.2" d="M197.341 131.699H198.317V139.595H197.341V131.699Z" fill="#F5D34C"/>
<path opacity="0.2" d="M194.54 131.736H195.026V139.633H194.54V131.736Z" fill="#F5D34C"/>
<path opacity="0.2" d="M190.758 131.699H191.003V139.595H190.758V131.699Z" fill="#F5D34C"/>
<path opacity="0.2" d="M172.207 139.595H170.867V131.699H172.207V139.595Z" fill="#F5D34C"/>
<path opacity="0.2" d="M175.258 139.633H174.282V131.737H175.258V139.633Z" fill="#F5D34C"/>
<path opacity="0.2" d="M178.064 139.595H177.574V131.699H178.064V139.595Z" fill="#F5D34C"/>
<path opacity="0.2" d="M181.846 139.633H181.6V131.737H181.846V139.633Z" fill="#F5D34C"/>
<path opacity="0.2" d="M186.357 139.633H186.237V131.737H186.357V139.633Z" fill="#F5D34C"/>
<path opacity="0.2" d="M170.261 132.57H202.27C202.323 132.571 202.377 132.56 202.427 132.54C202.477 132.519 202.522 132.488 202.56 132.45C202.599 132.411 202.629 132.365 202.65 132.314C202.67 132.263 202.681 132.208 202.681 132.153C202.68 132.042 202.636 131.936 202.559 131.858C202.482 131.78 202.378 131.736 202.27 131.736H170.261C170.153 131.736 170.049 131.78 169.972 131.858C169.894 131.936 169.851 132.042 169.849 132.153C169.849 132.208 169.86 132.263 169.881 132.314C169.902 132.365 169.932 132.411 169.97 132.45C170.008 132.488 170.054 132.519 170.104 132.54C170.154 132.56 170.207 132.571 170.261 132.57Z" fill="black"/>
<path d="M169.937 122.41H202.667C202.989 122.41 203.249 122.677 203.249 123.007V130.652C203.249 130.982 202.989 131.249 202.667 131.249H169.937C169.615 131.249 169.354 130.982 169.354 130.652V123.007C169.354 122.677 169.615 122.41 169.937 122.41Z" fill="#F5D34C"/>
<path opacity="0.2" d="M200.393 122.921H201.733V130.818H200.393V122.921Z" fill="#F5D34C"/>
<path opacity="0.2" d="M197.341 122.883H198.317V130.78H197.341V122.883Z" fill="#F5D34C"/>
<path opacity="0.2" d="M194.54 122.921H195.026V130.818H194.54V122.921Z" fill="#F5D34C"/>
<path opacity="0.2" d="M190.758 122.883H191.003V130.78H190.758V122.883Z" fill="#F5D34C"/>
<path opacity="0.2" d="M172.207 130.775H170.867V122.879H172.207V130.775Z" fill="#F5D34C"/>
<path opacity="0.2" d="M175.258 130.813H174.282V122.917H175.258V130.813Z" fill="#F5D34C"/>
<path opacity="0.2" d="M178.064 130.775H177.574V122.879H178.064V130.775Z" fill="#F5D34C"/>
<path opacity="0.2" d="M181.846 130.813H181.6V122.917H181.846V130.813Z" fill="#F5D34C"/>
<path opacity="0.2" d="M186.357 130.813H186.237V122.917H186.357V130.813Z" fill="#F5D34C"/>
<path opacity="0.2" d="M170.261 123.755H202.27C202.323 123.756 202.377 123.745 202.427 123.725C202.477 123.704 202.522 123.673 202.56 123.635C202.599 123.596 202.629 123.55 202.65 123.499C202.67 123.448 202.681 123.393 202.681 123.338C202.681 123.283 202.67 123.228 202.65 123.178C202.629 123.127 202.599 123.08 202.56 123.042C202.522 123.003 202.477 122.972 202.427 122.952C202.377 122.931 202.323 122.921 202.27 122.921H170.261C170.207 122.921 170.154 122.931 170.104 122.952C170.054 122.972 170.008 123.003 169.97 123.042C169.932 123.08 169.902 123.127 169.881 123.178C169.86 123.228 169.849 123.283 169.849 123.338C169.849 123.393 169.86 123.448 169.881 123.499C169.902 123.55 169.932 123.596 169.97 123.635C170.008 123.673 170.054 123.704 170.104 123.725C170.154 123.745 170.207 123.756 170.261 123.755Z" fill="black"/>
<path d="M169.535 104.68H202.264C202.586 104.68 202.847 104.947 202.847 105.277V112.922C202.847 113.252 202.586 113.519 202.264 113.519H169.535C169.213 113.519 168.952 113.252 168.952 112.922V105.277C168.952 104.947 169.213 104.68 169.535 104.68Z" fill="#F5D34C"/>
<path opacity="0.2" d="M199.99 105.191H201.331V113.088H199.99V105.191Z" fill="#F5D34C"/>
<path opacity="0.2" d="M196.939 105.153H197.915V113.05H196.939V105.153Z" fill="#F5D34C"/>
<path opacity="0.2" d="M194.138 105.191H194.623V113.088H194.138V105.191Z" fill="#F5D34C"/>
<path opacity="0.2" d="M190.355 105.153H190.601V113.05H190.355V105.153Z" fill="#F5D34C"/>
<path opacity="0.2" d="M171.805 113.045H170.464V105.149H171.805V113.045Z" fill="#F5D34C"/>
<path opacity="0.2" d="M174.856 113.088H173.88V105.191H174.856V113.088Z" fill="#F5D34C"/>
<path opacity="0.2" d="M177.657 113.045H177.172V105.149H177.657V113.045Z" fill="#F5D34C"/>
<path opacity="0.2" d="M181.444 113.088H181.198V105.191H181.444V113.088Z" fill="#F5D34C"/>
<path opacity="0.2" d="M185.956 113.088H185.835V105.191H185.956V113.088Z" fill="#F5D34C"/>
<path opacity="0.2" d="M169.858 106.025H201.867C201.921 106.026 201.974 106.015 202.024 105.995C202.074 105.974 202.119 105.943 202.158 105.905C202.196 105.866 202.226 105.82 202.247 105.769C202.268 105.718 202.279 105.663 202.279 105.608C202.277 105.497 202.233 105.391 202.156 105.313C202.079 105.235 201.975 105.191 201.867 105.191H169.858C169.75 105.191 169.646 105.235 169.569 105.313C169.492 105.391 169.448 105.497 169.447 105.608C169.447 105.663 169.458 105.718 169.478 105.769C169.499 105.82 169.529 105.866 169.568 105.905C169.606 105.943 169.651 105.974 169.701 105.995C169.751 106.015 169.804 106.026 169.858 106.025Z" fill="black"/>
<path d="M169.008 113.595H201.738C202.059 113.595 202.32 113.862 202.32 114.191V121.837C202.32 122.166 202.059 122.433 201.738 122.433H169.008C168.686 122.433 168.425 122.166 168.425 121.837V114.191C168.425 113.862 168.686 113.595 169.008 113.595Z" fill="#F5D34C"/>
<path opacity="0.2" d="M199.468 114.101H200.808V121.998H199.468V114.101Z" fill="#F5D34C"/>
<path opacity="0.2" d="M196.417 114.063H197.392V121.96H196.417V114.063Z" fill="#F5D34C"/>
<path opacity="0.2" d="M193.616 114.101H194.101V121.998H193.616V114.101Z" fill="#F5D34C"/>
<path opacity="0.2" d="M189.833 114.063H190.079V121.96H189.833V114.063Z" fill="#F5D34C"/>
<path opacity="0.2" d="M171.282 121.96H169.942V114.063H171.282V121.96Z" fill="#F5D34C"/>
<path opacity="0.2" d="M174.333 121.998H173.358V114.101H174.333V121.998Z" fill="#F5D34C"/>
<path opacity="0.2" d="M177.135 121.96H176.649V114.064H177.135V121.96Z" fill="#F5D34C"/>
<path opacity="0.2" d="M180.917 121.998H180.671V114.101H180.917V121.998Z" fill="#F5D34C"/>
<path opacity="0.2" d="M185.433 121.998H185.313V114.101H185.433V121.998Z" fill="#F5D34C"/>
<path opacity="0.2" d="M169.332 114.94H201.345C201.399 114.94 201.452 114.929 201.502 114.907C201.551 114.886 201.596 114.855 201.634 114.816C201.672 114.777 201.702 114.73 201.722 114.679C201.742 114.628 201.752 114.573 201.752 114.518C201.752 114.407 201.709 114.301 201.633 114.223C201.556 114.145 201.453 114.101 201.345 114.101H169.332C169.224 114.102 169.121 114.147 169.045 114.225C168.969 114.303 168.926 114.408 168.925 114.518C168.925 114.629 168.968 114.736 169.044 114.814C169.12 114.893 169.223 114.938 169.332 114.94Z" fill="black"/>
<path d="M244.411 166.495H211.681C211.359 166.495 211.098 166.762 211.098 167.092V174.737C211.098 175.067 211.359 175.334 211.681 175.334H244.411C244.733 175.334 244.993 175.067 244.993 174.737V167.092C244.993 166.762 244.733 166.495 244.411 166.495Z" fill="#F5D34C"/>
<path opacity="0.2" d="M213.955 167.007H212.614V174.903H213.955V167.007Z" fill="#F5D34C"/>
<path opacity="0.2" d="M217.002 166.969H216.026V174.865H217.002V166.969Z" fill="#F5D34C"/>
<path opacity="0.2" d="M219.803 167.007H219.318V174.903H219.803V167.007Z" fill="#F5D34C"/>
<path opacity="0.2" d="M223.585 166.969H223.34V174.865H223.585V166.969Z" fill="#F5D34C"/>
<path opacity="0.2" d="M242.136 174.865H243.477V166.969H242.136V174.865Z" fill="#F5D34C"/>
<path opacity="0.2" d="M239.09 174.903H240.065V167.007H239.09V174.903Z" fill="#F5D34C"/>
<path opacity="0.2" d="M236.284 174.865H236.769V166.969H236.284V174.865Z" fill="#F5D34C"/>
<path opacity="0.2" d="M232.502 174.903H232.747V167.007H232.502V174.903Z" fill="#F5D34C"/>
<path opacity="0.2" d="M227.985 174.903H228.106V167.007H227.985V174.903Z" fill="#F5D34C"/>
<path opacity="0.2" d="M244.087 167.841H212.074C212.02 167.841 211.967 167.831 211.917 167.81C211.868 167.789 211.823 167.759 211.785 167.72C211.747 167.681 211.717 167.635 211.697 167.584C211.676 167.533 211.666 167.479 211.667 167.424C211.667 167.313 211.71 167.207 211.786 167.129C211.862 167.051 211.966 167.007 212.074 167.007H244.087C244.195 167.007 244.299 167.051 244.375 167.129C244.451 167.207 244.494 167.313 244.494 167.424C244.495 167.479 244.484 167.533 244.464 167.584C244.444 167.635 244.414 167.681 244.376 167.72C244.338 167.759 244.293 167.789 244.244 167.81C244.194 167.831 244.141 167.841 244.087 167.841Z" fill="black"/>
<path d="M244.873 157.68H212.143C211.822 157.68 211.561 157.947 211.561 158.277V165.922C211.561 166.252 211.822 166.519 212.143 166.519H244.873C245.195 166.519 245.456 166.252 245.456 165.922V158.277C245.456 157.947 245.195 157.68 244.873 157.68Z" fill="#F5D34C"/>
<path opacity="0.2" d="M214.418 158.191H213.077V166.088H214.418V158.191Z" fill="#F5D34C"/>
<path opacity="0.2" d="M217.464 158.154H216.488V166.05H217.464V158.154Z" fill="#F5D34C"/>
<path opacity="0.2" d="M220.266 158.191H219.78V166.088H220.266V158.191Z" fill="#F5D34C"/>
<path opacity="0.2" d="M224.053 158.154H223.807V166.05H224.053V158.154Z" fill="#F5D34C"/>
<path opacity="0.2" d="M242.598 166.045H243.939V158.149H242.598V166.045Z" fill="#F5D34C"/>
<path opacity="0.2" d="M239.547 166.083H240.523V158.187H239.547V166.083Z" fill="#F5D34C"/>
<path opacity="0.2" d="M236.746 166.045H237.231V158.149H236.746V166.045Z" fill="#F5D34C"/>
<path opacity="0.2" d="M232.964 166.083H233.21V158.187H232.964V166.083Z" fill="#F5D34C"/>
<path opacity="0.2" d="M228.448 166.083H228.568V158.187H228.448V166.083Z" fill="#F5D34C"/>
<path opacity="0.2" d="M244.549 159.025H212.536C212.428 159.025 212.325 158.981 212.248 158.903C212.172 158.825 212.129 158.719 212.129 158.608C212.129 158.553 212.139 158.499 212.159 158.448C212.179 158.397 212.209 158.351 212.247 158.312C212.285 158.273 212.33 158.243 212.38 158.222C212.429 158.201 212.482 158.191 212.536 158.191H244.549C244.603 158.191 244.656 158.201 244.706 158.222C244.755 158.243 244.801 158.273 244.838 158.312C244.876 158.351 244.906 158.397 244.927 158.448C244.947 158.499 244.957 158.553 244.956 158.608C244.956 158.719 244.913 158.825 244.837 158.903C244.761 158.981 244.657 159.025 244.549 159.025Z" fill="black"/>
<path d="M243.024 148.865H210.294C209.972 148.865 209.712 149.132 209.712 149.462V157.107C209.712 157.436 209.972 157.704 210.294 157.704H243.024C243.346 157.704 243.606 157.436 243.606 157.107V149.462C243.606 149.132 243.346 148.865 243.024 148.865Z" fill="#F5D34C"/>
<path opacity="0.2" d="M212.564 149.372H211.223V157.268H212.564V149.372Z" fill="#F5D34C"/>
<path opacity="0.2" d="M215.615 149.334H214.64V157.23H215.615V149.334Z" fill="#F5D34C"/>
<path opacity="0.2" d="M218.416 149.372H217.931V157.268H218.416V149.372Z" fill="#F5D34C"/>
<path opacity="0.2" d="M222.199 149.334H221.953V157.23H222.199V149.334Z" fill="#F5D34C"/>
<path opacity="0.2" d="M240.745 157.23H242.086V149.334H240.745V157.23Z" fill="#F5D34C"/>
<path opacity="0.2" d="M237.703 157.268H238.678V149.371H237.703V157.268Z" fill="#F5D34C"/>
<path opacity="0.2" d="M234.897 157.23H235.382V149.334H234.897V157.23Z" fill="#F5D34C"/>
<path opacity="0.2" d="M231.115 157.268H231.36V149.371H231.115V157.268Z" fill="#F5D34C"/>
<path opacity="0.2" d="M226.598 157.268H226.719V149.371H226.598V157.268Z" fill="#F5D34C"/>
<path opacity="0.2" d="M242.7 150.205H210.687C210.633 150.206 210.58 150.196 210.531 150.175C210.481 150.154 210.436 150.123 210.398 150.085C210.36 150.046 210.33 150 210.31 149.949C210.29 149.898 210.279 149.843 210.28 149.788C210.28 149.678 210.323 149.572 210.399 149.494C210.476 149.416 210.579 149.372 210.687 149.372H242.7C242.808 149.373 242.911 149.417 242.987 149.495C243.063 149.573 243.106 149.678 243.107 149.788C243.107 149.899 243.064 150.005 242.988 150.083C242.912 150.161 242.808 150.205 242.7 150.205Z" fill="black"/>
<path d="M107.703 12.4384C106.975 14.3144 106.808 16.3692 107.222 18.3426C107.635 20.3161 108.612 22.1196 110.027 23.5246C111.443 24.9297 113.234 25.8733 115.174 26.2359C117.113 26.5985 119.114 26.3638 120.924 25.5615C122.733 24.7593 124.269 23.4255 125.338 21.7291C126.406 20.0327 126.959 18.0499 126.926 16.0317C126.893 14.0136 126.276 12.0508 125.153 10.3919C124.029 8.73293 122.451 7.45243 120.616 6.71246C118.162 5.72031 115.423 5.76608 113.002 6.83972C110.581 7.91336 108.675 9.92704 107.703 12.4384Z" fill="#F5D34C"/>
<path d="M109.91 13.3278C109.356 14.7573 109.229 16.3229 109.544 17.8266C109.859 19.3303 110.603 20.7043 111.682 21.7749C112.761 22.8455 114.125 23.5644 115.603 23.8407C117.081 24.117 118.606 23.9382 119.984 23.3269C121.363 22.7157 122.533 21.6995 123.348 20.407C124.162 19.1144 124.583 17.6037 124.558 16.066C124.533 14.5282 124.063 13.0327 123.207 11.7686C122.352 10.5045 121.149 9.52866 119.751 8.96467C117.881 8.20786 115.794 8.24233 113.948 9.06053C112.103 9.87872 110.65 11.4136 109.91 13.3278Z" fill="#FED32C"/>
<path d="M110 13.1027C110.199 12.8571 110.373 12.591 110.518 12.3087C110.976 11.5948 111.539 10.9586 112.189 10.423C113.14 9.63258 114.265 9.09261 115.467 8.85025C115.812 8.78017 116.162 8.73552 116.514 8.71664C116.887 8.69612 117.261 8.70505 117.633 8.74336C118.01 8.7801 118.384 8.84646 118.752 8.94186C119.512 9.13818 120.238 9.45778 120.9 9.88854C121.218 10.0967 121.521 10.3289 121.806 10.5833C122.348 11.0693 122.818 11.6323 123.204 12.2552C123.861 13.3178 124.254 14.5287 124.349 15.7824C124.415 16.6325 124.349 17.4879 124.155 18.3171C124.056 18.6211 123.988 18.9344 123.95 19.2523C124.151 18.997 124.294 18.7 124.371 18.382C124.661 17.5405 124.793 16.651 124.763 15.7595C124.713 14.4187 124.328 13.1134 123.644 11.969C123.451 11.6366 123.233 11.3201 122.992 11.0223C122.744 10.7092 122.472 10.4169 122.179 10.1481C121.872 9.86869 121.546 9.61347 121.202 9.38466C120.843 9.15533 120.469 8.9525 120.083 8.77772C119.695 8.60961 119.295 8.4718 118.886 8.36545C118.488 8.26342 118.083 8.19449 117.674 8.15932C117.281 8.12503 116.885 8.12503 116.492 8.15932C116.115 8.18395 115.741 8.23883 115.373 8.32346C114.093 8.59884 112.904 9.20757 111.92 10.0909C111.267 10.6817 110.726 11.3909 110.324 12.1827C110.151 12.461 110.04 12.7752 110 13.1027Z" fill="#A68401"/>
<path d="M114.516 20.1683L114.012 21.4204L115.094 21.8823L115.582 20.6607C116.566 21.0379 117.633 21.1252 118.662 20.9127L118.606 19.2942C117.8 19.4784 116.961 19.4455 116.171 19.1987L116.917 17.3283C118.248 17.5382 119.77 17.71 120.411 16.0953C120.888 14.9081 120.456 13.5377 118.808 12.6101L119.307 11.3695L118.215 10.9114L117.726 12.1291C116.927 11.8445 116.073 11.7581 115.235 11.8772V13.4843C115.872 13.3933 116.52 13.4349 117.141 13.6064L116.376 15.5151C115.049 15.2937 113.55 15.1333 112.92 16.7251C112.457 17.8818 112.886 19.2522 114.516 20.1683ZM117.592 15.6868L118.226 14.0989C118.752 14.4806 118.852 14.8967 118.703 15.2669C118.554 15.6372 118.133 15.7326 117.592 15.6868ZM114.631 17.5955C114.788 17.2137 115.191 17.1259 115.728 17.1527L115.094 18.6948C114.609 18.3398 114.486 17.9505 114.631 17.5917V17.5955Z" fill="#A68401"/>
<path d="M206.903 13.2632C206.903 13.2632 209.375 17.2522 214.901 16.6987C218.321 16.3437 225.018 16.6223 225.663 19.2295L223.996 26.8221C223.996 26.8221 219.685 25.2456 215.084 25.9441C210.561 26.6312 204.445 22.8407 204.445 22.8407L206.903 13.2632Z" fill="#93D9B7"/>
<g opacity="0.4">
<path d="M214.797 24.7226C215.32 24.726 215.837 24.6137 216.314 24.3934C216.791 24.1731 217.215 23.85 217.559 23.4462C217.902 23.0424 218.156 22.5675 218.304 22.0538C218.452 21.5402 218.489 21 218.414 20.4702C218.075 18.5615 215.431 17.4622 213.566 17.7981C213.124 17.8812 212.701 18.0529 212.323 18.3031C211.945 18.5534 211.619 18.8775 211.364 19.2568C211.108 19.6361 210.928 20.0632 210.834 20.5137C210.74 20.9642 210.733 21.4294 210.814 21.8826C211.161 23.8065 212.932 24.734 214.797 24.7226Z" fill="white"/>
</g>
<path d="M214.286 23.272L214.256 23.8866L214.797 23.9057L214.827 23.3064C215.306 23.3121 215.778 23.1798 216.188 22.9247L215.927 22.2376C215.607 22.4423 215.241 22.5581 214.864 22.5735L214.912 21.6535C215.517 21.5352 216.195 21.3672 216.232 20.5809C216.262 19.9968 215.86 19.4739 215.032 19.3288L215.062 18.718L214.525 18.6913L214.495 19.2906C214.105 19.2897 213.722 19.3853 213.376 19.5693L213.611 20.2602C213.872 20.1232 214.157 20.0402 214.45 20.0159L214.402 20.9511C213.797 21.0657 213.13 21.2336 213.093 22.0085C213.067 22.604 213.447 23.1193 214.286 23.272ZM214.95 20.8519L214.991 20.0884C215.27 20.1686 215.364 20.3366 215.364 20.5198C215.364 20.703 215.192 20.8023 214.95 20.8519ZM213.958 22.1269C213.958 21.936 214.129 21.8406 214.364 21.768L214.323 22.5315C214.051 22.4704 213.947 22.3215 213.958 22.1421V22.1269Z" fill="#EBEBEB"/>
<g opacity="0.5">
<path d="M223.437 25.925L224.928 19.0158L224.876 18.9662C222.389 16.7254 217.418 17.1262 214.118 17.3896C213.551 17.4354 212.999 17.4774 212.556 17.5041C209.468 17.6683 207.41 15.0038 207.372 14.7175L207.134 14.6832L205.411 22.1116L205.471 22.1612C207.028 23.3911 208.819 24.2748 210.73 24.7559C212.64 25.2371 214.627 25.305 216.564 24.9554C219.216 24.421 223.276 25.864 223.31 25.8792L223.437 25.925ZM224.656 19.1074L223.258 25.5967C222.512 25.3486 218.992 24.2111 216.516 24.7111C214.625 25.0504 212.686 24.9858 210.82 24.5213C208.955 24.0569 207.203 23.2027 205.676 22.0123L207.29 15.0764C207.42 15.2654 207.563 15.4441 207.719 15.6108C208.211 16.1452 210.024 17.8821 212.567 17.7446C213.029 17.7217 213.57 17.6797 214.137 17.6339C217.362 17.3782 222.232 16.9888 224.656 19.1074Z" fill="white"/>
</g>
<path d="M83.817 34.3001C83.817 34.3001 87.9934 34.8918 90.8684 30.605C92.6508 27.9558 96.7937 23.3522 98.9528 24.421L103.14 30.0935C100.793 31.5809 98.7907 33.5755 97.2747 35.9377C95.0709 39.5718 88.8771 41.7018 88.8771 41.7018L83.817 34.3001Z" fill="#93D9B7"/>
<g opacity="0.4">
<path d="M96.294 35.4224C96.6037 35.0523 96.8319 34.6182 96.9633 34.1498C97.0947 33.6814 97.1261 33.1895 97.0553 32.7075C96.9846 32.2256 96.8134 31.7649 96.5533 31.3566C96.2933 30.9484 95.9505 30.6022 95.5482 30.3416C94.0566 29.4598 91.7409 30.689 90.8758 32.2235C90.4626 32.9618 90.3522 33.8378 90.5689 34.6592C90.7856 35.4807 91.3117 36.1807 92.0318 36.6057C93.5159 37.4875 95.1828 36.7813 96.294 35.4224Z" fill="white"/>
</g>
<path d="M94.9963 34.9376L95.399 35.3193L95.7347 34.9376L95.3618 34.5559C95.6507 34.2193 95.8418 33.8068 95.9136 33.3649L95.2909 33.1473C95.2399 33.4951 95.1025 33.8237 94.8919 34.1016L94.2916 33.5252C94.5712 33.0251 94.8546 32.4449 94.3437 31.9487C93.9708 31.5669 93.3779 31.5669 92.7813 32.067L92.3823 31.6853L92.0467 32.067L92.4196 32.4487C92.193 32.7248 92.0333 33.0518 91.9535 33.403L92.565 33.6435C92.6261 33.3771 92.7376 33.1255 92.8932 32.903L93.5047 33.4908C93.2213 33.9871 92.9417 34.5635 93.4488 35.0483C93.8217 35.4148 94.3997 35.4491 94.9963 34.9376ZM93.7508 33.029L93.2325 32.5556C93.3019 32.4879 93.394 32.4502 93.4898 32.4502C93.5856 32.4502 93.6778 32.4879 93.7471 32.5556C93.8814 32.6587 93.8478 32.8343 93.7508 33.0442V33.029ZM94.0343 34.4948C93.9075 34.3726 93.9373 34.2009 94.0343 33.9909L94.5265 34.4681C94.3176 34.6284 94.1498 34.6208 94.0343 34.5101V34.4948Z" fill="#EBEBEB"/>
<g opacity="0.5">
<path d="M102.212 29.9751L98.3822 24.8295H98.3188C95.3357 25.2799 92.6545 29.0666 90.8907 31.5746C90.585 32.0059 90.2979 32.4144 90.0406 32.7579C88.329 35.0483 85.3011 34.9567 85.0848 34.8116L84.9207 34.9605L88.9629 40.5833H89.03C90.7877 40.1973 92.4475 39.4405 93.9036 38.3614C95.3598 37.2822 96.5802 35.9042 97.4873 34.3154C98.6917 32.1052 102.07 30.0629 102.104 30.0439L102.212 29.9751ZM98.2853 25.0738L101.884 29.9103C101.283 30.292 98.4195 32.1357 97.2971 34.2009C96.4118 35.7513 95.2226 37.0975 93.8043 38.1545C92.3861 39.2115 90.7694 39.9566 89.0561 40.3428L85.2824 35.0941C85.4885 35.1084 85.6953 35.1084 85.9014 35.0941C86.5577 35.0559 88.81 34.7887 90.2195 32.8954C90.4768 32.5518 90.764 32.1319 91.0697 31.7082C92.8 29.2499 95.4102 25.5547 98.2853 25.0738Z" fill="white"/>
</g>
<path d="M76.4261 133.843C76.4261 133.843 78.9693 137.279 83.9624 136.336C87.0537 135.748 93.1729 135.484 93.9522 137.813L92.9939 144.852C90.307 144.207 87.5151 144.169 84.8125 144.741C80.7405 145.719 74.8898 142.737 74.8898 142.737L76.4261 133.843Z" fill="#93D9B7"/>
<g opacity="0.4">
<path d="M84.4732 143.653C84.9491 143.616 85.4114 143.473 85.8288 143.236C86.2461 142.999 86.6087 142.673 86.8917 142.28C87.1748 141.886 87.3718 141.435 87.4692 140.957C87.5666 140.478 87.5623 139.984 87.4564 139.508C87.0052 137.798 84.5217 137 82.8511 137.458C82.0488 137.68 81.3655 138.22 80.9516 138.958C80.5376 139.696 80.4269 140.572 80.6436 141.394C81.0836 143.104 82.7505 143.81 84.4732 143.653Z" fill="white"/>
</g>
<path d="M83.8915 142.371V142.936H84.3837V142.386C84.8198 142.359 85.2397 142.206 85.5956 141.947L85.3085 141.34C85.0314 141.548 84.7064 141.68 84.3651 141.722L84.339 140.882C84.8797 140.729 85.4838 140.523 85.4577 139.806C85.4577 139.271 85.0475 138.825 84.2681 138.756V138.199H83.7759V138.748C83.4253 138.779 83.0867 138.894 82.7877 139.084L83.0525 139.699C83.2796 139.553 83.5333 139.455 83.7983 139.412L83.8244 140.267C83.2837 140.416 82.7057 140.619 82.7057 141.329C82.7281 141.859 83.1159 142.298 83.8915 142.371ZM84.3166 140.13L84.2942 139.416C84.559 139.466 84.6671 139.611 84.6671 139.775C84.6671 139.939 84.5329 140.054 84.3166 140.13ZM83.5074 141.371C83.5074 141.195 83.6417 141.092 83.8505 141.012L83.8729 141.707C83.623 141.657 83.5111 141.531 83.5074 141.371Z" fill="#EBEBEB"/>
<g opacity="0.5">
<path d="M92.4196 144.085L93.2661 137.66L93.2139 137.618C90.7864 135.771 86.2818 136.519 83.2986 137.011C82.7877 137.099 82.303 137.179 81.8853 137.237C79.0849 137.618 77.0153 135.358 76.9594 135.099H76.7394L75.7065 142L75.7624 142.042C77.2728 143.042 78.97 143.708 80.7459 143.998C82.5218 144.289 84.3373 144.197 86.0767 143.73C88.452 143.039 92.2481 144.039 92.2891 144.05L92.4196 144.085ZM93.0312 137.775L92.2332 143.802C91.5508 143.63 88.2432 142.867 86.0245 143.512C84.3282 143.97 82.5576 144.063 80.8245 143.784C79.0915 143.505 77.4338 142.862 75.9563 141.894L76.9109 135.45C77.0439 135.612 77.1885 135.764 77.3435 135.904C77.832 136.355 79.6107 137.813 81.9152 137.477C82.3328 137.416 82.8213 137.336 83.3359 137.252C86.2594 136.767 90.6633 136.034 93.0312 137.775Z" fill="white"/>
</g>
<path d="M42.9294 51.4697C41.9247 54.1829 41.7291 57.1403 42.3672 59.9675C43.0054 62.7946 44.4486 65.3644 46.5142 67.3514C48.5798 69.3384 51.1749 70.6534 53.971 71.1298C56.767 71.6061 59.6383 71.2225 62.2212 70.0275C64.8042 68.8325 66.9827 66.8798 68.4809 64.4166C69.9792 61.9535 70.7298 59.0906 70.6378 56.1905C70.5457 53.2904 69.6152 50.4834 67.9639 48.125C66.3126 45.7666 64.0149 43.9628 61.3616 42.9419C57.8126 41.572 53.8774 41.7008 50.4211 43.2999C46.9648 44.899 44.2701 47.8375 42.9294 51.4697Z" fill="#F5D34C"/>
<path d="M66.9488 52.6989C67.7157 54.766 67.8661 57.0195 67.3812 59.1742C66.8962 61.3289 65.7977 63.2879 64.2245 64.8031C62.6514 66.3183 60.6745 67.3216 58.5441 67.686C56.4136 68.0504 54.2254 67.7595 52.2566 66.8502C50.2877 65.9409 48.6267 64.454 47.4837 62.5777C46.3408 60.7015 45.7674 58.5203 45.8361 56.3103C45.9048 54.1003 46.6125 51.9608 47.8696 50.1628C49.1268 48.3647 50.8768 46.9889 52.8981 46.2095C55.602 45.1627 58.6014 45.2583 61.2364 46.4753C63.8714 47.6923 65.9262 49.931 66.9488 52.6989Z" fill="#F5D34C"/>
<path d="M66.5274 52.6988C66.4969 52.6471 66.4695 52.5936 66.4454 52.5385C66.3932 52.4201 66.3223 52.2598 66.2291 52.0575C66.1806 51.9506 66.1284 51.8284 66.0725 51.6987C66.0165 51.5689 65.927 51.4391 65.845 51.2902C65.6649 50.9447 65.4605 50.6129 65.2335 50.2977C64.6357 49.4166 63.9101 48.634 63.0819 47.9768C61.112 46.3756 58.6585 45.5275 56.1436 45.5783C53.6288 45.6292 51.2099 46.5759 49.3034 48.2555C48.9113 48.5944 48.5437 48.9618 48.2033 49.3549C48.0318 49.5534 47.8789 49.7709 47.7149 49.9809C47.5497 50.1914 47.399 50.4133 47.2637 50.6451C46.9721 51.1054 46.7105 51.5848 46.4806 52.0804C46.2627 52.5963 46.0795 53.1269 45.9324 53.6684C45.6198 54.7724 45.4838 55.921 45.5297 57.0696C45.6103 59.4534 46.4512 61.7447 47.9237 63.5933C48.629 64.4896 49.4714 65.2631 50.4183 65.8836C50.8778 66.1875 51.3561 66.4604 51.8503 66.7005C52.3423 66.9194 52.8481 67.1043 53.3642 67.254C53.8679 67.4031 54.3813 67.5154 54.9005 67.5899C55.4102 67.6538 55.9235 67.6818 56.4369 67.6739C58.3683 67.6492 60.2587 67.0999 61.9147 66.0821C63.2261 65.268 64.355 64.1797 65.2276 62.8885C66.1002 61.5973 66.6968 60.1322 66.9786 58.5888C67.1757 57.5348 67.2171 56.4565 67.1017 55.39C67.066 55.0047 67.0062 54.6222 66.9227 54.2448C66.8854 54.0806 66.863 53.9241 66.8295 53.7829L66.7176 53.4012L66.5684 52.8897C66.5505 52.8322 66.5368 52.7736 66.5274 52.7141C66.5532 52.7681 66.5744 52.8243 66.5908 52.882C66.6355 53.008 66.6915 53.1721 66.7623 53.3859C66.7996 53.4966 66.8369 53.6226 66.8817 53.7676C66.9264 53.9127 66.9488 54.0654 66.9861 54.2295C67.0814 54.6055 67.1488 54.9883 67.1874 55.3747C67.3212 56.4505 67.2923 57.5411 67.1017 58.6079C66.8305 60.1772 66.2365 61.6694 65.3589 62.9857C64.4813 64.3019 63.3403 65.4121 62.0117 66.2425C60.3281 67.2847 58.4041 67.8499 56.4369 67.8801C55.9136 67.8881 55.3903 67.86 54.8707 67.7961C54.34 67.7221 53.8153 67.6086 53.3008 67.4563C52.773 67.3059 52.2559 67.1184 51.7533 66.8952C51.2485 66.6528 50.7602 66.3761 50.2916 66.0669C49.3258 65.4329 48.4659 64.6441 47.7447 63.7307C47.0093 62.7861 46.4195 61.7317 45.9958 60.6043C45.5929 59.4685 45.3603 58.2767 45.306 57.0696C45.2598 55.8964 45.3996 54.7233 45.7199 53.5958C45.8717 53.0477 46.0598 52.5107 46.2829 51.9888C46.5168 51.4818 46.7847 50.992 47.0847 50.5229C47.2201 50.2871 47.3735 50.0624 47.5433 49.8511C47.7111 49.6373 47.8677 49.4159 48.043 49.2136C48.3888 48.8134 48.7627 48.4396 49.1617 48.0952C50.6583 46.7898 52.4683 45.9174 54.4046 45.5681C55.9381 45.2946 57.5108 45.3573 59.0188 45.7521C60.5268 46.1469 61.9358 46.8649 63.1527 47.8585C63.9863 48.5316 64.7133 49.3325 65.308 50.2328C65.5312 50.5531 65.7306 50.8899 65.9047 51.2406C65.983 51.3933 66.0613 51.5307 66.1247 51.6605L66.2701 52.0231L66.4677 52.5156C66.494 52.5743 66.514 52.6357 66.5274 52.6988Z" fill="#A68401"/>
<path d="M66.505 52.8402C66.4453 52.8669 66.2327 52.4241 65.7592 51.695C65.1197 50.66 64.3286 49.7317 63.4137 48.9427C62.7858 48.4081 62.1031 47.9448 61.3777 47.5609C60.5508 47.1285 59.6737 46.8053 58.7674 46.5989C58.2758 46.4907 57.7774 46.418 57.2758 46.3814C56.2138 46.3021 55.1461 46.3896 54.1099 46.6409C53.5687 46.7772 53.0378 46.9532 52.5214 47.1677C52.0059 47.3828 51.5072 47.638 51.0298 47.9312C50.5706 48.2188 50.1342 48.543 49.7247 48.9007C49.3236 49.2457 48.9496 49.6222 48.606 50.0268C48.2746 50.4143 47.9717 50.8264 47.6999 51.2598C47.1949 52.0633 46.7914 52.9291 46.4991 53.8365C46.2452 54.6336 46.0764 55.4566 45.9957 56.291C45.8905 57.5113 45.9698 58.7409 46.2307 59.9365C46.4134 60.7915 46.57 61.2572 46.5066 61.2801C46.4432 61.3031 46.2083 60.8755 45.9212 60.0243C45.5256 58.8074 45.3525 57.5263 45.4103 56.2452C45.4519 55.3574 45.5933 54.4774 45.8317 53.6227C46.1124 52.6427 46.52 51.7055 47.0436 50.8361C47.3274 50.3658 47.6453 49.9179 47.9944 49.4962C48.3571 49.0537 48.7536 48.6414 49.1803 48.2633C49.6218 47.8717 50.0931 47.5169 50.5898 47.2021C51.1013 46.8807 51.6361 46.5999 52.1895 46.3623C52.7456 46.1283 53.3193 45.9407 53.9048 45.8011C55.0237 45.5362 56.1763 45.4524 57.3206 45.553C57.8585 45.5999 58.3921 45.6892 58.9165 45.8202C59.8868 46.0566 60.8213 46.4264 61.6946 46.9196C62.4537 47.3512 63.1598 47.874 63.7977 48.477C64.7217 49.3445 65.4803 50.38 66.0351 51.5308C66.4229 52.3325 66.5311 52.8211 66.505 52.8402Z" fill="#A68401"/>
<path d="M59.7595 62.4255L60.4568 64.2349L58.8757 64.8724L58.2008 63.1088C56.5973 63.6394 54.9044 63.7425 53.7708 63.3951L53.8826 61.0742C55.0384 61.358 56.2463 61.3291 57.3878 60.9902L56.3512 58.2876C54.4308 58.5587 52.2493 58.7457 51.3544 56.4324C50.6944 54.7185 51.3544 52.7602 53.7335 51.47L53.0436 49.6721L54.621 49.0384L55.3183 50.7981C56.4724 50.4076 57.7005 50.3029 58.9018 50.4928L58.8757 52.7831C57.9628 52.6391 57.0309 52.6833 56.1349 52.9129L57.1902 55.6613C59.1069 55.3789 61.2622 55.1995 62.1385 57.4822C62.7762 59.1809 62.1236 61.12 59.7595 62.4255ZM55.4376 55.9133L54.5576 53.6229C53.8118 54.1535 53.644 54.7681 53.8453 55.2911C54.0467 55.814 54.6545 55.9591 55.4376 55.9133ZM59.6513 58.719C59.435 58.1502 58.857 58.0281 58.0852 58.0586L58.9428 60.2917C59.6625 59.7955 59.8489 59.2343 59.6513 58.719Z" fill="#A68401"/>
<path d="M115.568 104.844C113.638 106.067 111.389 106.69 109.106 106.634C106.822 106.578 104.606 105.846 102.739 104.53C100.872 103.214 99.4366 101.374 98.6156 99.2421C97.7946 97.1104 97.6246 94.783 98.1269 92.5546C98.6292 90.3262 99.7814 88.297 101.438 86.7237C103.094 85.1504 105.179 84.1038 107.431 83.7164C109.682 83.3291 111.997 83.6183 114.084 84.5475C116.171 85.4768 117.935 87.0042 119.153 88.9365C120.787 91.5216 121.327 94.6497 120.655 97.6329C119.982 100.616 118.152 103.21 115.568 104.844Z" fill="#F5D34C"/>
<path d="M114.103 102.52C112.633 103.451 110.919 103.926 109.179 103.884C107.439 103.841 105.751 103.284 104.328 102.281C102.905 101.279 101.812 99.8768 101.186 98.2527C100.56 96.6286 100.43 94.8553 100.813 93.1573C101.195 91.4593 102.073 89.913 103.334 88.7139C104.596 87.5149 106.185 86.7172 107.9 86.4216C109.616 86.1261 111.38 86.346 112.97 87.0536C114.56 87.7612 115.905 88.9247 116.833 90.3968C118.078 92.3668 118.489 94.7502 117.977 97.0232C117.465 99.2963 116.072 101.273 114.103 102.52Z" fill="#F5D34C"/>
<path d="M114.336 102.369C114.306 102.325 114.613 102.088 115.105 101.608C115.796 100.937 116.379 100.163 116.833 99.3141C117.143 98.7291 117.388 98.1119 117.564 97.4736C117.76 96.7436 117.863 95.9917 117.87 95.2357C117.873 94.8281 117.845 94.4209 117.788 94.0174C117.734 93.5962 117.646 93.1801 117.525 92.7731C117.403 92.3497 117.249 91.9366 117.062 91.5375C116.868 91.1274 116.644 90.7318 116.393 90.3537C116.13 89.981 115.841 89.6272 115.529 89.2952C114.941 88.6586 114.257 88.1177 113.502 87.6924C113.149 87.4897 112.78 87.3135 112.401 87.1653C111.698 86.8867 110.961 86.7009 110.21 86.6123C109.553 86.539 108.889 86.539 108.232 86.6123C107.272 86.7178 106.334 86.9729 105.454 87.3684C105.138 87.5467 104.805 87.6915 104.46 87.8004C104.434 87.7701 104.723 87.498 105.324 87.1394C106.198 86.6333 107.16 86.2949 108.158 86.1414C109.655 85.9027 111.189 86.0514 112.612 86.5734C113.024 86.725 113.422 86.9085 113.805 87.1221C114.208 87.3406 114.592 87.592 114.954 87.8738C115.331 88.1629 115.683 88.4822 116.008 88.8286C116.341 89.1857 116.647 89.5669 116.924 89.9692C117.196 90.3822 117.436 90.8155 117.641 91.2653C118.033 92.1129 118.29 93.0168 118.402 93.9439C118.455 94.3738 118.475 94.8071 118.462 95.24C118.44 96.0488 118.31 96.851 118.073 97.6249C117.862 98.2948 117.572 98.9372 117.209 99.5388C116.695 100.409 116.022 101.175 115.226 101.798C114.716 102.239 114.358 102.403 114.336 102.369Z" fill="#A68401"/>
<path d="M105.514 98.7177L104.218 99.5558L103.471 98.4066L104.723 97.5944C104.091 96.5537 103.765 95.3558 103.782 94.1381L105.592 93.8573C105.561 94.815 105.779 95.7644 106.223 96.6137L108.141 95.3651C107.618 93.8918 107.117 92.1939 108.759 91.1268C109.973 90.3362 111.593 90.5392 112.98 92.2155L114.25 91.386L114.997 92.5353L113.749 93.3475C114.234 94.1984 114.514 95.1513 114.565 96.1298L112.781 96.4754C112.744 95.7259 112.558 94.9914 112.232 94.3152L110.266 95.607C110.798 97.0716 111.282 98.7479 109.666 99.8021C108.491 100.593 106.892 100.377 105.514 98.7177ZM109.834 94.272L111.463 93.2135C110.927 92.6951 110.439 92.6692 110.059 92.9154C109.679 93.1617 109.657 93.6801 109.834 94.272ZM108.353 98.0437C108.754 97.7845 108.754 97.3092 108.607 96.7044L107.026 97.7326C107.514 98.2251 107.977 98.2813 108.344 98.0437H108.353Z" fill="#A68401"/>
<path d="M171.135 43.7028C171.193 45.7204 171.834 47.6752 172.977 49.3198C174.12 50.9644 175.714 52.2248 177.557 52.9415C179.4 53.6581 181.41 53.7989 183.331 53.3458C185.253 52.8928 187 51.8663 188.351 50.3964C189.702 48.9265 190.597 47.0792 190.922 45.0884C191.247 43.0976 190.988 41.0528 190.178 39.2128C189.367 37.3729 188.041 35.8205 186.368 34.7522C184.695 33.684 182.75 33.1478 180.78 33.2117C178.142 33.2952 175.645 34.447 173.837 36.4141C172.028 38.3812 171.057 41.0028 171.135 43.7028Z" fill="#F5D34C"/>
<path d="M173.506 43.6248C173.55 45.1621 174.038 46.6516 174.909 47.9046C175.781 49.1577 176.995 50.118 178.4 50.664C179.804 51.2101 181.335 51.3173 182.799 50.9721C184.263 50.6269 185.594 49.8448 186.624 48.7248C187.654 47.6049 188.336 46.1974 188.583 44.6805C188.831 43.1636 188.634 41.6056 188.016 40.2036C187.399 38.8016 186.389 37.6187 185.114 36.8046C183.839 35.9905 182.358 35.5819 180.856 35.6303C178.846 35.6932 176.942 36.5707 175.564 38.0699C174.186 39.569 173.446 41.5671 173.506 43.6248Z" fill="#FED32C"/>
<path d="M173.502 43.3819C173.59 43.0756 173.646 42.7609 173.671 42.4427C173.815 41.6018 174.086 40.7891 174.475 40.034C175.043 38.923 175.868 37.9711 176.877 37.2615C177.168 37.0571 177.472 36.8742 177.788 36.7142C178.122 36.5442 178.469 36.4009 178.825 36.2854C179.186 36.1663 179.555 36.0757 179.93 36.0144C180.704 35.8864 181.493 35.8861 182.268 36.0134C182.641 36.0754 183.009 36.166 183.369 36.2841C184.054 36.5109 184.705 36.8371 185.3 37.2529C186.314 37.9624 187.143 38.9151 187.715 40.028C188.104 40.7819 188.375 41.5939 188.517 42.4342C188.544 42.7533 188.602 43.0688 188.69 43.3761C188.776 43.0604 188.793 42.7294 188.741 42.4061C188.681 41.5162 188.459 40.6455 188.086 39.8392C187.522 38.6279 186.664 37.5854 185.593 36.8117C185.287 36.5847 184.964 36.3825 184.628 36.2067C184.279 36.0197 183.916 35.8614 183.543 35.7334C183.154 35.6009 182.755 35.4989 182.351 35.4282C181.933 35.3628 181.511 35.3281 181.089 35.3242C180.667 35.3272 180.246 35.3628 179.83 35.4307C179.425 35.4982 179.026 35.5991 178.637 35.7325C178.263 35.8604 177.9 36.0206 177.552 36.2115C177.216 36.3867 176.893 36.5887 176.588 36.8156C175.519 37.5873 174.662 38.6282 174.1 39.8379C173.729 40.6451 173.507 41.5156 173.444 42.4056C173.392 42.7314 173.412 43.0648 173.502 43.3819Z" fill="#A68401"/>
<path d="M180.381 48.0405L180.403 49.3942L181.574 49.3802L181.551 48.0605C182.6 48.0083 183.613 47.656 184.476 47.0437L183.799 45.58C183.13 46.0759 182.347 46.3856 181.526 46.4791L181.488 44.4593C182.791 44.1126 184.255 43.6538 184.22 41.9111C184.199 40.6275 183.272 39.5443 181.399 39.3604L181.379 38.0187L180.198 38.0408L180.22 39.3569C179.376 39.4194 178.559 39.686 177.835 40.135L178.457 41.6108C179.006 41.2692 179.618 41.0448 180.254 40.9508L180.29 43.0133C178.985 43.3479 177.547 43.8082 177.584 45.5253C177.606 46.7748 178.53 47.8595 180.381 48.0405ZM181.473 42.6784L181.441 40.9633C182.071 41.1007 182.325 41.442 182.331 41.8425C182.337 42.243 181.987 42.5014 181.473 42.6784ZM179.492 45.6309C179.488 45.2169 179.824 44.9731 180.328 44.7801L180.342 46.4531C179.759 46.3236 179.496 46.0159 179.491 45.6274L179.492 45.6309Z" fill="#A68401"/>
</g>
<defs>
<clipPath id="clip0_2_1734">
<rect width="380" height="180" fill="white"/>
</clipPath>
</defs>
</svg>
