<svg width="286" height="190" viewBox="0 0 286 190" fill="none" xmlns="http://www.w3.org/2000/svg">
<path d="M250.565 142.58H250.185V94.7682L260.343 80.9058V54.9974H260.723V81.0274L250.565 94.8936V142.58Z" fill="#EBEBEB"/>
<path d="M260.533 55.2026C260.316 55.2026 260.104 55.1383 259.924 55.0179C259.744 54.8975 259.604 54.7263 259.521 54.5261C259.438 54.3259 259.417 54.1057 259.46 53.8933C259.502 53.6809 259.607 53.4859 259.76 53.333C259.914 53.1801 260.109 53.0762 260.321 53.0344C260.534 52.9926 260.754 53.0148 260.954 53.0982C261.154 53.1816 261.325 53.3225 261.444 53.5029C261.564 53.6834 261.628 53.8954 261.627 54.112C261.627 54.2555 261.599 54.3977 261.544 54.5302C261.489 54.6628 261.408 54.7832 261.306 54.8845C261.205 54.9858 261.084 55.0661 260.951 55.1207C260.818 55.1753 260.676 55.2031 260.533 55.2026ZM260.533 53.3976C260.391 53.3976 260.253 53.4395 260.136 53.518C260.018 53.5965 259.927 53.7081 259.873 53.8386C259.819 53.9691 259.804 54.1128 259.832 54.2514C259.86 54.3899 259.928 54.5172 260.027 54.6172C260.127 54.7171 260.255 54.7851 260.393 54.8127C260.532 54.8402 260.675 54.8261 260.806 54.772C260.937 54.7179 261.048 54.6264 261.127 54.5089C261.205 54.3914 261.247 54.2533 261.247 54.112C261.247 53.9225 261.172 53.7408 261.038 53.6068C260.904 53.4729 260.722 53.3976 260.533 53.3976Z" fill="#EBEBEB"/>
<path d="M253.183 142.58H252.803V96.444L252.838 96.3908L262.961 82.5778V64.4974H263.341V82.7032L253.183 96.5656V142.58Z" fill="#EBEBEB"/>
<path d="M263.151 64.7026C262.934 64.7033 262.722 64.6397 262.541 64.5197C262.361 64.3998 262.22 64.2289 262.137 64.0288C262.053 63.8286 262.031 63.6083 262.074 63.3956C262.116 63.183 262.22 62.9876 262.373 62.8343C262.527 62.6811 262.722 62.5767 262.935 62.5346C263.147 62.4925 263.368 62.5145 263.568 62.5978C263.768 62.6811 263.939 62.822 264.059 63.0025C264.179 63.1831 264.242 63.3952 264.242 63.612C264.241 63.9009 264.125 64.1777 263.921 64.3821C263.717 64.5864 263.44 64.7016 263.151 64.7026ZM263.151 62.8976C263.009 62.8968 262.871 62.9381 262.753 63.0161C262.635 63.0942 262.543 63.2055 262.488 63.336C262.434 63.4664 262.419 63.6102 262.446 63.749C262.473 63.8878 262.541 64.0155 262.641 64.1158C262.74 64.2161 262.868 64.2845 263.006 64.3124C263.145 64.3402 263.289 64.3263 263.42 64.2724C263.55 64.2184 263.662 64.1268 263.741 64.0093C263.82 63.8917 263.862 63.7534 263.862 63.612C263.862 63.4232 263.787 63.242 263.654 63.1082C263.52 62.9743 263.34 62.8986 263.151 62.8976Z" fill="#EBEBEB"/>
<path d="M248.046 79.344H247.666V142.58H248.046V79.344Z" fill="#EBEBEB"/>
<path d="M247.856 79.534C247.639 79.5348 247.427 79.4711 247.246 79.3512C247.066 79.2312 246.925 79.0603 246.842 78.8602C246.758 78.66 246.736 78.4397 246.778 78.227C246.821 78.0144 246.925 77.819 247.078 77.6658C247.231 77.5125 247.427 77.4082 247.639 77.3661C247.852 77.324 248.072 77.3459 248.273 77.4292C248.473 77.5126 248.644 77.6534 248.764 77.834C248.883 78.0145 248.947 78.2266 248.946 78.4434C248.945 78.7323 248.83 79.0092 248.626 79.2135C248.422 79.4178 248.145 79.533 247.856 79.534ZM247.856 77.729C247.714 77.7283 247.576 77.7695 247.458 77.8476C247.34 77.9256 247.248 78.0369 247.193 78.1674C247.138 78.2978 247.124 78.4416 247.151 78.5804C247.178 78.7193 247.246 78.8469 247.345 78.9472C247.445 79.0475 247.572 79.1159 247.711 79.1438C247.85 79.1717 247.994 79.1577 248.124 79.1038C248.255 79.0498 248.367 78.9583 248.446 78.8407C248.524 78.7231 248.566 78.5849 248.566 78.4434C248.566 78.2546 248.492 78.0735 248.358 77.9396C248.225 77.8057 248.045 77.73 247.856 77.729Z" fill="#EBEBEB"/>
<path d="M245.618 142.58H245.238V110.489L238.344 97.4814V74.119H238.724V97.3902L245.618 110.398V142.58Z" fill="#EBEBEB"/>
<path d="M238.531 74.309C238.314 74.309 238.103 74.2448 237.923 74.1245C237.743 74.0043 237.602 73.8334 237.52 73.6334C237.437 73.4334 237.415 73.2134 237.457 73.0011C237.5 72.7888 237.604 72.5938 237.757 72.4407C237.91 72.2877 238.105 72.1834 238.317 72.1412C238.529 72.099 238.75 72.1207 238.95 72.2035C239.149 72.2863 239.32 72.4266 239.441 72.6066C239.561 72.7865 239.625 72.9981 239.625 73.2146C239.625 73.5048 239.51 73.7832 239.305 73.9884C239.099 74.1937 238.821 74.309 238.531 74.309ZM238.531 72.504C238.389 72.504 238.251 72.546 238.133 72.6246C238.016 72.7033 237.924 72.8151 237.87 72.9459C237.816 73.0766 237.802 73.2205 237.83 73.3592C237.858 73.4978 237.927 73.6251 238.027 73.7249C238.127 73.8246 238.255 73.8924 238.394 73.9195C238.532 73.9466 238.676 73.932 238.807 73.8773C238.937 73.8226 239.048 73.7305 239.127 73.6125C239.205 73.4945 239.246 73.356 239.245 73.2146C239.245 73.1209 239.227 73.0282 239.191 72.9418C239.155 72.8553 239.102 72.7768 239.036 72.7108C238.969 72.6447 238.89 72.5925 238.804 72.557C238.717 72.5215 238.624 72.5035 238.531 72.504Z" fill="#EBEBEB"/>
<path d="M243.204 142.58H242.824V111.883L234.696 97.5042V82.0952H235.076V97.4016L243.204 111.785V142.58Z" fill="#EBEBEB"/>
<path d="M234.887 82.2852C234.67 82.286 234.458 82.2223 234.277 82.1024C234.097 81.9824 233.956 81.8115 233.872 81.6114C233.789 81.4113 233.767 81.1909 233.809 80.9783C233.851 80.7656 233.956 80.5703 234.109 80.417C234.262 80.2637 234.458 80.1594 234.67 80.1173C234.883 80.0752 235.103 80.0972 235.303 80.1805C235.503 80.2638 235.674 80.4046 235.794 80.5852C235.914 80.7657 235.978 80.9779 235.977 81.1946C235.976 81.4836 235.861 81.7604 235.657 81.9647C235.452 82.169 235.175 82.2842 234.887 82.2852ZM234.887 80.4802C234.745 80.4795 234.607 80.5207 234.489 80.5988C234.371 80.6768 234.278 80.7881 234.224 80.9186C234.169 81.0491 234.154 81.1928 234.182 81.3317C234.209 81.4705 234.276 81.5981 234.376 81.6984C234.476 81.7987 234.603 81.8671 234.742 81.895C234.881 81.9229 235.024 81.909 235.155 81.855C235.286 81.801 235.398 81.7095 235.476 81.5919C235.555 81.4744 235.597 81.3361 235.597 81.1946C235.597 81.0058 235.522 80.8247 235.389 80.6908C235.256 80.5569 235.075 80.4812 234.887 80.4802Z" fill="#EBEBEB"/>
<path d="M36.8494 142.58H36.4694V117.69L26.312 103.827V89.1974H26.692V103.702L36.8494 117.568V142.58Z" fill="#EBEBEB"/>
<path d="M26.502 89.4026C26.2852 89.4034 26.0731 89.3397 25.8926 89.2197C25.712 89.0998 25.5711 88.9289 25.4878 88.7288C25.4045 88.5286 25.3825 88.3083 25.4247 88.0956C25.4668 87.883 25.5711 87.6876 25.7244 87.5343C25.8776 87.3811 26.073 87.2768 26.2856 87.2347C26.4983 87.1925 26.7186 87.2145 26.9188 87.2978C27.1189 87.3811 27.2898 87.522 27.4097 87.7026C27.5297 87.8831 27.5934 88.0952 27.5926 88.312C27.5926 88.6012 27.4777 88.8786 27.2732 89.0832C27.0686 89.2877 26.7912 89.4026 26.502 89.4026ZM26.502 87.5976C26.3606 87.5969 26.2221 87.6381 26.1041 87.7162C25.9861 87.7942 25.8939 87.9055 25.8393 88.036C25.7846 88.1664 25.7699 88.3102 25.7971 88.449C25.8242 88.5879 25.8919 88.7155 25.9917 88.8158C26.0915 88.9161 26.2187 88.9845 26.3574 89.0124C26.4961 89.0403 26.6399 89.0263 26.7707 88.9724C26.9015 88.9184 27.0133 88.8269 27.0919 88.7093C27.1706 88.5917 27.2126 88.4535 27.2126 88.312C27.2126 88.1232 27.1379 87.942 27.0047 87.8082C26.8716 87.6743 26.6908 87.5986 26.502 87.5976Z" fill="#EBEBEB"/>
<path d="M34.2312 142.58H33.8512V119.366L23.6938 105.503V98.6974H24.0738V105.378L34.2312 119.244V142.58Z" fill="#EBEBEB"/>
<path d="M23.8915 98.9026C23.6749 98.9026 23.4632 98.8383 23.2831 98.7179C23.103 98.5975 22.9628 98.4263 22.8801 98.2261C22.7973 98.0259 22.7759 97.8057 22.8184 97.5933C22.861 97.3809 22.9656 97.1859 23.119 97.033C23.2724 96.8801 23.4678 96.7762 23.6803 96.7344C23.8929 96.6926 24.1131 96.7148 24.313 96.7982C24.5129 96.8816 24.6835 97.0225 24.8033 97.203C24.9231 97.3834 24.9867 97.5954 24.9859 97.812C24.9849 98.1016 24.8692 98.379 24.664 98.5834C24.4589 98.7878 24.1811 98.9026 23.8915 98.9026ZM23.8915 97.0976C23.7502 97.0976 23.6121 97.1395 23.4946 97.218C23.3771 97.2965 23.2856 97.4081 23.2315 97.5386C23.1774 97.6692 23.1633 97.8128 23.1908 97.9514C23.2184 98.09 23.2864 98.2173 23.3864 98.3172C23.4863 98.4171 23.6136 98.4851 23.7521 98.5127C23.8907 98.5402 24.0344 98.5261 24.1649 98.472C24.2954 98.418 24.407 98.3264 24.4855 98.2089C24.564 98.0914 24.6059 97.9533 24.6059 97.812C24.6059 97.6225 24.5306 97.4408 24.3967 97.3069C24.2627 97.1729 24.081 97.0976 23.8915 97.0976Z" fill="#EBEBEB"/>
<path d="M39.3688 102.144H38.9888V142.58H39.3688V102.144Z" fill="#EBEBEB"/>
<path d="M39.1789 102.334C38.9623 102.334 38.7505 102.27 38.5705 102.149C38.3904 102.029 38.2501 101.858 38.1674 101.658C38.0847 101.457 38.0632 101.237 38.1058 101.025C38.1483 100.812 38.2529 100.617 38.4064 100.464C38.5598 100.312 38.7552 100.208 38.9677 100.166C39.1802 100.124 39.4004 100.146 39.6003 100.23C39.8002 100.313 39.9709 100.454 40.0907 100.634C40.2105 100.815 40.274 101.027 40.2733 101.243C40.2723 101.533 40.1565 101.81 39.9514 102.015C39.7463 102.219 39.4685 102.334 39.1789 102.334ZM39.1789 100.529C39.0376 100.529 38.8995 100.571 38.782 100.649C38.6645 100.728 38.5729 100.839 38.5188 100.97C38.4648 101.101 38.4506 101.244 38.4782 101.383C38.5058 101.521 38.5738 101.649 38.6737 101.749C38.7736 101.848 38.9009 101.917 39.0395 101.944C39.1781 101.972 39.3217 101.957 39.4523 101.903C39.5828 101.849 39.6944 101.758 39.7729 101.64C39.8514 101.523 39.8933 101.385 39.8933 101.243C39.8933 101.054 39.818 100.872 39.684 100.738C39.55 100.604 39.3683 100.529 39.1789 100.529Z" fill="#EBEBEB"/>
<path d="M41.797 142.58H41.417V121.798L41.436 121.752L48.3102 108.79V85.519H48.6902V108.881L48.6712 108.923L41.797 121.889V142.58Z" fill="#EBEBEB"/>
<path d="M48.5002 85.709C48.2837 85.709 48.0721 85.6448 47.8921 85.5246C47.7122 85.4043 47.5719 85.2334 47.4891 85.0334C47.4062 84.8334 47.3846 84.6134 47.4268 84.4011C47.469 84.1888 47.5732 83.9938 47.7263 83.8407C47.8794 83.6877 48.0744 83.5835 48.2867 83.5412C48.4989 83.499 48.719 83.5207 48.919 83.6035C49.1189 83.6863 49.2899 83.8266 49.4101 84.0066C49.5304 84.1866 49.5946 84.3982 49.5946 84.6146C49.5946 84.9049 49.4793 85.1832 49.274 85.3885C49.0688 85.5937 48.7904 85.709 48.5002 85.709ZM48.5002 83.904C48.3587 83.904 48.2204 83.946 48.1029 84.0247C47.9853 84.1033 47.8937 84.2151 47.8398 84.3459C47.7858 84.4767 47.7719 84.6205 47.7998 84.7592C47.8277 84.8979 47.8961 85.0251 47.9964 85.1249C48.0967 85.2247 48.2243 85.2924 48.3631 85.3195C48.502 85.3467 48.6457 85.332 48.7762 85.2773C48.9067 85.2227 49.018 85.1305 49.096 85.0125C49.1741 84.8945 49.2153 84.7561 49.2146 84.6146C49.2146 84.521 49.1961 84.4283 49.1601 84.3418C49.1242 84.2553 49.0715 84.1768 49.0051 84.1108C48.9387 84.0447 48.8599 83.9925 48.7733 83.957C48.6866 83.9215 48.5938 83.9035 48.5002 83.904Z" fill="#EBEBEB"/>
<path d="M44.2101 142.58H43.8301V123.185L43.8529 123.139L51.9583 108.802V93.4952H52.3383V108.904L52.3117 108.946L44.2101 123.283V142.58Z" fill="#EBEBEB"/>
<path d="M52.1482 93.6852C51.9315 93.6859 51.7194 93.6223 51.5388 93.5023C51.3582 93.3824 51.2174 93.2115 51.1341 93.0114C51.0508 92.8112 51.0288 92.5909 51.0709 92.3782C51.113 92.1656 51.2173 91.9702 51.3706 91.8169C51.5239 91.6637 51.7192 91.5593 51.9319 91.5172C52.1445 91.4751 52.3649 91.4971 52.565 91.5804C52.7651 91.6637 52.936 91.8046 53.056 91.9852C53.1759 92.1657 53.2396 92.3778 53.2388 92.5946C53.2378 92.8835 53.1226 93.1603 52.9183 93.3647C52.714 93.569 52.4372 93.6842 52.1482 93.6852ZM52.1482 91.8802C52.0068 91.8794 51.8683 91.9207 51.7503 91.9987C51.6323 92.0768 51.5402 92.1881 51.4855 92.3186C51.4309 92.449 51.4162 92.5928 51.4433 92.7316C51.4704 92.8704 51.5382 92.9981 51.6379 93.0984C51.7377 93.1987 51.865 93.2671 52.0037 93.295C52.1423 93.3228 52.2862 93.3089 52.4169 93.255C52.5477 93.201 52.6595 93.1094 52.7382 92.9919C52.8168 92.8743 52.8588 92.736 52.8588 92.5946C52.8588 92.4058 52.7841 92.2246 52.6509 92.0908C52.5178 91.9569 52.3371 91.8812 52.1482 91.8802Z" fill="#EBEBEB"/>
<path d="M261.011 48.545L263.671 44.27L262.364 43.4606C262.174 43.3422 262.02 43.1724 261.922 42.9707C261.824 42.769 261.785 42.5436 261.809 42.3206C261.83 42.0673 261.837 41.8139 261.832 41.5606C261.825 41.34 261.88 41.1219 261.99 40.9307C262.1 40.7394 262.261 40.5825 262.455 40.4776L263.812 39.748L261.391 35.34L260.035 36.0696C259.839 36.1725 259.619 36.2192 259.398 36.2045C259.177 36.1897 258.965 36.1141 258.785 35.986C258.579 35.8454 258.367 35.7124 258.146 35.606C257.951 35.5021 257.788 35.3457 257.677 35.1543C257.565 34.963 257.509 34.7443 257.515 34.523L257.565 32.9802L252.537 32.8244L252.488 34.371C252.48 34.5923 252.41 34.807 252.286 34.9909C252.163 35.1748 251.99 35.3207 251.789 35.4122C251.675 35.4654 251.565 35.5186 251.458 35.5794C251.352 35.6402 251.242 35.6972 251.135 35.7618C250.947 35.8774 250.731 35.9386 250.51 35.9386C250.289 35.9386 250.073 35.8774 249.885 35.7618L248.566 34.9448L245.906 39.2198L247.217 40.0368C247.408 40.1548 247.562 40.3246 247.66 40.5264C247.758 40.7282 247.797 40.9538 247.772 41.1768C247.751 41.4295 247.743 41.6832 247.749 41.9368C247.755 42.1582 247.7 42.3768 247.589 42.5686C247.478 42.7604 247.317 42.9179 247.122 43.0236L245.789 43.7L248.167 48.1346L249.524 47.4088C249.719 47.3053 249.94 47.258 250.16 47.2721C250.381 47.2862 250.593 47.3611 250.774 47.4886C250.98 47.6267 251.193 47.7535 251.413 47.8686C251.608 47.9725 251.771 48.1289 251.882 48.3203C251.994 48.5116 252.049 48.7303 252.043 48.9516L251.998 50.4944L257.025 50.6502L257.075 49.1074C257.083 48.8865 257.153 48.6723 257.276 48.489C257.4 48.3057 257.572 48.1605 257.774 48.07L258.104 47.9028L258.427 47.7166C258.616 47.6011 258.833 47.5399 259.054 47.5399C259.276 47.5399 259.493 47.6011 259.681 47.7166L261.011 48.545ZM256.755 45.372C256.037 45.757 255.22 45.9202 254.408 45.841C253.597 45.7619 252.827 45.4438 252.196 44.9271C251.565 44.4104 251.102 43.7183 250.864 42.9382C250.627 42.1582 250.626 41.3252 250.862 40.5447C251.098 39.7641 251.56 39.0711 252.19 38.5531C252.819 38.0352 253.589 37.7156 254.4 37.6348C255.211 37.554 256.029 37.7156 256.748 38.0992C257.468 38.4828 258.057 39.0711 258.443 39.7898C258.698 40.2682 258.856 40.7923 258.908 41.332C258.961 41.8716 258.906 42.4163 258.747 42.9348C258.589 43.4533 258.33 43.9355 257.985 44.3537C257.64 44.7719 257.215 45.1179 256.736 45.372H256.755Z" fill="#EBEBEB"/>
<path d="M29.6598 86.5488L32.6998 84.7856L32.1602 83.8508C32.0829 83.7162 32.0448 83.5627 32.0502 83.4076C32.0556 83.2525 32.1042 83.1019 32.1906 82.973C32.2869 82.8261 32.3743 82.6741 32.4528 82.517C32.5233 82.3763 32.632 82.2582 32.7664 82.1762C32.9007 82.0943 33.0554 82.0517 33.2128 82.0534H34.292V78.527H33.2128C33.0554 78.5287 32.9007 78.4862 32.7664 78.4042C32.632 78.3222 32.5233 78.2041 32.4528 78.0634C32.3743 77.9063 32.2869 77.7543 32.1906 77.6074C32.1042 77.4785 32.0556 77.328 32.0502 77.1728C32.0448 77.0177 32.0829 76.8642 32.1602 76.7296L32.6998 75.7948L29.6598 74.0316L29.1202 74.9702C29.0439 75.1022 28.9324 75.2104 28.7983 75.2829C28.6641 75.3553 28.5125 75.3892 28.3602 75.3806H27.8244C27.6727 75.3887 27.5217 75.355 27.3877 75.2834C27.2537 75.2117 27.1419 75.1047 27.0644 74.974L26.521 74.0316L23.481 75.7948L24.0206 76.7334C24.0979 76.868 24.136 77.0215 24.1307 77.1767C24.1253 77.3318 24.0767 77.4823 23.9902 77.6112C23.8947 77.7571 23.8072 77.9081 23.728 78.0634C23.6575 78.2041 23.5489 78.3222 23.4145 78.4042C23.2801 78.4862 23.1254 78.5287 22.968 78.527H21.8774V82.0534H22.9566C23.114 82.0517 23.2687 82.0943 23.4031 82.1762C23.5375 82.2582 23.6461 82.3763 23.7166 82.517C23.7958 82.6724 23.8833 82.8233 23.9788 82.9692C24.0652 83.0989 24.1137 83.25 24.1191 83.4057C24.1245 83.5614 24.0864 83.7155 24.0092 83.8508L23.4696 84.7856L26.5096 86.5488L27.053 85.6102C27.1304 85.4791 27.242 85.3716 27.3759 85.2993C27.5099 85.2269 27.661 85.1926 27.813 85.1998C27.8966 85.1998 27.984 85.1998 28.0714 85.1998C28.1588 85.1998 28.2462 85.1998 28.3336 85.1998C28.4856 85.193 28.6366 85.2275 28.7704 85.2998C28.9043 85.3721 29.016 85.4794 29.0936 85.6102L29.6598 86.5488ZM28.0714 83.1782C27.5004 83.1775 26.9424 83.0074 26.468 82.6897C25.9936 82.3719 25.624 81.9205 25.406 81.3928C25.188 80.865 25.1313 80.2844 25.2432 79.7245C25.3551 79.1645 25.6304 78.6503 26.0345 78.2467C26.4385 77.8432 26.9531 77.5686 27.5132 77.4574C28.0733 77.3463 28.6538 77.4037 29.1813 77.6224C29.7088 77.8411 30.1596 78.2113 30.4768 78.6861C30.794 79.161 30.9632 79.7192 30.9632 80.2902C30.9637 80.6699 30.8893 81.046 30.7441 81.3969C30.5989 81.7477 30.3858 82.0665 30.1171 82.3348C29.8485 82.6031 29.5294 82.8158 29.1784 82.9605C28.8273 83.1052 28.4512 83.1792 28.0714 83.1782Z" fill="#EBEBEB"/>
<path d="M245.462 51.6382L243.702 48.5982L242.771 49.1264C242.636 49.2036 242.482 49.2417 242.326 49.2363C242.171 49.2309 242.02 49.1824 241.89 49.096C241.743 48.9997 241.591 48.9122 241.434 48.8338C241.293 48.7633 241.175 48.6547 241.093 48.5203C241.011 48.3859 240.969 48.2312 240.97 48.0738V46.9946H237.451V48.0738C237.453 48.2312 237.411 48.3859 237.329 48.5203C237.247 48.6547 237.129 48.7633 236.988 48.8338C236.83 48.9129 236.677 49.0005 236.528 49.096C236.399 49.1824 236.249 49.2311 236.093 49.2365C235.938 49.2418 235.785 49.2037 235.65 49.1264L234.715 48.5868L232.956 51.6268L233.895 52.1664C234.028 52.2462 234.137 52.3611 234.209 52.4984C234.281 52.6358 234.315 52.7904 234.305 52.9454C234.305 53.0328 234.305 53.1202 234.305 53.2038C234.305 53.2874 234.305 53.3786 234.305 53.466C234.313 53.6181 234.279 53.7694 234.206 53.9034C234.134 54.0375 234.026 54.149 233.895 54.226L232.956 54.7694L234.715 57.8094L235.654 57.2698C235.789 57.1925 235.942 57.1544 236.097 57.1598C236.252 57.1652 236.403 57.2138 236.532 57.3002C236.681 57.3965 236.833 57.4839 236.988 57.5624C237.129 57.6329 237.247 57.7416 237.329 57.8759C237.411 58.0103 237.453 58.165 237.451 58.3224V59.4016H240.974V58.3224C240.972 58.165 241.015 58.0103 241.097 57.8759C241.179 57.7416 241.297 57.6329 241.438 57.5624C241.595 57.4814 241.747 57.394 241.894 57.3002C242.023 57.2138 242.173 57.1652 242.328 57.1598C242.483 57.1544 242.637 57.1925 242.771 57.2698L243.71 57.8094L245.469 54.7694L244.531 54.2298C244.4 54.152 244.294 54.0402 244.222 53.9063C244.15 53.7724 244.117 53.6215 244.124 53.4698C244.124 53.3824 244.124 53.295 244.124 53.2076C244.124 53.1202 244.124 53.0366 244.124 52.9492C244.114 52.7942 244.147 52.6394 244.22 52.5019C244.292 52.3645 244.401 52.2497 244.535 52.1702L245.462 51.6382ZM242.091 53.2C242.091 53.7714 241.922 54.3299 241.604 54.8049C241.287 55.2799 240.835 55.6501 240.308 55.8686C239.78 56.087 239.199 56.144 238.638 56.0323C238.078 55.9205 237.564 55.6451 237.16 55.2408C236.756 54.8365 236.481 54.3216 236.37 53.7611C236.259 53.2007 236.317 52.6199 236.536 52.0922C236.755 51.5646 237.126 51.1138 237.602 50.7969C238.077 50.48 238.636 50.3113 239.207 50.312C239.586 50.312 239.961 50.3868 240.312 50.5319C240.662 50.6771 240.98 50.8899 241.248 51.1581C241.516 51.4264 241.728 51.7448 241.873 52.0951C242.018 52.4455 242.092 52.821 242.091 53.2Z" fill="#EBEBEB"/>
<path d="M37.7616 113.647C35.3334 108.657 31.085 106.096 26.297 107.513C21.509 108.931 20.768 115.604 24.34 117.291C27.912 118.978 31.4916 114.053 33.3916 113.042C35.2916 112.032 37.7616 113.647 37.7616 113.647Z" fill="#FFC727"/>
<path d="M40.1101 126.92C40.1101 126.32 40.0759 125.715 40.0531 125.115C40.0126 123.914 39.9695 122.713 39.9239 121.513C39.8517 119.32 39.6085 117.169 38.7117 115.14C37.9083 113.304 36.5658 111.756 34.8623 110.702C34.2267 110.314 33.5398 110.017 32.8217 109.82C32.1773 109.166 31.3558 108.714 30.4581 108.52C29.3494 108.295 28.2098 108.267 27.0913 108.437C27.0846 108.439 27.0788 108.443 27.0747 108.449C27.0705 108.455 27.0683 108.462 27.0683 108.469C27.0683 108.476 27.0705 108.483 27.0747 108.489C27.0788 108.495 27.0846 108.499 27.0913 108.501C28.1571 108.363 29.2399 108.439 30.2757 108.726C30.7198 108.849 31.1501 109.017 31.5601 109.227C31.8249 109.365 32.0789 109.523 32.3201 109.698C31.001 109.406 29.6236 109.533 28.3795 110.059C28.1175 110.003 27.8493 109.98 27.5815 109.991C27.2313 110.002 26.8834 110.052 26.5441 110.139C25.8514 110.335 25.189 110.625 24.5757 111.002C24.5415 111.021 24.5757 111.074 24.6099 111.055C25.2129 110.725 25.8587 110.481 26.5289 110.329C26.8542 110.257 27.1844 110.208 27.5169 110.185C27.702 110.18 27.8871 110.185 28.0717 110.2C26.7087 110.831 25.6129 111.924 24.9785 113.286C24.9785 113.324 25.0165 113.354 25.0317 113.316C25.4094 112.527 25.9602 111.832 26.6431 111.285C27.3259 110.738 28.1234 110.351 28.9761 110.154C29.0825 110.128 29.1889 110.113 29.2991 110.094C29.2604 110.254 29.2312 110.416 29.2117 110.58C29.1813 110.823 29.1395 111.063 29.0901 111.302C28.9938 111.797 28.8669 112.286 28.7101 112.765C28.5472 113.248 28.353 113.721 28.1287 114.179C27.9142 114.665 27.6425 115.124 27.3193 115.547C27.2889 115.581 27.3459 115.623 27.3687 115.585C27.6575 115.132 27.9919 114.718 28.2541 114.251C28.509 113.805 28.7288 113.34 28.9115 112.86C29.0948 112.375 29.2371 111.875 29.3371 111.367C29.3903 111.097 29.4321 110.827 29.4625 110.553C29.4953 110.391 29.5055 110.225 29.4929 110.059C30.0563 109.973 30.6286 109.96 31.1953 110.021C30.9825 111.215 30.7545 112.453 30.0857 113.487C30.0629 113.521 30.1237 113.555 30.1427 113.517C30.4542 112.969 30.7285 112.4 30.9635 111.815C31.1849 111.248 31.3231 110.651 31.3739 110.044C32.3629 110.175 33.3176 110.495 34.1859 110.987C35.8211 111.938 37.127 113.366 37.9289 115.079C38.7711 116.925 39.2423 118.919 39.3159 120.946C39.4755 123.5 39.5097 126.065 39.7643 128.607C39.7643 128.774 40.0417 128.831 40.0759 128.641C40.1415 128.07 40.153 127.494 40.1101 126.92Z" fill="#263238"/>
<path d="M34.5012 110.306C34.3398 110.113 34.1532 109.941 33.9464 109.797C33.7488 109.634 33.5436 109.474 33.3308 109.33C32.9112 109.037 32.4447 108.817 31.9514 108.68C31.9134 108.68 31.8982 108.733 31.9514 108.741C32.4445 108.875 32.9031 109.114 33.2966 109.44C33.5018 109.588 33.6766 109.748 33.8856 109.915C34.0538 110.092 34.2412 110.25 34.4442 110.386C34.4548 110.394 34.468 110.397 34.4808 110.395C34.4936 110.393 34.5051 110.385 34.5126 110.375C34.5202 110.364 34.5232 110.351 34.5211 110.338C34.519 110.325 34.5118 110.314 34.5012 110.306Z" fill="#263238"/>
<path d="M26.7531 112.1C26.3508 112.567 25.9789 113.06 25.6397 113.574C25.3059 114.091 25.0282 114.641 24.8113 115.216C24.8113 115.235 24.8113 115.243 24.8379 115.216C25.3931 114.129 26.0496 113.098 26.7987 112.134C26.8253 112.13 26.7759 112.1 26.7531 112.1Z" fill="#263238"/>
<path d="M31.9743 111.621C31.9232 111.933 31.8312 112.237 31.7007 112.526C31.5669 112.803 31.4119 113.07 31.2371 113.324C31.2371 113.324 31.2371 113.358 31.2675 113.346C31.684 112.864 31.9484 112.269 32.0275 111.636C32.0427 111.598 31.9819 111.583 31.9743 111.621Z" fill="#263238"/>
<path d="M39.7717 113.772C39.7717 113.772 43.1917 109.451 49.8455 110.983C56.1497 112.438 59.0605 124.002 52.6879 125.385C46.3153 126.768 47.4401 116.067 45.1183 114.251C43.4121 112.921 40.9611 113.206 39.7717 113.772Z" fill="#FFC727"/>
<path d="M54.968 117.298C54.5366 116.918 54.0795 116.567 53.6 116.25C53.1514 115.94 52.6614 115.696 52.1446 115.524C51.8862 115.13 51.5965 114.758 51.2782 114.41C50.6945 113.781 50.0194 113.243 49.2756 112.814H49.4732C49.8238 112.795 50.1752 112.795 50.5258 112.814C51.2337 112.859 51.9276 113.031 52.574 113.324C52.612 113.324 52.6386 113.282 52.6006 113.267C51.9447 112.984 51.2588 112.778 50.5562 112.651C50.2137 112.59 49.8666 112.56 49.5188 112.56C49.3326 112.56 49.1388 112.56 48.964 112.594H48.8576C48.2528 112.289 47.6154 112.053 46.9576 111.891L47.1438 111.842C47.4687 111.77 47.7973 111.715 48.128 111.678C48.7883 111.608 49.4548 111.623 50.1116 111.72C50.1534 111.72 50.1648 111.663 50.1116 111.659C49.4459 111.579 48.775 111.553 48.1052 111.579C47.5431 111.593 46.984 111.666 46.437 111.796C46.0377 111.722 45.634 111.676 45.2286 111.655C42.9144 111.56 40.3912 112.415 38.9662 114.315C37.5412 116.215 37.2638 118.758 37.013 121.057C36.6243 124.255 36.5391 127.483 36.7584 130.697C36.7584 130.887 37.0396 130.853 37.0472 130.674C37.1346 127.946 37.2296 125.221 37.4918 122.504C37.6096 121.243 37.7464 119.981 37.9554 118.735C38.1072 117.662 38.4145 116.618 38.8674 115.634C39.3589 114.626 40.1394 113.787 41.1094 113.225C42.081 112.67 43.1632 112.336 44.2786 112.248C45.2804 112.166 46.289 112.261 47.2578 112.529C47.2275 112.723 47.2275 112.921 47.2578 113.115C47.2809 113.361 47.3293 113.604 47.4022 113.84C47.4757 114.062 47.5685 114.277 47.6796 114.483C47.805 114.711 47.957 114.916 48.0976 115.132C48.0976 115.167 48.1736 115.132 48.147 115.094C47.8746 114.706 47.6988 114.257 47.634 113.787C47.592 113.564 47.5653 113.338 47.5542 113.111C47.5542 112.94 47.5542 112.769 47.5542 112.598C48.6073 112.918 49.5908 113.434 50.4536 114.118C50.6132 114.247 50.769 114.384 50.921 114.524C50.7015 114.725 50.512 114.957 50.3586 115.212C50.1168 115.548 49.9069 115.905 49.7316 116.28C49.4244 117.018 49.2174 117.794 49.116 118.587C49.1183 118.593 49.1227 118.599 49.1284 118.603C49.1342 118.607 49.1412 118.61 49.1483 118.61C49.1554 118.61 49.1623 118.607 49.1681 118.603C49.1739 118.599 49.1782 118.593 49.1806 118.587C49.3052 117.82 49.5624 117.08 49.9406 116.402C50.1169 116.066 50.3136 115.741 50.5296 115.429C50.6436 115.269 50.7576 115.11 50.8792 114.958C50.9438 114.878 51.016 114.794 51.0768 114.703C51.857 115.471 52.494 116.371 52.9578 117.363C52.6429 117.694 52.3802 118.07 52.1788 118.48C51.9402 118.908 51.7332 119.352 51.5594 119.81C51.2373 120.693 50.972 121.595 50.7652 122.512C50.7675 122.519 50.7719 122.525 50.7776 122.529C50.7834 122.533 50.7904 122.535 50.7975 122.535C50.8046 122.535 50.8115 122.533 50.8173 122.529C50.8231 122.525 50.8274 122.519 50.8298 122.512C51.0324 121.59 51.3476 120.697 51.7684 119.852C51.966 119.438 52.1788 119.027 52.3992 118.625C52.6277 118.25 52.8358 117.863 53.0224 117.466C53.465 118.433 53.7228 119.474 53.7824 120.536C53.7824 120.578 53.847 120.574 53.847 120.536C53.7245 118.869 53.2144 117.255 52.3574 115.82C52.7602 115.991 53.1668 116.158 53.5582 116.367C54.056 116.633 54.5192 116.958 54.9376 117.336C54.9566 117.374 54.9984 117.325 54.968 117.298Z" fill="#263238"/>
<path d="M54.2917 115.919C54.0304 115.667 53.7334 115.454 53.4101 115.288C53.0825 115.141 52.7431 115.022 52.3955 114.931C52.3575 114.931 52.3423 114.984 52.3955 114.992C52.7375 115.082 53.0659 115.218 53.3721 115.395C53.687 115.557 53.9893 115.742 54.2765 115.949C54.2917 115.965 54.3259 115.934 54.2917 115.919Z" fill="#263238"/>
<path d="M43.0398 108C43.0398 108 43.6744 100.24 49.4428 97.7398C54.2612 95.6384 57.02 101.053 53.6228 104.367C50.8716 107.035 46.4408 105.822 43.0398 108Z" fill="#FFC727"/>
<path d="M52.5474 99.2256C51.6695 99.5807 50.813 99.9867 49.9824 100.442C49.2901 100.84 48.6238 101.281 47.9874 101.764C48.0824 101.57 48.166 101.361 48.2648 101.171C48.4133 100.87 48.5769 100.578 48.755 100.293C49.1086 99.7062 49.5351 99.1661 50.0242 98.686C50.0546 98.6556 50.0242 98.6138 49.9786 98.6404C49.4925 99.1237 49.0452 99.6447 48.641 100.198C48.4413 100.48 48.2586 100.773 48.0938 101.076C47.9249 101.354 47.7969 101.655 47.7138 101.969C47.691 101.988 47.6682 102 47.6492 102.019C46.6421 102.821 45.7191 103.724 44.8942 104.713C44.8942 104.637 44.9246 104.561 44.9436 104.492C45.0538 104.112 45.1716 103.732 45.2932 103.352C45.54 102.55 45.8913 101.783 46.3382 101.072C46.361 101.038 46.304 101.008 46.2812 101.042C45.8274 101.749 45.4236 102.487 45.0728 103.25C44.9201 103.621 44.7932 104.002 44.6928 104.39C44.6108 104.644 44.5485 104.905 44.5066 105.169C44.2558 105.488 44.0088 105.811 43.7732 106.142C41.2994 109.668 40.053 113.932 39.7566 118.199C39.6686 119.473 39.647 120.75 39.692 122.026C39.7 123.311 39.8131 124.593 40.0302 125.86C40.0302 125.94 40.1708 125.917 40.1708 125.837C40.1404 124.716 40.0264 123.599 40.0036 122.478C39.9808 121.357 40.0036 120.228 40.11 119.107C40.2921 116.867 40.7151 114.653 41.3716 112.503C42.0422 110.303 43.0305 108.212 44.3052 106.297C44.5484 106.248 44.7878 106.183 45.0272 106.119C45.2666 106.054 45.6048 105.971 45.8898 105.891C46.4445 105.75 46.9831 105.553 47.4972 105.302C47.5007 105.3 47.5038 105.297 47.5062 105.294C47.5087 105.291 47.5105 105.287 47.5116 105.283C47.5126 105.279 47.5129 105.275 47.5124 105.271C47.5119 105.267 47.5106 105.263 47.5086 105.26C47.5066 105.256 47.5039 105.253 47.5008 105.251C47.4976 105.248 47.4939 105.247 47.4901 105.246C47.4862 105.245 47.4821 105.244 47.4781 105.245C47.4741 105.245 47.4703 105.247 47.4668 105.249C46.9567 105.525 46.4047 105.715 45.8328 105.811C45.3844 105.902 44.9132 105.959 44.461 106.062C44.879 105.454 45.3236 104.865 45.8024 104.299C46.9027 104.399 48.012 104.317 49.0856 104.055C49.6562 103.917 50.2172 103.742 50.7652 103.531C51.3428 103.311 51.9052 103.022 52.46 102.771C52.5056 102.752 52.46 102.687 52.4372 102.71C51.4038 103.274 50.2754 103.644 49.1084 103.801C48.0789 103.964 47.0386 104.051 45.9962 104.059C46.4066 103.588 46.8284 103.128 47.2806 102.699C48.8006 101.255 50.5942 99.9286 52.6006 99.237C52.6044 99.275 52.5854 99.2104 52.5474 99.2256Z" fill="#263238"/>
<path d="M47.8505 99.2522C47.5904 99.5794 47.3542 99.9248 47.1437 100.286C46.929 100.667 46.7582 101.071 46.6345 101.49H46.6573C46.8511 101.11 47.0145 100.73 47.2083 100.35C47.3999 99.9775 47.6305 99.626 47.8961 99.3016C47.9227 99.2636 47.8771 99.218 47.8505 99.2522Z" fill="#263238"/>
<path d="M38.5519 106.605C38.5177 106.94 37.6817 103.786 32.8025 100.989C28.3717 98.4466 23.0821 91.8308 27.4255 87.6546C30.9329 84.284 40.1707 91.6332 38.5519 106.605Z" fill="#FFC727"/>
<path d="M41.9114 124.682C41.8443 121.4 41.5906 118.124 41.1514 114.87C40.7667 111.882 40.0765 108.94 39.0918 106.092C38.7118 105.066 38.3318 104.055 37.8644 103.052C37.8949 102.665 37.8949 102.276 37.8644 101.889C37.8378 101.392 37.7922 100.898 37.7466 100.404C37.701 99.9096 37.6516 99.4118 37.5946 98.9178C37.5376 98.4238 37.4274 97.9298 37.4084 97.4358C37.4084 97.394 37.3362 97.4016 37.3476 97.4358C37.4439 97.954 37.5023 98.4785 37.5224 99.0052C37.5604 99.484 37.587 99.9628 37.6022 100.445C37.6174 100.928 37.6022 101.403 37.6022 101.886C37.6022 102.057 37.6022 102.243 37.6022 102.425C37.1424 101.456 36.6522 100.502 36.1202 99.5714C36.4508 97.5498 36.0214 95.437 35.6072 93.4572C35.6072 93.4192 35.5388 93.4382 35.5464 93.4762C35.749 94.5093 35.8571 95.5586 35.8694 96.6112C35.8694 97.4434 35.8466 98.2718 35.8466 99.104C35.7288 98.9026 35.611 98.705 35.4894 98.5074C34.8586 97.4738 34.1834 96.4605 33.464 95.4674C33.5229 94.9879 33.5075 94.5021 33.4184 94.0272C33.3371 93.4953 33.219 92.9696 33.065 92.454C32.9106 91.9387 32.7305 91.4313 32.5254 90.934C32.3126 90.421 32.0314 89.9346 31.8262 89.414C31.8262 89.3722 31.7464 89.414 31.7692 89.4406C32.0293 89.9228 32.2345 90.4327 32.381 90.9606C32.542 91.4595 32.6753 91.9669 32.78 92.4806C32.8826 92.9974 32.9662 93.5104 33.0384 94.031C33.0878 94.373 33.1182 94.7302 33.1752 95.076C32.1304 93.672 30.9876 92.3438 29.7552 91.1012C29.7286 91.0708 29.6868 91.1012 29.7134 91.1468C31.5653 93.2374 33.2191 95.4954 34.6534 97.8918C34.7066 97.983 34.7598 98.0742 34.8092 98.1654C34.5432 97.9982 34.2354 97.8614 33.9808 97.7208C33.5096 97.4586 33.0346 97.2002 32.5596 96.9608L31.1764 96.2008C30.9408 96.0678 30.7052 95.931 30.4658 95.8208C30.1728 95.6977 29.8906 95.5502 29.6222 95.38C29.588 95.3534 29.5462 95.4104 29.5842 95.4332C30.0554 95.6916 30.4696 96.0754 30.9256 96.3642C31.3816 96.653 31.8452 96.9342 32.3164 97.1964C33.1828 97.6828 34.1252 98.0286 34.9764 98.5302C35.5692 99.5676 36.1164 100.632 36.618 101.715C36.1012 101.38 35.5692 101.069 35.0334 100.765C34.6876 100.571 34.3418 100.385 33.9922 100.198C33.6437 100.036 33.3147 99.8347 33.0118 99.598C32.9814 99.5714 32.9396 99.598 32.9662 99.6436C33.5349 100.156 34.1656 100.595 34.8434 100.951C35.4704 101.331 36.1012 101.669 36.7434 101.988C37.2652 103.131 37.7352 104.295 38.1532 105.48C40.209 111.294 40.9614 117.466 41.3224 123.599C41.4326 125.427 41.4858 127.251 41.5086 129.082C41.5314 130.914 41.4364 132.738 41.4402 134.562C41.4402 134.619 41.5276 134.63 41.5352 134.562C41.7556 132.943 41.7936 131.294 41.8658 129.66C41.938 128.026 41.9494 126.342 41.9114 124.682Z" fill="#263238"/>
<path d="M33.0458 98.3592C32.1558 97.9645 31.2903 97.5166 30.4542 97.0178C29.6066 96.5407 28.7847 96.0194 27.9918 95.456C27.9918 95.456 27.9652 95.456 27.9918 95.4788C28.7401 96.0826 29.5285 96.6349 30.3516 97.1318C31.2102 97.617 32.0986 98.0472 33.0116 98.42C33.0534 98.42 33.0838 98.3744 33.0458 98.3592Z" fill="#263238"/>
<path d="M34.4594 91.7852C34.3872 91.5002 34.2998 91.2228 34.2048 90.9454C34.2074 90.9408 34.2088 90.9355 34.2088 90.9302C34.2088 90.9249 34.2074 90.9196 34.2048 90.915C34.144 90.7554 34.0794 90.5996 34.0148 90.4438L33.992 90.3868C33.992 90.3564 33.9654 90.3298 33.954 90.2994C33.9426 90.269 33.935 90.2994 33.954 90.2994C33.973 90.2994 33.9844 90.4058 34.0034 90.4628C34.0092 90.4924 34.0168 90.5215 34.0262 90.5502C34.3482 91.6341 34.5896 92.7404 34.7482 93.86C34.7482 93.8942 34.8052 93.8942 34.8052 93.86C34.7563 93.159 34.6405 92.4642 34.4594 91.7852Z" fill="#263238"/>
<path d="M47.0677 125.86L46.7181 129.987L45.6541 142.572H34.2351L33.1711 129.987L32.8215 125.86H47.0677Z" fill="#37474F"/>
<path d="M47.0677 125.86L46.7181 129.987H33.1711L32.8215 125.86H47.0677Z" fill="#263238"/>
<path d="M48.1887 124.207H31.7043V128.166H48.1887V124.207Z" fill="#37474F"/>
<path d="M19.6052 142.572L50.4118 142.481L81.2184 142.447L142.832 142.382L204.445 142.447L235.251 142.481L266.058 142.572L235.251 142.667L204.445 142.698L142.832 142.762L81.2184 142.698L50.4118 142.663L19.6052 142.572Z" fill="#263238"/>
<path d="M232.113 31.9504H52.9084V151.825H232.113V31.9504Z" fill="#EBEBEB"/>
<path d="M230.809 33.4134H54.2119V150.362H230.809V33.4134Z" fill="#263238"/>
<path d="M255.452 160.812H29.5688V169.039H255.452V160.812Z" fill="#DBDBDB"/>
<path d="M29.5688 160.812L52.9122 151.825H232.113L255.456 160.812H29.5688Z" fill="#EBEBEB"/>
<path d="M54.9946 157.624L70.0578 151.825H214.967L230.03 157.624H54.9946Z" fill="#263238"/>
<path d="M220.834 42.2978H64.1943V141.478H220.834V42.2978Z" fill="white"/>
<path d="M220.834 42.2978H64.0615V46.113H220.834V42.2978Z" fill="#455A64"/>
<path d="M67.0938 44.2054C67.0938 44.3925 67.0383 44.5754 66.9344 44.731C66.8304 44.8866 66.6826 45.0079 66.5097 45.0795C66.3368 45.1511 66.1466 45.1699 65.963 45.1334C65.7795 45.0969 65.6109 45.0068 65.4786 44.8744C65.3462 44.7421 65.2561 44.5735 65.2196 44.39C65.1831 44.2064 65.2018 44.0162 65.2734 43.8433C65.3451 43.6704 65.4663 43.5226 65.6219 43.4186C65.7775 43.3147 65.9605 43.2592 66.1476 43.2592C66.3986 43.2592 66.6392 43.3588 66.8167 43.5363C66.9941 43.7137 67.0938 43.9544 67.0938 44.2054Z" fill="#C7C7C7"/>
<path d="M70.9583 44.2054C70.9583 44.3925 70.9028 44.5754 70.7989 44.731C70.6949 44.8866 70.5471 45.0079 70.3742 45.0795C70.2013 45.1512 70.0111 45.1699 69.8275 45.1334C69.644 45.0969 69.4754 45.0068 69.3431 44.8744C69.2107 44.7421 69.1206 44.5735 69.0841 44.39C69.0476 44.2064 69.0663 44.0162 69.1379 43.8433C69.2096 43.6704 69.3308 43.5226 69.4864 43.4186C69.642 43.3147 69.825 43.2592 70.0121 43.2592C70.1365 43.2587 70.2598 43.2828 70.3748 43.3302C70.4898 43.3775 70.5943 43.4472 70.6823 43.5352C70.7703 43.6231 70.8399 43.7277 70.8873 43.8427C70.9347 43.9577 70.9588 44.081 70.9583 44.2054Z" fill="white"/>
<path d="M74.8116 44.2054C74.8116 44.3925 74.7561 44.5754 74.6521 44.731C74.5482 44.8866 74.4004 45.0079 74.2275 45.0795C74.0546 45.1512 73.8643 45.1699 73.6808 45.1334C73.4973 45.0969 73.3287 45.0068 73.1963 44.8744C73.064 44.7421 72.9739 44.5735 72.9374 44.39C72.9009 44.2064 72.9196 44.0162 72.9912 43.8433C73.0628 43.6704 73.1841 43.5226 73.3397 43.4186C73.4953 43.3147 73.6782 43.2592 73.8654 43.2592C73.9898 43.2587 74.1131 43.2828 74.2281 43.3302C74.3431 43.3775 74.4476 43.4472 74.5356 43.5352C74.6235 43.6231 74.6932 43.7277 74.7406 43.8427C74.788 43.9577 74.8121 44.081 74.8116 44.2054Z" fill="#FFC727"/>
<path d="M220.834 46.113H218.053V141.474H220.834V46.113Z" fill="#DBDBDB"/>
<path d="M219.44 79.173C219.249 79.173 219.066 79.0973 218.932 78.9626C218.797 78.8279 218.721 78.6452 218.721 78.4548V47.3898C218.721 47.1993 218.797 47.0166 218.932 46.8819C219.066 46.7472 219.249 46.6716 219.44 46.6716C219.63 46.6716 219.813 46.7472 219.947 46.8819C220.082 47.0166 220.158 47.1993 220.158 47.3898V78.4548C220.158 78.6452 220.082 78.8279 219.947 78.9626C219.813 79.0973 219.63 79.173 219.44 79.173Z" fill="#A6A6A6"/>
<path d="M198.912 70.8472H86.751V87.8484H198.912V70.8472Z" fill="white"/>
<path d="M199.102 88.0346H86.561V70.6572H199.102V88.0346ZM86.941 87.6546H198.722V71.0372H86.941V87.6546Z" fill="#DBDBDB"/>
<path d="M96.6539 75.4528C96.8721 76.0833 97.0212 76.7357 97.0985 77.3984C97.2631 78.6915 97.2631 80.0003 97.0985 81.2934C97.0194 81.9562 96.8691 82.6085 96.6501 83.239C96.4293 82.609 96.2789 81.9565 96.2017 81.2934C96.0395 80.0001 96.0395 78.6917 96.2017 77.3984C96.2834 76.7358 96.435 76.0836 96.6539 75.4528Z" fill="#37474F"/>
<path d="M100.545 79.344C99.9155 79.5682 99.2629 79.7212 98.5994 79.8C97.9541 79.8822 97.3043 79.9228 96.6538 79.9216C96.0033 79.9248 95.3533 79.8842 94.7082 79.8C94.0438 79.7232 93.39 79.5729 92.7588 79.3516C93.391 79.134 94.0444 78.9837 94.7082 78.9032C95.3534 78.821 96.0033 78.7804 96.6538 78.7816C97.3043 78.7837 97.954 78.8255 98.5994 78.907C99.2619 78.9815 99.9143 79.128 100.545 79.344Z" fill="#37474F"/>
<path d="M99.4051 76.5928C99.1135 77.193 98.7581 77.7599 98.3449 78.2838C97.9481 78.7992 97.5178 79.288 97.0567 79.7468C96.5971 80.2083 96.1085 80.6398 95.5937 81.0388C95.0685 81.452 94.5003 81.8075 93.8989 82.099C94.1905 81.4977 94.5459 80.9295 94.9591 80.4042C95.3581 79.8895 95.7897 79.4008 96.2511 78.9412C96.7117 78.4821 97.2003 78.0518 97.7141 77.653C98.2386 77.2407 98.8055 76.8853 99.4051 76.5928Z" fill="#37474F"/>
<path d="M99.4052 82.099C98.8055 81.8065 98.2387 81.4511 97.7142 81.0388C97.1994 80.6398 96.7108 80.2083 96.2512 79.7468C95.786 79.2872 95.3518 78.7972 94.9516 78.28C94.5384 77.7547 94.1829 77.1865 93.8914 76.5852C94.4934 76.8754 95.0618 77.231 95.5862 77.6454C96.6173 78.4422 97.542 79.3681 98.3374 80.4004C98.7536 80.9264 99.1116 81.4959 99.4052 82.099Z" fill="#37474F"/>
<path d="M111.831 75.4528C112.049 76.0833 112.198 76.7357 112.276 77.3984C112.357 78.0438 112.399 78.6935 112.401 79.344C112.402 79.9958 112.362 80.6469 112.28 81.2934C112.199 81.9559 112.048 82.608 111.831 83.239C111.61 82.609 111.46 81.9565 111.383 81.2934C111.299 80.6471 111.258 79.9958 111.261 79.344C111.26 78.6936 111.301 78.0437 111.383 77.3984C111.461 76.7356 111.612 76.0832 111.831 75.4528Z" fill="#37474F"/>
<path d="M115.722 79.344C115.092 79.5652 114.44 79.7156 113.777 79.7924C113.131 79.8744 112.481 79.915 111.831 79.914C111.179 79.917 110.528 79.8764 109.882 79.7924C109.219 79.7152 108.566 79.5648 107.936 79.344C108.567 79.1268 109.219 78.9765 109.882 78.8956C110.528 78.8135 111.179 78.7729 111.831 78.774C112.482 78.7761 113.131 78.818 113.777 78.8994C114.439 78.9767 115.092 79.1258 115.722 79.344Z" fill="#37474F"/>
<path d="M114.582 76.5928C114.291 77.193 113.935 77.7599 113.522 78.2838C113.125 78.7992 112.695 79.288 112.234 79.7468C111.774 80.2083 111.285 80.6398 110.771 81.0388C110.245 81.452 109.677 81.8075 109.076 82.099C109.368 81.4977 109.723 80.9295 110.136 80.4042C110.535 79.8895 110.967 79.4008 111.428 78.9412C111.887 78.4802 112.376 78.0499 112.891 77.653C113.415 77.2399 113.982 76.8844 114.582 76.5928Z" fill="#37474F"/>
<path d="M114.582 82.099C113.982 81.8074 113.415 81.4519 112.891 81.0388C112.375 80.6417 111.886 80.2101 111.428 79.7468C110.971 79.2865 110.544 78.7965 110.152 78.28C109.738 77.7547 109.383 77.1865 109.091 76.5852C109.693 76.8754 110.262 77.231 110.786 77.6454C111.817 78.4422 112.742 79.3681 113.537 80.4004C113.946 80.9274 114.296 81.4969 114.582 82.099Z" fill="#37474F"/>
<path d="M127.004 75.4528C127.226 76.0827 127.376 76.7353 127.453 77.3984C127.535 78.0437 127.575 78.6936 127.574 79.344C127.577 79.9958 127.537 80.6471 127.453 81.2934C127.375 81.9565 127.225 82.609 127.004 83.239C126.787 82.6084 126.637 81.9561 126.56 81.2934C126.476 80.647 126.434 79.9958 126.434 79.344C126.436 78.6935 126.478 78.0438 126.56 77.3984C126.637 76.7357 126.786 76.0833 127.004 75.4528Z" fill="#37474F"/>
<path d="M130.899 79.344C130.269 79.5648 129.617 79.7152 128.954 79.7924C128.307 79.8745 127.656 79.9152 127.004 79.914C126.354 79.9169 125.704 79.8763 125.059 79.7924C124.396 79.7156 123.743 79.5652 123.113 79.344C123.744 79.1264 124.396 78.9761 125.059 78.8956C125.704 78.8136 126.354 78.773 127.004 78.774C127.656 78.776 128.307 78.8179 128.954 78.8994C129.617 78.9771 130.269 79.1262 130.899 79.344Z" fill="#37474F"/>
<path d="M129.759 76.5928C129.468 77.193 129.112 77.7599 128.699 78.2838C128.302 78.7992 127.872 79.288 127.411 79.7468C126.951 80.2083 126.463 80.6398 125.948 81.0388C125.423 81.452 124.855 81.8075 124.253 82.099C124.543 81.497 124.899 80.9286 125.313 80.4042C125.712 79.8905 126.142 79.4019 126.602 78.9412C127.063 78.4811 127.553 78.0508 128.068 77.653C128.592 77.2399 129.159 76.8844 129.759 76.5928Z" fill="#37474F"/>
<path d="M129.759 82.099C129.159 81.8074 128.592 81.4519 128.068 81.0388C127.552 80.6408 127.062 80.2092 126.602 79.7468C126.141 79.2859 125.711 78.796 125.313 78.28C124.899 77.7556 124.543 77.1873 124.253 76.5852C124.855 76.8754 125.424 77.231 125.948 77.6454C126.979 78.4422 127.904 79.3681 128.699 80.4004C129.113 80.9267 129.468 81.4962 129.759 82.099Z" fill="#37474F"/>
<path d="M142.182 75.4528C142.401 76.0832 142.551 76.7356 142.63 77.3984C142.792 78.6917 142.792 80.0001 142.63 81.2934C142.553 81.9565 142.402 82.609 142.182 83.239C141.963 82.6085 141.812 81.9562 141.733 81.2934C141.651 80.6469 141.61 79.9958 141.612 79.344C141.614 78.6935 141.656 78.0438 141.737 77.3984C141.814 76.7357 141.963 76.0833 142.182 75.4528Z" fill="#37474F"/>
<path d="M146.077 79.344C145.447 79.5648 144.794 79.7152 144.131 79.7924C143.485 79.8745 142.833 79.9152 142.182 79.914C141.531 79.9169 140.881 79.8763 140.236 79.7924C139.573 79.7156 138.92 79.5652 138.291 79.344C138.921 79.1264 139.574 78.9761 140.236 78.8956C140.881 78.8136 141.531 78.773 142.182 78.774C142.833 78.776 143.485 78.8179 144.131 78.8994C144.794 78.9771 145.446 79.1262 146.077 79.344Z" fill="#37474F"/>
<path d="M144.937 76.5928C144.645 77.193 144.29 77.7599 143.876 78.2838C143.478 78.7993 143.047 79.288 142.584 79.7468C142.127 80.2101 141.638 80.6418 141.121 81.0388C140.597 81.452 140.031 81.8074 139.43 82.099C139.719 81.4961 140.075 80.9276 140.491 80.4042C140.888 79.8895 141.319 79.4009 141.779 78.9412C142.239 78.4821 142.728 78.0518 143.242 77.653C143.768 77.2407 144.336 76.8853 144.937 76.5928Z" fill="#37474F"/>
<path d="M144.937 82.099C144.336 81.8066 143.768 81.4512 143.242 81.0388C142.727 80.6398 142.238 80.2083 141.779 79.7468C141.318 79.2894 140.887 78.8019 140.491 78.2876C140.075 77.7642 139.719 77.1957 139.43 76.5928C140.031 76.883 140.598 77.2386 141.121 77.653C141.638 78.0488 142.127 78.4792 142.584 78.9412C143.046 79.4023 143.477 79.8922 143.876 80.408C144.29 80.932 144.645 81.4989 144.937 82.099Z" fill="#37474F"/>
<path d="M157.359 75.4528C157.576 76.0837 157.727 76.7359 157.807 77.3984C157.969 78.6917 157.969 80.0001 157.807 81.2934C157.73 81.9565 157.58 82.609 157.359 83.239C157.14 82.6085 156.989 81.9562 156.91 81.2934C156.746 80.0003 156.746 78.6915 156.91 77.3984C156.989 76.7356 157.139 76.0832 157.359 75.4528Z" fill="#37474F"/>
<path d="M161.254 79.344C160.623 79.5652 159.969 79.7156 159.304 79.7924C158.659 79.8747 158.009 79.9153 157.359 79.914C156.708 79.917 156.058 79.8764 155.413 79.7924C154.751 79.7157 154.1 79.5653 153.471 79.344C154.102 79.126 154.754 78.9757 155.417 78.8956C156.062 78.8135 156.712 78.7729 157.363 78.774C158.013 78.7759 158.663 78.8178 159.308 78.8994C159.971 78.977 160.623 79.1261 161.254 79.344Z" fill="#37474F"/>
<path d="M160.114 76.5928C159.822 77.1939 159.466 77.761 159.05 78.2838C158.252 79.3137 157.327 80.2393 156.299 81.0388C155.775 81.452 155.208 81.8074 154.608 82.099C154.896 81.4961 155.252 80.9276 155.668 80.4042C156.066 79.8895 156.496 79.4009 156.956 78.9412C157.417 78.4821 157.905 78.0518 158.419 77.653C158.944 77.2399 159.513 76.8844 160.114 76.5928Z" fill="#37474F"/>
<path d="M160.114 82.099C159.513 81.8075 158.944 81.452 158.419 81.0388C157.904 80.6398 157.416 80.2083 156.956 79.7468C156.495 79.2894 156.065 78.8019 155.668 78.2876C155.252 77.7642 154.896 77.1957 154.608 76.5928C155.209 76.883 155.776 77.2386 156.299 77.653C156.815 78.0488 157.304 78.4792 157.762 78.9412C158.223 79.4013 158.653 79.8913 159.05 80.408C159.466 80.9309 159.822 81.498 160.114 82.099Z" fill="#37474F"/>
<path d="M172.536 75.4528C172.754 76.0833 172.903 76.7357 172.981 77.3984C173.145 78.6915 173.145 80.0003 172.981 81.2934C172.901 81.9562 172.751 82.6085 172.532 83.239C172.311 82.609 172.161 81.9565 172.084 81.2934C171.922 80.0001 171.922 78.6917 172.084 77.3984C172.165 76.7358 172.317 76.0836 172.536 75.4528Z" fill="#37474F"/>
<path d="M176.427 79.344C175.798 79.5656 175.145 79.716 174.482 79.7924C173.836 79.8745 173.187 79.9152 172.536 79.914C171.886 79.9172 171.236 79.8766 170.591 79.7924C169.926 79.7156 169.272 79.5652 168.641 79.344C169.273 79.1264 169.927 78.9761 170.591 78.8956C171.236 78.8134 171.886 78.7728 172.536 78.774C173.187 78.776 173.836 78.8179 174.482 78.8994C175.144 78.9763 175.797 79.1254 176.427 79.344Z" fill="#37474F"/>
<path d="M175.287 76.5928C174.999 77.1945 174.643 77.7618 174.227 78.2838C173.831 78.8001 173.401 79.2889 172.939 79.7468C172.479 80.2083 171.991 80.6398 171.476 81.0388C170.951 81.4512 170.385 81.8066 169.785 82.099C170.074 81.497 170.428 80.9287 170.841 80.4042C171.641 79.3754 172.566 78.4511 173.596 77.653C174.121 77.2407 174.688 76.8853 175.287 76.5928Z" fill="#37474F"/>
<path d="M175.287 82.099C174.688 81.8066 174.121 81.4512 173.596 81.0388C172.569 80.238 171.644 79.3141 170.841 78.2876C170.428 77.7632 170.074 77.1948 169.785 76.5928C170.385 76.8839 170.952 77.2394 171.476 77.653C171.991 78.0507 172.479 78.481 172.939 78.9412C173.4 79.4013 173.83 79.8913 174.227 80.408C174.643 80.9301 174.999 81.4973 175.287 82.099Z" fill="#37474F"/>
<path d="M162.01 75.9088V96.6036H156.162V75.9088C156.162 68.039 150.185 61.6398 142.832 61.6398C135.479 61.6398 129.501 68.039 129.501 75.9088V96.6036H123.653V75.9088C123.653 64.638 132.256 55.48 142.832 55.48C153.407 55.48 162.01 64.638 162.01 75.9088Z" fill="#455A64"/>
<path d="M123.653 81.2896L129.501 81.5251V96.6036H123.653V81.2896Z" fill="#263238"/>
<path d="M162.01 82.8514V96.6036H156.162V82.612L162.01 82.8514Z" fill="#263238"/>
<path d="M169.508 84.8198H116.159V133.22H169.508V84.8198Z" fill="#FFC727"/>
<path opacity="0.1" d="M169.504 84.8198H142.832V133.22H169.504V84.8198Z" fill="black"/>
<path d="M145.089 110.793L147.319 121.383H137.842L140.077 110.793C139.203 110.248 138.53 109.434 138.16 108.473C137.791 107.513 137.744 106.458 138.027 105.468C138.31 104.478 138.908 103.607 139.73 102.988C140.552 102.368 141.553 102.033 142.583 102.033C143.612 102.033 144.614 102.368 145.436 102.988C146.258 103.607 146.855 104.478 147.139 105.468C147.422 106.458 147.375 107.513 147.005 108.473C146.635 109.434 145.963 110.248 145.089 110.793Z" fill="#263238"/>
<path d="M127.335 110.774C127.335 110.774 124.546 133.103 119.963 138.134C114.461 144.161 110.463 143.279 108.244 146.387C106.025 143.275 102.031 144.161 96.521 138.13C91.9382 133.103 89.1528 110.77 89.1528 110.77C101.229 104.91 108.252 98.3402 108.252 98.3402C108.461 98.5454 115.445 105.005 127.335 110.774Z" fill="#EBEBEB"/>
<path d="M108.252 98.344V146.384C106.033 143.271 102.039 144.157 96.5288 138.126C91.946 133.099 89.1606 110.766 89.1606 110.766C101.229 104.91 108.252 98.3402 108.252 98.3402V98.344Z" fill="#DBDBDB"/>
<path d="M124.375 112.575C124.375 112.575 122.019 131.434 118.147 135.683C113.492 140.782 110.117 140.034 108.24 142.66C106.363 140.034 102.989 140.782 98.3374 135.683C94.4652 131.434 92.113 112.575 92.113 112.575C102.316 107.635 108.24 102.068 108.24 102.068C108.24 102.068 114.172 107.62 124.375 112.575Z" fill="#DBDBDB"/>
<path d="M92.1169 112.575C92.1169 112.575 94.4729 131.434 98.3451 135.683C102.993 140.779 106.352 140.034 108.252 142.652V102.076C108.066 102.243 102.172 107.696 92.1169 112.575Z" fill="#C7C7C7"/>
<path d="M113.532 127.652C116.452 124.732 116.452 119.997 113.532 117.076C110.611 114.156 105.876 114.156 102.956 117.076C100.035 119.997 100.035 124.732 102.956 127.652C105.876 130.573 110.611 130.573 113.532 127.652Z" fill="#FFC727"/>
<path d="M107.393 127.224L104.06 123.758L105.295 122.569L107.131 124.48L111.09 118.408L112.527 119.343L107.393 127.224Z" fill="white"/>
<path d="M82.4446 148.182L83.3317 143.639L136.396 154.002C136.88 154.096 137.308 154.38 137.583 154.789C137.859 155.199 137.961 155.701 137.866 156.186L137.693 157.074C137.598 157.558 137.315 157.986 136.905 158.261C136.496 158.537 135.993 158.639 135.509 158.544L82.4446 148.182Z" fill="#FFC727"/>
<path opacity="0.1" d="M83.3278 143.634L82.4399 148.181L88.8473 149.432L89.7351 144.885L83.3278 143.634Z" fill="black"/>
<path d="M63.0316 137.841L61.4698 145.92C61.2056 147.274 61.2107 148.668 61.4849 150.02C61.7591 151.372 62.2969 152.657 63.0677 153.802C63.8386 154.946 64.8273 155.928 65.9774 156.69C67.1275 157.453 68.4166 157.981 69.7709 158.245C71.1253 158.51 72.5184 158.504 73.8708 158.23C75.2232 157.956 76.5083 157.418 77.6528 156.647C78.7973 155.877 79.7788 154.888 80.5412 153.738C81.3036 152.588 81.832 151.299 82.0962 149.944L83.6694 141.884C84.2056 139.148 83.6326 136.31 82.0766 133.996C80.5205 131.681 78.1089 130.08 75.3721 129.544C72.6354 129.008 69.7978 129.581 67.4835 131.137C65.1692 132.693 63.5678 135.104 63.0316 137.841ZM80.3558 139.859C79.8884 142.257 77.7946 143.986 75.2068 144.4C77.4488 145.764 78.7408 148.147 78.2696 150.545C77.6464 153.752 74.1086 155.766 70.3732 155.036C66.6378 154.307 64.126 151.111 64.753 147.907C65.2204 145.51 67.3142 143.781 69.9058 143.347C67.66 141.991 66.3718 139.601 66.8392 137.203C67.4662 133.992 70.9964 131.985 74.728 132.715C78.4596 133.445 80.998 136.652 80.371 139.859H80.3558Z" fill="#FFC727"/>
<path d="M83.7264 141.587L82.0389 150.228C81.948 150.694 82.2516 151.145 82.7171 151.236L83.1274 151.316C83.5929 151.407 84.044 151.103 84.1349 150.637L85.8224 141.996C85.9133 141.53 85.6096 141.079 85.1441 140.989L84.7339 140.908C84.2684 140.817 83.8173 141.121 83.7264 141.587Z" fill="#FFC727"/>
<path d="M85.8226 141.997L84.1351 150.638C84.0442 151.104 84.3478 151.555 84.8133 151.646L85.2236 151.726C85.6891 151.817 86.1402 151.513 86.2311 151.047L87.9186 142.406C88.0095 141.941 87.7058 141.489 87.2403 141.399L86.8301 141.318C86.3646 141.228 85.9135 141.531 85.8226 141.997Z" fill="#FFC727"/>
<path d="M123.714 149.576L125.295 149.883L126.188 145.293L127.54 145.555L127.073 147.949L128.65 148.257L129.117 145.863L130.314 146.095L129.573 149.88L131.154 150.191L131.895 146.406L133.59 146.737L132.606 151.791L134.187 152.099L135.175 147.045L136.778 147.36L135.517 153.82L121.396 151.061L122.654 144.601L124.607 144.981L123.714 149.576Z" fill="#FFC727"/>
<path d="M178.172 125.913L167.817 134.273C165.829 135.861 164.115 137.29 163.298 138.115C163.087 138.288 162.917 138.506 162.801 138.753C162.801 138.753 162.801 138.753 162.801 138.776C162.873 139.684 175.109 155.937 175.721 156.359C176.332 156.78 177.594 155.055 177.621 154.048C177.647 153.041 175.747 144.719 175.747 144.719L186.007 136.26L178.172 125.913Z" fill="#EE9E93"/>
<path d="M169.929 132.567L167.805 134.281C165.818 135.869 164.104 137.298 163.287 138.122C163.096 138.315 162.929 138.529 162.789 138.761C162.789 138.761 162.789 138.761 162.789 138.784C162.861 139.692 175.097 155.944 175.709 156.366C176.321 156.788 177.582 155.063 177.609 154.056C177.636 153.049 175.736 144.727 175.736 144.727L177.917 143.013L169.929 132.567Z" fill="#EBEBEB"/>
<path d="M175.698 156.378C175.078 155.956 162.846 139.707 162.778 138.791C162.744 138.445 165.008 136.511 167.809 134.284L167.9 134.212L175.892 144.609L175.713 144.738C175.713 144.738 177.613 153.053 177.586 154.067C177.56 155.082 176.313 156.803 175.698 156.378Z" fill="#FFC727"/>
<path d="M176.188 155.72C174.193 152.931 165.886 141.869 163.701 139.262C163.701 139.24 163.671 139.262 163.701 139.262C165.601 142.071 174.014 153.068 176.161 155.743C176.192 155.8 176.234 155.8 176.188 155.72Z" fill="#263238"/>
<path d="M176.355 145.643C175.743 144.415 174.588 143.218 173.197 142.983C173.144 142.983 173.133 143.047 173.171 143.078C174.277 143.853 175.296 144.745 176.211 145.738C176.225 145.753 176.244 145.763 176.265 145.766C176.285 145.769 176.306 145.764 176.324 145.752C176.341 145.741 176.354 145.723 176.36 145.703C176.366 145.683 176.364 145.662 176.355 145.643Z" fill="#263238"/>
<path d="M176.473 146.775C175.861 145.544 174.702 144.351 173.315 144.115C173.262 144.115 173.251 144.183 173.285 144.21C174.39 144.985 175.409 145.877 176.325 146.87C176.331 146.88 176.339 146.888 176.349 146.895C176.358 146.901 176.369 146.906 176.38 146.908C176.391 146.911 176.403 146.911 176.414 146.909C176.426 146.907 176.437 146.903 176.446 146.897C176.456 146.89 176.465 146.882 176.471 146.873C176.478 146.863 176.482 146.853 176.485 146.841C176.487 146.83 176.488 146.818 176.486 146.807C176.484 146.796 176.479 146.785 176.473 146.775Z" fill="#263238"/>
<path d="M176.587 147.904C175.979 146.676 174.82 145.483 173.433 145.244C173.38 145.244 173.364 145.312 173.402 145.339C174.507 146.115 175.526 147.007 176.442 147.999C176.449 148.008 176.457 148.016 176.466 148.023C176.476 148.029 176.486 148.033 176.497 148.036C176.508 148.038 176.52 148.038 176.531 148.036C176.542 148.034 176.553 148.03 176.562 148.023C176.572 148.017 176.58 148.009 176.586 148C176.593 147.99 176.597 147.98 176.599 147.969C176.602 147.957 176.602 147.946 176.6 147.935C176.597 147.924 176.593 147.913 176.587 147.904Z" fill="#263238"/>
<path d="M183.757 115.949C183.024 119.571 168.003 134.015 168.003 134.015L178.475 146.102C178.475 146.102 199.801 124.822 198.688 116.816C197.719 109.858 187.288 81.8786 187.288 81.8786H175.287C175.287 81.8786 184.476 112.389 183.757 115.949Z" fill="#37474F"/>
<path d="M183.757 115.949C183.024 119.571 168.003 134.015 168.003 134.015L178.475 146.102C178.475 146.102 199.801 124.822 198.688 116.816C197.719 109.858 187.288 81.8786 187.288 81.8786H175.287C175.287 81.8786 184.476 112.389 183.757 115.949Z" fill="#37474F"/>
<path d="M179.665 143.23C178.274 141.497 178.7 141.976 177.29 140.258C176.598 139.418 172.057 133.904 171.275 133.232C171.275 133.232 171.229 133.232 171.24 133.262C171.765 134.148 176.401 139.582 177.108 140.41C178.552 142.097 178.156 141.599 179.616 143.271C179.646 143.302 179.692 143.26 179.665 143.23Z" fill="#263238"/>
<path d="M185.251 114.186C185.076 113.282 184.871 112.381 184.692 111.481C184.3 109.641 183.885 107.809 183.45 105.982C182.583 102.357 181.642 98.7519 180.626 95.1672C179.604 91.5724 178.521 87.9814 177.271 84.455C177.119 84.018 176.959 83.5848 176.8 83.1516C176.8 83.1445 176.797 83.1378 176.792 83.1328C176.787 83.1278 176.78 83.125 176.773 83.125C176.766 83.125 176.759 83.1278 176.754 83.1328C176.749 83.1378 176.746 83.1445 176.746 83.1516C177.829 86.6856 178.943 90.2082 179.954 93.7574C180.964 97.3066 181.895 100.856 182.777 104.428C183.218 106.221 183.628 108.023 184.031 109.824C184.229 110.709 184.411 111.598 184.609 112.484C184.843 113.385 185.012 114.302 185.114 115.227C185.142 116.104 184.894 116.968 184.407 117.697C183.955 118.435 183.427 119.126 182.914 119.822C181.888 121.212 172.107 132.115 171.791 132.411C171.765 132.434 171.791 132.468 171.829 132.445C173.14 131.267 181.439 122.284 182.492 120.893C183.016 120.205 183.522 119.51 184.012 118.803C184.511 118.165 184.913 117.457 185.205 116.702C185.436 115.881 185.452 115.015 185.251 114.186Z" fill="#263238"/>
<path d="M185.224 81.8786L183.043 110.512C180.961 100.711 175.287 81.8786 175.287 81.8786H185.224Z" fill="#263238"/>
<path d="M204.954 160.805C204.243 161.033 183.902 160.717 183.138 160.216C183.014 159.973 182.946 159.705 182.94 159.433C182.939 159.425 182.939 159.418 182.94 159.41C182.792 158.27 182.72 156.036 182.682 153.49L182.234 151.289H195.271L195.781 153.653C195.781 153.653 203.514 157.259 204.3 157.901C205.087 158.544 205.672 160.58 204.954 160.805Z" fill="#EBEBEB"/>
<path d="M204.954 160.805C204.24 161.033 183.902 160.717 183.138 160.216C182.842 160.029 182.716 157.062 182.667 153.474V153.36L195.788 153.417V153.642C195.788 153.642 203.518 157.244 204.3 157.886C205.083 158.528 205.668 160.58 204.954 160.805Z" fill="#FFC727"/>
<path d="M204.737 160.014C201.317 159.877 187.474 159.634 184.077 159.771C184.05 159.771 184.05 159.79 184.077 159.794C187.47 160.003 201.306 160.121 204.737 160.071C204.81 160.067 204.81 160.018 204.737 160.014Z" fill="#263238"/>
<path d="M196.883 153.699C195.537 153.425 193.884 153.607 192.836 154.554C192.798 154.588 192.836 154.645 192.893 154.633C194.189 154.238 195.524 153.983 196.875 153.873C196.886 153.874 196.898 153.872 196.909 153.868C196.92 153.864 196.929 153.858 196.938 153.851C196.946 153.843 196.953 153.833 196.958 153.823C196.963 153.813 196.966 153.801 196.966 153.79C196.967 153.778 196.965 153.767 196.961 153.756C196.957 153.745 196.951 153.735 196.943 153.727C196.936 153.718 196.926 153.712 196.916 153.707C196.905 153.702 196.894 153.699 196.883 153.699Z" fill="#263238"/>
<path d="M197.844 154.299C196.503 154.025 194.846 154.208 193.801 155.154C193.763 155.192 193.801 155.249 193.858 155.234C195.153 154.838 196.487 154.584 197.837 154.474C197.86 154.475 197.882 154.467 197.899 154.451C197.917 154.435 197.927 154.413 197.928 154.39C197.929 154.367 197.92 154.344 197.905 154.327C197.889 154.31 197.867 154.3 197.844 154.299Z" fill="#263238"/>
<path d="M198.809 154.903C197.464 154.63 195.811 154.812 194.766 155.754C194.724 155.792 194.766 155.849 194.823 155.838C196.119 155.445 197.452 155.19 198.802 155.078C198.813 155.078 198.825 155.077 198.836 155.073C198.846 155.069 198.856 155.063 198.865 155.055C198.873 155.047 198.88 155.038 198.885 155.028C198.89 155.017 198.893 155.006 198.893 154.994C198.894 154.983 198.892 154.971 198.888 154.961C198.884 154.95 198.878 154.94 198.87 154.931C198.862 154.923 198.853 154.916 198.843 154.911C198.832 154.906 198.821 154.904 198.809 154.903Z" fill="#263238"/>
<path d="M186.151 81.8786C185.684 83.8542 185.338 85.8568 185.118 87.875C184.871 90.3906 184.555 92.6174 184.221 92.8948C183.887 93.1722 181.941 94.4148 181.303 94.7948C181.303 94.7948 187.223 112.746 188.751 118.735C190.966 127.406 196.271 153.433 196.271 153.433H182.135C182.135 153.433 177.837 128.66 175.956 120.399C174.345 113.32 168.174 92.0816 168.174 92.0816C167.523 90.4442 167.23 88.6862 167.316 86.9261C167.402 85.1661 167.864 83.4449 168.671 81.8786C168.671 81.8786 186.151 81.871 186.151 81.8786Z" fill="#37474F"/>
<path d="M195.754 150.697C193.531 150.697 194.169 150.659 191.954 150.67C190.867 150.67 183.723 150.723 182.712 150.909C182.706 150.909 182.701 150.912 182.696 150.916C182.692 150.92 182.69 150.926 182.69 150.932C182.69 150.938 182.692 150.944 182.696 150.948C182.701 150.953 182.706 150.955 182.712 150.955C183.731 151.107 190.871 150.932 191.958 150.906C194.181 150.849 193.543 150.841 195.758 150.761C195.765 150.758 195.77 150.754 195.774 150.748C195.778 150.742 195.779 150.735 195.779 150.728C195.779 150.72 195.776 150.714 195.772 150.708C195.767 150.703 195.761 150.698 195.754 150.697Z" fill="#263238"/>
<path d="M185.213 92.1842C183.84 92.9398 182.536 93.8133 181.314 94.7948C181.307 94.8029 181.302 94.8133 181.301 94.8244C181.301 94.8354 181.303 94.8463 181.31 94.8555C181.316 94.8647 181.325 94.8716 181.335 94.875C181.346 94.8785 181.357 94.8783 181.367 94.8746C182.69 94.0462 184.027 93.2406 185.316 92.34C185.331 92.3246 185.341 92.3041 185.344 92.2822C185.346 92.2603 185.341 92.2382 185.329 92.2198C185.316 92.2013 185.298 92.1877 185.277 92.1812C185.256 92.1747 185.233 92.1758 185.213 92.1842Z" fill="#263238"/>
<path d="M184.134 82.4182C184.134 82.3688 184.035 82.3726 184.043 82.4182C184.289 83.9985 184.455 85.5902 184.54 87.1872C184.59 87.9244 184.628 92.0474 183.317 91.9486C183.096 91.9486 182.937 91.7434 182.872 91.428C182.813 91.01 182.806 90.5863 182.849 90.1664C182.849 89.3 182.849 88.4374 182.781 87.571C182.68 85.9711 182.415 84.3858 181.991 82.84C181.991 82.8289 181.986 82.8183 181.978 82.8104C181.971 82.8026 181.96 82.7982 181.949 82.7982C181.938 82.7982 181.927 82.8026 181.919 82.8104C181.911 82.8183 181.907 82.8289 181.907 82.84C182.286 85.035 182.5 87.2554 182.545 89.4824C182.545 90.5578 182.268 92.2184 183.389 92.207C184.51 92.1956 184.844 89.4406 184.867 88.6996C184.896 86.5829 184.649 84.4714 184.134 82.4182Z" fill="#263238"/>
<path d="M183.366 92.0626C183.296 92.3516 183.246 92.6448 183.214 92.9404C183.172 93.1742 183.172 93.4135 183.214 93.6472C183.218 93.6562 183.224 93.6639 183.232 93.6693C183.24 93.6747 183.25 93.6776 183.26 93.6776C183.27 93.6776 183.279 93.6747 183.287 93.6693C183.295 93.6639 183.302 93.6562 183.305 93.6472C183.407 93.421 183.471 93.1797 183.495 92.9328C183.552 92.6592 183.613 92.3894 183.663 92.112C183.669 92.0727 183.66 92.0324 183.637 92C183.613 91.9676 183.578 91.9457 183.539 91.9391C183.5 91.9326 183.459 91.9419 183.427 91.9651C183.395 91.9882 183.373 92.0233 183.366 92.0626Z" fill="#263238"/>
<path d="M170.192 91.9904C171.409 91.9227 172.613 91.6953 173.771 91.314C175.086 90.8936 176.279 90.1579 177.244 89.1708C177.791 88.6284 178.242 87.9976 178.578 87.305C178.578 87.2784 178.631 87.305 178.624 87.3278C178.417 87.9985 178.099 88.6294 177.681 89.1936C177.25 89.7524 176.737 90.2442 176.161 90.6528C175.021 91.4886 173.68 92.0066 172.274 92.1538C171.581 92.2615 170.874 92.2513 170.184 92.1234C170.074 92.1082 170.104 91.998 170.192 91.9904Z" fill="#263238"/>
<path d="M180.482 142.907C180.448 142.58 180.402 142.253 180.357 141.926C180.269 141.303 180.163 140.676 180.064 140.053C179.874 138.795 179.657 137.541 179.433 136.291C178.992 133.794 178.479 131.305 177.94 128.828C177.632 127.429 177.279 126.046 176.902 124.648C176.88 124.549 176.743 124.598 176.758 124.689C176.986 125.959 177.206 127.224 177.465 128.489C177.723 129.755 177.982 131.001 178.225 132.259C178.719 134.744 179.179 137.241 179.673 139.726C179.809 140.429 179.939 141.132 180.075 141.835C180.144 142.185 180.212 142.538 180.288 142.884C180.364 143.23 180.471 143.575 180.528 143.925C180.528 143.959 180.585 143.944 180.581 143.925C180.528 143.587 180.524 143.26 180.482 142.907Z" fill="#263238"/>
<path d="M190.233 124.123C189.761 121.779 189.127 119.464 188.488 117.158C187.204 112.522 185.692 107.95 184.183 103.379C183.747 102.064 183.312 100.748 182.876 99.4308C182.659 98.7734 181.595 95.2204 181.462 94.8708C181.46 94.865 181.456 94.8599 181.451 94.8564C181.446 94.8529 181.44 94.851 181.434 94.851C181.428 94.851 181.422 94.8529 181.416 94.8564C181.411 94.8599 181.407 94.865 181.405 94.8708C181.713 96.0792 182.131 97.8424 182.484 99.0508C182.838 100.259 183.214 101.411 183.583 102.585C184.305 104.899 185.038 107.213 185.737 109.531C187.124 114.118 188.5 118.704 189.625 123.363C189.94 124.67 190.255 125.974 190.54 127.285C190.825 128.596 191.076 129.911 191.35 131.222C191.35 131.26 191.418 131.248 191.414 131.222C191.179 128.843 190.711 126.479 190.233 124.123Z" fill="#263238"/>
<path d="M181.443 136.393C180.664 131.921 179.733 127.471 178.7 123.048C177.666 118.625 176.507 114.186 175.234 109.805C173.961 105.423 172.551 101.065 171.054 96.7708C170.292 94.7449 169.651 92.6753 169.135 90.573C168.668 88.483 168.432 86.222 168.918 84.113C169.037 83.5778 169.199 83.053 169.401 82.5436C169.401 82.5094 169.363 82.479 169.348 82.5132C167.649 86.4766 168.751 90.8086 170.047 94.715C170.754 96.8544 171.51 98.9786 172.213 101.122C172.916 103.265 173.615 105.53 174.276 107.749C175.58 112.146 176.792 116.569 177.875 121.022C178.958 125.476 179.927 129.96 180.778 134.467C181.629 138.974 182.348 143.53 183.077 148.071C183.172 148.664 183.244 149.256 183.324 149.849C183.324 149.883 183.377 149.883 183.374 149.849C182.811 145.346 182.218 140.862 181.443 136.393Z" fill="#263238"/>
<path d="M181.154 63.1104C182.819 69.1904 187.614 76.5244 189.894 77.5504C191.878 78.432 201.082 75.0272 204.555 72.8156C205.543 72.1848 201.458 66.4962 200.268 66.8914C196.381 68.1872 192.152 70.1024 191.825 69.9922C191.164 69.768 187.037 64.7064 184.031 61.3016C180.66 57.475 180.493 60.6898 181.154 63.1104Z" fill="#EE9E93"/>
<path d="M211.117 67.659C211.9 67.3322 217.923 67.1422 217.923 65.835C217.923 64.5278 210.255 64.8926 210.255 64.8926L211.117 67.659Z" fill="#EE9E93"/>
<path d="M199.565 67.811C200.618 66.5038 201.545 65.094 202.461 64.8356C203.092 64.657 209.913 64.9496 210.977 64.885C212.041 64.8204 215.845 64.9192 215.917 65.854C216.042 67.1726 211.543 67.1612 211.064 67.8376C209.404 70.167 203.084 73.6136 203.084 73.6136L199.565 67.811Z" fill="#EE9E93"/>
<path d="M216.035 65.873C215.965 65.6303 215.81 65.4211 215.598 65.284C215.1 65.0115 214.539 64.8739 213.971 64.885C213.14 64.8102 212.304 64.8039 211.471 64.866C211.471 64.866 211.471 64.8926 211.471 64.8964C212.098 64.8964 212.717 64.8964 213.341 64.9648C213.912 64.9861 214.48 65.0728 215.032 65.2232C215.279 65.287 215.504 65.4185 215.681 65.6032C215.742 65.6726 215.785 65.7567 215.804 65.8472C215.823 65.9377 215.819 66.0316 215.792 66.12C215.613 66.6938 214.477 66.88 213.952 66.9826C213.268 67.1346 212.558 67.2676 211.87 67.4082C211.84 67.4082 211.87 67.4614 211.87 67.4538C212.584 67.3132 213.337 67.26 214.055 67.1308C214.655 67.0722 215.23 66.8631 215.727 66.5228C215.835 66.4554 215.922 66.3583 215.976 66.2431C216.031 66.1279 216.051 65.9994 216.035 65.873Z" fill="#263238"/>
<path d="M199.303 67.0054L204.699 74.9056C204.699 74.9056 196.339 79.0856 193.14 79.021C190.1 78.9488 188.994 78.5004 188.033 77.5922C187.436 77.0298 184.05 72.2456 181.288 64.2922C178.97 57.627 182.401 58.5922 185.468 62.301C186.988 64.1402 191.867 69.6236 192.11 69.6046C192.353 69.5856 199.303 67.0054 199.303 67.0054Z" fill="#FFC727"/>
<path d="M197.643 68.2898C198.452 69.4602 199.227 70.6534 199.991 71.8542C200.371 72.4394 201.769 74.8334 202.176 75.5136C202.176 75.5402 202.119 75.5858 202.1 75.5592C201.678 74.9588 200.154 72.5686 199.786 71.9758C199.026 70.7636 198.308 69.5476 197.608 68.3126C197.607 68.3103 197.606 68.3078 197.605 68.3052C197.605 68.3025 197.605 68.2998 197.605 68.2972C197.606 68.2945 197.607 68.292 197.608 68.2898C197.61 68.2875 197.612 68.2856 197.614 68.2841C197.616 68.2826 197.619 68.2816 197.622 68.281C197.624 68.2805 197.627 68.2805 197.63 68.281C197.632 68.2816 197.635 68.2826 197.637 68.2841C197.639 68.2856 197.641 68.2875 197.643 68.2898Z" fill="#263238"/>
<path opacity="0.1" d="M194.758 78.8196C194.229 78.9499 193.685 79.0175 193.14 79.021C190.1 78.9488 188.994 78.5004 188.032 77.5922C187.44 77.0298 184.05 72.2494 181.291 64.2922C180.858 63.1906 180.601 62.0274 180.531 60.8456C180.531 60.7734 180.531 60.6974 180.531 60.629C180.527 60.5619 180.527 60.4947 180.531 60.4276C180.537 60.3727 180.546 60.3182 180.558 60.2642C180.597 60.0162 180.714 59.7871 180.892 59.6106C182.781 62.1414 191.635 74.1 194.758 78.8196Z" fill="black"/>
<path d="M214.568 63.764H194.109V64.8622H214.568V63.764Z" fill="#C7C7C7"/>
<path d="M214.568 63.764V64.8622H202.142L202.982 63.764H214.568Z" fill="#A6A6A6"/>
<path d="M203.886 64.8622H217.57L224.691 52.7706H211.007L203.886 64.8622Z" fill="#C7C7C7"/>
<path d="M213.778 58.8088C213.523 59.3674 213.709 59.9488 214.196 60.1236C214.468 60.1865 214.753 60.1493 215 60.0188C215.247 59.8883 215.439 59.6733 215.541 59.413C215.795 58.8544 215.609 58.273 215.123 58.0982C214.851 58.0361 214.565 58.0737 214.318 58.204C214.072 58.3344 213.88 58.549 213.778 58.8088Z" fill="white"/>
<path d="M167.353 86.0434C167.402 86.0966 188.774 85.9446 188.967 85.7242C189.233 85.4126 184.172 62.3086 181.949 59.47C181.474 58.862 179.923 58.71 178.609 58.8848C178.266 58.9274 177.928 58.9998 177.598 59.1014H177.564C177.297 59.1848 177.046 59.3133 176.823 59.4814C173.194 62.4416 170.218 72.6864 169.53 75.7606C168.39 80.8298 167.174 85.842 167.353 86.0434Z" fill="#EBEBEB"/>
<path d="M177.336 59.1546C177.336 59.1546 178.73 68.6546 179.061 71.1322C179.391 73.6098 179.061 86.6172 179.061 86.6172L165.651 87.7572C165.651 87.7572 168.463 79.1084 168.489 78.5612C168.489 78.5612 170.712 68.1682 173.007 63.878C174.033 61.9665 175.521 60.3425 177.336 59.1546Z" fill="#FFC727"/>
<path d="M181.801 59.3218C181.801 59.3218 183.613 68.9434 183.773 69.7376C183.932 70.5318 186.254 86.1688 186.254 86.1688L189.61 86.241L187.789 79.097C187.789 79.097 183.894 60.8 181.801 59.3218Z" fill="#FFC727"/>
<path d="M181.044 62.396C180.026 62.5138 178.095 61.0964 177.556 59.5954C177.522 59.489 177.826 58.5124 178.137 57.3154C178.323 56.582 178.517 55.765 178.635 55.005C178.658 54.8492 183.218 56.905 183.218 56.905C182.795 57.811 182.485 58.7657 182.294 59.7474C182.285 59.8536 182.285 59.9604 182.294 60.0666V60.1198C182.279 60.7316 182.139 62.2744 181.044 62.396Z" fill="#EE9E93"/>
<path d="M182.279 60.0742C182.281 60.0919 182.281 60.1097 182.279 60.1274C182.115 60.1215 181.951 60.1037 181.789 60.0742C178.996 59.5688 178.81 55.9398 178.806 55.0278C179.635 55.2824 183.222 56.9278 183.222 56.9278C182.799 57.8352 182.489 58.7911 182.298 59.774C182.285 59.8735 182.279 59.9738 182.279 60.0742Z" fill="#263238"/>
<path d="M178.688 48.944C177.955 50.578 178.236 55.594 179.304 56.8366C180.854 58.6416 183.701 59.1546 185.312 57.2166C186.874 55.3432 186.395 48.811 185.171 47.6482C183.37 45.9382 179.768 46.5348 178.688 48.944Z" fill="#EE9E93"/>
<path d="M182.382 52.497C182.382 52.497 182.355 52.497 182.359 52.5274C182.386 52.8656 182.359 53.2532 182.063 53.3824C182.063 53.3824 182.063 53.4052 182.063 53.4014C182.435 53.3292 182.462 52.82 182.382 52.497Z" fill="#263238"/>
<path d="M182.063 52.1588C181.519 52.1588 181.531 53.238 182.036 53.2494C182.541 53.2608 182.519 52.1702 182.063 52.1588Z" fill="#263238"/>
<path d="M184.464 52.478C184.464 52.478 184.491 52.497 184.491 52.5084C184.491 52.8466 184.533 53.238 184.84 53.3444C184.84 53.3444 184.84 53.3672 184.84 53.3634C184.464 53.3178 184.403 52.82 184.464 52.478Z" fill="#263238"/>
<path d="M184.761 52.1246C185.304 52.0752 185.361 53.1658 184.856 53.2114C184.35 53.257 184.305 52.1626 184.761 52.1246Z" fill="#263238"/>
<path d="M181.626 51.68C181.774 51.6382 181.903 51.5774 182.047 51.5242C182.204 51.4914 182.344 51.4071 182.446 51.2848C182.471 51.2408 182.481 51.1898 182.474 51.1397C182.467 51.0896 182.444 51.0432 182.408 51.0074C182.325 50.9477 182.227 50.9113 182.125 50.9019C182.023 50.8926 181.92 50.9106 181.827 50.9542C181.626 51.0166 181.455 51.1521 181.348 51.3342C181.329 51.376 181.321 51.4225 181.327 51.4683C181.332 51.5141 181.35 51.5575 181.379 51.5935C181.408 51.6295 181.447 51.6567 181.49 51.672C181.534 51.6872 181.581 51.69 181.626 51.68Z" fill="#263238"/>
<path d="M185.179 51.205C185.031 51.1772 184.885 51.1417 184.742 51.0986C184.584 51.0811 184.436 51.0131 184.32 50.9048C184.289 50.8638 184.272 50.8138 184.272 50.7623C184.272 50.7108 184.289 50.6608 184.32 50.6198C184.397 50.5525 184.49 50.5065 184.59 50.4864C184.69 50.4664 184.793 50.4731 184.89 50.5058C185.095 50.544 185.279 50.6563 185.407 50.8212C185.433 50.86 185.447 50.9054 185.449 50.9521C185.45 50.9989 185.438 51.045 185.414 51.0852C185.39 51.1254 185.355 51.158 185.314 51.1792C185.272 51.2004 185.225 51.2094 185.179 51.205Z" fill="#263238"/>
<path d="M182.272 55.6244C182.351 55.7042 182.435 55.8106 182.557 55.822C182.689 55.82 182.818 55.7889 182.937 55.7308C182.937 55.7308 182.956 55.7308 182.937 55.7498C182.888 55.8164 182.823 55.8688 182.747 55.9016C182.672 55.9344 182.589 55.9462 182.507 55.936C182.438 55.9195 182.376 55.8828 182.328 55.8307C182.28 55.7786 182.248 55.7134 182.237 55.6434C182.234 55.6206 182.256 55.613 182.272 55.6244Z" fill="#263238"/>
<path d="M182.614 54.6098C182.699 54.7411 182.811 54.8534 182.942 54.9397C183.072 55.0261 183.219 55.0845 183.374 55.1114C183.511 55.1322 183.651 55.1322 183.788 55.1114C183.814 55.1153 183.841 55.1153 183.868 55.1114H183.94C183.958 55.1081 183.975 55.0988 183.987 55.085C184 55.0713 184.007 55.0538 184.008 55.0354C184.01 55.024 184.01 55.0125 184.008 55.0012V54.9708C184.008 54.7086 183.982 54.3134 183.982 54.3134C184.077 54.359 184.567 54.5718 184.556 54.435C184.511 53.2613 184.348 52.0951 184.069 50.9542C184.069 50.9461 184.066 50.9384 184.06 50.9327C184.055 50.927 184.047 50.9238 184.039 50.9238C184.031 50.9238 184.023 50.927 184.017 50.9327C184.012 50.9384 184.008 50.9461 184.008 50.9542C184.043 52.0372 184.267 53.1088 184.32 54.1994C184.146 54.1209 183.962 54.0672 183.773 54.0398C183.735 54.0398 183.845 54.7998 183.834 54.9214C183.621 54.9459 183.405 54.9272 183.199 54.8665C182.993 54.8058 182.802 54.7043 182.637 54.568C182.621 54.5604 182.595 54.5832 182.614 54.6098Z" fill="#263238"/>
<path d="M183.647 54.9974C183.506 55.1834 183.321 55.3311 183.108 55.4268C182.987 55.4746 182.854 55.4839 182.728 55.4534C182.458 55.385 182.45 55.138 182.496 54.9252C182.522 54.812 182.562 54.7023 182.614 54.5984C182.907 54.8381 183.269 54.9778 183.647 54.9974Z" fill="#263238"/>
<path d="M183.112 55.4268C182.991 55.4746 182.858 55.4839 182.732 55.4534C182.462 55.385 182.454 55.138 182.5 54.9252C182.643 54.9285 182.781 54.9797 182.892 55.0706C183.003 55.1615 183.08 55.2869 183.112 55.4268Z" fill="#FF9BBC"/>
<path d="M178.27 53.2798C178.27 53.2798 177.058 50.2702 177.472 48.7198C177.658 48.0168 178.711 47.6938 178.711 47.6938C178.683 47.3915 178.739 47.0873 178.873 46.8149C179.007 46.5425 179.214 46.3127 179.471 46.151C180.448 45.4898 182.469 46.0028 182.469 46.0028C182.469 46.0028 184.111 44.3004 185.866 45.3682C187.622 46.436 186.049 48.3664 186.049 48.3664C186.049 48.3664 186.581 49.457 184.768 49.9472C182.956 50.4374 179.775 49.1454 179.775 49.1454C179.742 50.3249 179.533 51.4929 179.156 52.611C179.083 52.7924 178.962 52.9506 178.806 53.0684C178.65 53.1863 178.465 53.2593 178.27 53.2798Z" fill="#263238"/>
<path d="M182.804 46.075C182.411 45.837 181.974 45.6806 181.519 45.6152C181.116 45.5487 180.703 45.5487 180.3 45.6152C179.939 45.6577 179.597 45.7971 179.309 46.0186C179.021 46.2401 178.799 46.5353 178.666 46.873C178.608 47.0507 178.587 47.2381 178.603 47.4241C178.62 47.6102 178.673 47.791 178.761 47.956C178.761 47.956 178.787 47.956 178.78 47.956C178.434 47.3442 178.78 46.5462 179.319 46.17C179.948 45.782 180.696 45.6361 181.424 45.7596C181.892 45.8306 182.348 45.9582 182.785 46.1396C182.789 46.1408 182.793 46.1412 182.798 46.1408C182.802 46.1403 182.807 46.139 182.81 46.1368C182.814 46.1347 182.818 46.1319 182.821 46.1284C182.823 46.125 182.825 46.121 182.827 46.1168C182.828 46.1125 182.828 46.1081 182.828 46.1037C182.827 46.0993 182.826 46.095 182.824 46.0912C182.822 46.0873 182.819 46.0838 182.815 46.0811C182.812 46.0783 182.808 46.0762 182.804 46.075Z" fill="#263238"/>
<path d="M187.075 46.4854C187.03 46.2219 186.919 45.9738 186.754 45.7635C186.589 45.5532 186.374 45.3873 186.129 45.2808C185.575 45.0055 184.944 44.9251 184.339 45.0528C183.73 45.1827 183.168 45.4726 182.709 45.8926C182.709 45.8926 182.709 45.9192 182.709 45.8926C183.12 45.5235 183.624 45.2723 184.166 45.1653C184.708 45.0583 185.27 45.0995 185.791 45.2846C186.033 45.3498 186.256 45.4741 186.438 45.6464C186.621 45.8186 186.758 46.0335 186.838 46.2718C186.917 46.5101 186.936 46.7643 186.894 47.0118C186.851 47.2593 186.747 47.4923 186.592 47.69C186.228 48.1536 185.741 48.5053 185.186 48.7046C185.186 48.7046 185.186 48.7312 185.186 48.7236C185.706 48.5665 186.177 48.2817 186.558 47.8952C186.739 47.7103 186.879 47.489 186.968 47.2459C187.057 47.0029 187.094 46.7436 187.075 46.4854Z" fill="#263238"/>
<path d="M179.418 53.1506C179.418 53.1506 178.476 51.4444 177.712 51.7674C176.948 52.0904 177.541 54.4768 178.354 54.8834C178.455 54.9421 178.567 54.9799 178.683 54.9944C178.799 55.009 178.916 55 179.029 54.9681C179.141 54.9362 179.246 54.882 179.337 54.8086C179.428 54.7353 179.503 54.6444 179.559 54.5414L179.418 53.1506Z" fill="#EE9E93"/>
<path d="M177.898 52.44C177.898 52.44 177.898 52.44 177.898 52.4628C178.156 52.6264 178.377 52.8426 178.546 53.0973C178.715 53.3521 178.828 53.6395 178.878 53.941C178.85 53.8783 178.808 53.8225 178.757 53.7773C178.705 53.7321 178.644 53.6986 178.578 53.6792C178.512 53.6597 178.442 53.6547 178.374 53.6644C178.306 53.6742 178.241 53.6986 178.183 53.7358C178.183 53.7358 178.183 53.7738 178.183 53.77C178.291 53.7477 178.404 53.7595 178.505 53.8037C178.607 53.8479 178.692 53.9224 178.749 54.017C178.84 54.1768 178.917 54.3447 178.977 54.5186C179 54.5756 179.099 54.5566 179.084 54.492C179.179 53.732 178.704 52.611 177.898 52.44Z" fill="#263238"/>
<path d="M174.641 61.3434C169.26 67.3854 165.213 75.8936 165.251 77.9C165.305 80.104 168.109 87.8674 170.78 91.5154C171.126 91.9828 173.209 91.7852 174.96 90.8162C176.819 89.794 178.342 87.97 177.978 87.4266C176.606 85.386 173.357 77.482 173.387 76.247C173.414 75.107 176.078 68.1074 177.092 64.0604C178.084 60.1654 177.145 58.52 174.641 61.3434Z" fill="#EE9E93"/>
<path d="M167.532 90.9112L177.552 86.0168C177.552 86.0168 173.612 77.2236 173.612 76.2736C173.612 75.3236 176.203 67.8908 177.18 64.4556C178.156 61.0204 177.78 57.1596 173.501 62.3542C169.223 67.5488 165.483 75.2742 165.058 77.3262C164.632 79.3782 167.532 90.9112 167.532 90.9112Z" fill="#FFC727"/>
<path d="M174.113 73.7504C174.318 73.0993 174.531 72.4495 174.752 71.801C174.999 71.0752 175.253 70.3532 175.512 69.635C175.77 68.9168 176.063 68.248 176.344 67.5564C176.344 67.507 176.45 67.5564 176.435 67.5906C176.1 68.514 175.789 69.4488 175.477 70.3836C175.713 69.958 175.949 69.5362 176.199 69.1182C176.205 69.1134 176.211 69.1103 176.218 69.1094C176.225 69.1085 176.232 69.1098 176.239 69.1131C176.245 69.1165 176.25 69.1217 176.253 69.128C176.256 69.1344 176.257 69.1416 176.256 69.1486C175.975 69.6654 175.679 70.1708 175.378 70.6686C175.306 70.8928 175.23 71.1208 175.154 71.345C174.733 72.599 174.33 73.8606 173.969 75.145C173.879 75.4293 173.819 75.7223 173.79 76.019C173.775 76.3573 173.825 76.6954 173.938 77.0146C174.121 77.6036 174.318 78.185 174.531 78.7626C174.949 79.9292 175.405 81.0768 175.88 82.2168C176.424 83.5164 177.043 84.797 177.658 86.0624C177.658 86.0624 177.278 86.1612 177.278 86.1688C177.278 86.1764 177.248 86.1688 177.256 86.1498C177.263 86.1308 177.491 86.0244 177.499 86.0244C176.872 84.93 176.275 83.8546 175.747 82.7032C175.219 81.5518 174.759 80.4232 174.337 79.23C174.121 78.622 173.912 78.014 173.722 77.3984C173.506 76.8277 173.447 76.2098 173.551 75.6086C173.691 74.9778 173.919 74.3622 174.113 73.7504Z" fill="#263238"/>
<path d="M167.361 88.0878C167.716 87.8957 168.081 87.7232 168.455 87.571C168.782 87.419 169.105 87.2632 169.435 87.115C170.15 86.792 170.864 86.4652 171.582 86.146C172.301 85.8268 173.015 85.5038 173.733 85.1922C174.451 84.8806 175.158 84.5462 175.888 84.2764C175.914 84.2764 175.933 84.3068 175.911 84.322C175.246 84.7324 174.535 85.082 173.836 85.4202C173.137 85.7584 172.449 86.0852 171.746 86.4006C171.043 86.716 170.306 87.0238 169.58 87.3164C169.23 87.457 168.877 87.5862 168.52 87.7192C168.149 87.8793 167.768 88.0151 167.38 88.1258C167.375 88.1262 167.37 88.1252 167.366 88.123C167.362 88.1208 167.359 88.1174 167.357 88.1133C167.355 88.1092 167.354 88.1045 167.355 88.1C167.356 88.0954 167.358 88.0912 167.361 88.0878Z" fill="#263238"/>
</svg>
